<?xml version="1.0" encoding="UTF-8" standalone="no"?>
<!-- Generator: Adobe Illustrator 15.0.0, SVG Export Plug-In . SVG Version: 6.00 Build 0)  -->

<svg
   xmlns:dc="http://purl.org/dc/elements/1.1/"
   xmlns:cc="http://creativecommons.org/ns#"
   xmlns:rdf="http://www.w3.org/1999/02/22-rdf-syntax-ns#"
   xmlns:svg="http://www.w3.org/2000/svg"
   xmlns="http://www.w3.org/2000/svg"
   xmlns:sodipodi="http://sodipodi.sourceforge.net/DTD/sodipodi-0.dtd"
   xmlns:inkscape="http://www.inkscape.org/namespaces/inkscape"
   version="1.1"
   id="Layer_1"
   x="0px"
   y="0px"
   width="72.000999"
   height="141.466"
   viewBox="0 0 72.000999 141.466"
   enable-background="new 0 0 141 72"
   xml:space="preserve"
   inkscape:version="0.91 r"
   sodipodi:docname="pcb.svg"><metadata
     id="metadata369"><rdf:RDF><cc:Work
         rdf:about=""><dc:format>image/svg+xml</dc:format><dc:type
           rdf:resource="http://purl.org/dc/dcmitype/StillImage" /><dc:title></dc:title></cc:Work></rdf:RDF></metadata><defs
     id="defs367" /><sodipodi:namedview
     pagecolor="#ffffff"
     bordercolor="#666666"
     borderopacity="1"
     objecttolerance="10"
     gridtolerance="10"
     guidetolerance="10"
     inkscape:pageopacity="0"
     inkscape:pageshadow="2"
     inkscape:window-width="1920"
     inkscape:window-height="1054"
     id="namedview365"
     showgrid="false"
     inkscape:zoom="4.5569453"
     inkscape:cx="64.655238"
     inkscape:cy="70.933282"
     inkscape:window-x="0"
     inkscape:window-y="0"
     inkscape:window-maximized="1"
     inkscape:current-layer="Layer_1"
     fit-margin-top="0"
     fit-margin-left="0"
     fit-margin-right="0"
     fit-margin-bottom="0" /><path
     style="fill:#1e2c5c"
     inkscape:connector-curvature="0"
     id="path5"
     d="m 72.001,131.751 0,-126.747 C 72.001,2.24 69.735,0 66.938,0 L 5.0640004,0 c -2.795,0 -5.062,2.24 -5.062,5.004 l 0,126.747 c 0,2.765 2.268,5.007 5.062,5.007 l 61.8749996,0 c 2.796,0 5.062,-2.242 5.062,-5.007 z M 70.182,6.533 c 0,2.352 -1.924,4.259 -4.295,4.259 -2.37,0 -4.293,-1.905 -4.293,-4.259 0,-2.355 1.922,-4.261 4.293,-4.261 2.37,0 4.295,1.906 4.295,4.261 z m -68.5859996,0 c 0,-2.355 1.92,-4.261 4.291,-4.261 2.373,0 4.2989996,1.905 4.2989996,4.261 0,2.352 -1.9259996,4.259 -4.2989996,4.259 -2.371,0 -4.291,-1.907 -4.291,-4.259 z m 0,124.017 c 0,-2.354 1.92,-4.26 4.291,-4.26 2.373,0 4.2989996,1.905 4.2989996,4.26 0,2.353 -1.9259996,4.259 -4.2989996,4.259 -2.371,0 -4.291,-1.907 -4.291,-4.259 z m 59.9979996,0 c 0,-2.354 1.923,-4.26 4.293,-4.26 2.37,0 4.294,1.905 4.294,4.26 0,2.353 -1.923,4.259 -4.294,4.259 -2.369,0 -4.293,-1.907 -4.293,-4.259 z" /><rect
     style="fill:#454545"
     id="rect7"
     height="7.428"
     width="3.7130001"
     y="-7.428"
     x="16.257999"
     transform="matrix(0,1,-1,0,0,0)" /><polygon
     style="fill:#454545"
     id="polygon9"
     points="14.4,66.428 16.258,64.572 16.258,71.998 14.4,70.141 "
     transform="matrix(0,1,-1,0,72,0)" /><polygon
     style="fill:#454545"
     id="polygon11"
     points="19.97,64.572 21.829,66.428 21.829,70.141 19.97,71.998 "
     transform="matrix(0,1,-1,0,72,0)" /><rect
     style="fill:#b68b2d"
     id="rect13"
     height="1.668"
     width="1.312"
     y="-4.5510011"
     x="17.458"
     transform="matrix(0,1,-1,0,0,0)" /><rect
     style="fill:#454545"
     id="rect15"
     height="7.428"
     width="3.7130001"
     y="-7.428"
     x="23.458"
     transform="matrix(0,1,-1,0,0,0)" /><polygon
     style="fill:#454545"
     id="polygon17"
     points="21.6,66.428 23.458,64.572 23.458,71.998 21.6,70.141 "
     transform="matrix(0,1,-1,0,72,0)" /><polygon
     style="fill:#454545"
     id="polygon19"
     points="27.17,64.572 29.029,66.428 29.029,70.141 27.17,71.998 "
     transform="matrix(0,1,-1,0,72,0)" /><rect
     style="fill:#b68b2d"
     id="rect21"
     height="1.668"
     width="1.312"
     y="-4.5510011"
     x="24.658001"
     transform="matrix(0,1,-1,0,0,0)" /><rect
     style="fill:#454545"
     id="rect23"
     height="7.428"
     width="3.7130001"
     y="-7.428"
     x="30.658001"
     transform="matrix(0,1,-1,0,0,0)" /><polygon
     style="fill:#454545"
     id="polygon25"
     points="28.8,66.428 30.658,64.572 30.658,71.998 28.8,70.141 "
     transform="matrix(0,1,-1,0,72,0)" /><polygon
     style="fill:#454545"
     id="polygon27"
     points="34.37,64.572 36.229,66.428 36.229,70.141 34.37,71.998 "
     transform="matrix(0,1,-1,0,72,0)" /><rect
     style="fill:#b68b2d"
     id="rect29"
     height="1.668"
     width="1.312"
     y="-4.5510011"
     x="31.858"
     transform="matrix(0,1,-1,0,0,0)" /><rect
     style="fill:#454545"
     id="rect31"
     height="7.428"
     width="3.7130001"
     y="-7.428"
     x="37.858002"
     transform="matrix(0,1,-1,0,0,0)" /><polygon
     style="fill:#454545"
     id="polygon33"
     points="36,66.428 37.858,64.572 37.858,71.998 36,70.141 "
     transform="matrix(0,1,-1,0,72,0)" /><polygon
     style="fill:#454545"
     id="polygon35"
     points="41.57,64.572 43.429,66.428 43.429,70.141 41.57,71.998 "
     transform="matrix(0,1,-1,0,72,0)" /><rect
     style="fill:#b68b2d"
     id="rect37"
     height="1.668"
     width="1.312"
     y="-4.5510011"
     x="39.058998"
     transform="matrix(0,1,-1,0,0,0)" /><rect
     style="fill:#454545"
     id="rect39"
     height="7.428"
     width="3.7130001"
     y="-7.428"
     x="45.057999"
     transform="matrix(0,1,-1,0,0,0)" /><polygon
     style="fill:#454545"
     id="polygon41"
     points="43.2,66.428 45.058,64.572 45.058,71.998 43.2,70.141 "
     transform="matrix(0,1,-1,0,72,0)" /><polygon
     style="fill:#454545"
     id="polygon43"
     points="48.77,64.572 50.629,66.428 50.629,70.141 48.77,71.998 "
     transform="matrix(0,1,-1,0,72,0)" /><rect
     style="fill:#b68b2d"
     id="rect45"
     height="1.668"
     width="1.312"
     y="-4.5510011"
     x="46.257999"
     transform="matrix(0,1,-1,0,0,0)" /><rect
     style="fill:#454545"
     id="rect47"
     height="7.428"
     width="3.7130001"
     y="-7.428"
     x="52.257999"
     transform="matrix(0,1,-1,0,0,0)" /><polygon
     style="fill:#454545"
     id="polygon49"
     points="50.4,66.428 52.258,64.572 52.258,71.998 50.4,70.141 "
     transform="matrix(0,1,-1,0,72,0)" /><polygon
     style="fill:#454545"
     id="polygon51"
     points="55.97,64.572 57.829,66.428 57.829,70.141 55.97,71.998 "
     transform="matrix(0,1,-1,0,72,0)" /><rect
     style="fill:#b68b2d"
     id="rect53"
     height="1.668"
     width="1.312"
     y="-4.5510011"
     x="53.458"
     transform="matrix(0,1,-1,0,0,0)" /><rect
     style="fill:#454545"
     id="rect55"
     height="7.428"
     width="3.7130001"
     y="-7.428"
     x="59.458"
     transform="matrix(0,1,-1,0,0,0)" /><polygon
     style="fill:#454545"
     id="polygon57"
     points="57.601,66.428 59.458,64.572 59.458,71.998 57.601,70.141 "
     transform="matrix(0,1,-1,0,72,0)" /><polygon
     style="fill:#454545"
     id="polygon59"
     points="63.17,64.572 65.029,66.428 65.029,70.141 63.17,71.998 "
     transform="matrix(0,1,-1,0,72,0)" /><rect
     style="fill:#b68b2d"
     id="rect61"
     height="1.668"
     width="1.312"
     y="-4.5510011"
     x="60.659"
     transform="matrix(0,1,-1,0,0,0)" /><rect
     style="fill:#454545"
     id="rect63"
     height="7.428"
     width="3.7130001"
     y="-7.428"
     x="66.658997"
     transform="matrix(0,1,-1,0,0,0)" /><polygon
     style="fill:#454545"
     id="polygon65"
     points="64.801,66.428 66.659,64.572 66.659,71.998 64.801,70.141 "
     transform="matrix(0,1,-1,0,72,0)" /><polygon
     style="fill:#454545"
     id="polygon67"
     points="70.371,64.572 72.229,66.428 72.229,70.141 70.371,71.998 "
     transform="matrix(0,1,-1,0,72,0)" /><rect
     style="fill:#b68b2d"
     id="rect69"
     height="1.668"
     width="1.312"
     y="-4.5510011"
     x="67.859001"
     transform="matrix(0,1,-1,0,0,0)" /><rect
     style="fill:#454545"
     id="rect71"
     height="7.428"
     width="3.7130001"
     y="-7.428"
     x="73.857002"
     transform="matrix(0,1,-1,0,0,0)" /><polygon
     style="fill:#454545"
     id="polygon73"
     points="72,66.428 73.857,64.572 73.857,71.998 72,70.141 "
     transform="matrix(0,1,-1,0,72,0)" /><polygon
     style="fill:#454545"
     id="polygon75"
     points="77.568,64.572 79.43,66.428 79.43,70.141 77.568,71.998 "
     transform="matrix(0,1,-1,0,72,0)" /><rect
     style="fill:#b68b2d"
     id="rect77"
     height="1.668"
     width="1.312"
     y="-4.5510011"
     x="75.058998"
     transform="matrix(0,1,-1,0,0,0)" /><rect
     style="fill:#454545"
     id="rect79"
     height="7.428"
     width="3.7130001"
     y="-7.428"
     x="81.058998"
     transform="matrix(0,1,-1,0,0,0)" /><polygon
     style="fill:#454545"
     id="polygon81"
     points="79.2,66.428 81.059,64.572 81.059,71.998 79.2,70.141 "
     transform="matrix(0,1,-1,0,72,0)" /><polygon
     style="fill:#454545"
     id="polygon83"
     points="84.771,64.572 86.63,66.428 86.63,70.141 84.771,71.998 "
     transform="matrix(0,1,-1,0,72,0)" /><rect
     style="fill:#b68b2d"
     id="rect85"
     height="1.668"
     width="1.312"
     y="-4.5510011"
     x="82.259003"
     transform="matrix(0,1,-1,0,0,0)" /><rect
     style="fill:#454545"
     id="rect87"
     height="7.428"
     width="3.714"
     y="-7.428"
     x="88.259003"
     transform="matrix(0,1,-1,0,0,0)" /><polygon
     style="fill:#454545"
     id="polygon89"
     points="86.4,66.428 88.259,64.572 88.259,71.998 86.4,70.141 "
     transform="matrix(0,1,-1,0,72,0)" /><polygon
     style="fill:#454545"
     id="polygon91"
     points="91.971,64.572 93.829,66.428 93.829,70.141 91.971,71.998 "
     transform="matrix(0,1,-1,0,72,0)" /><rect
     style="fill:#b68b2d"
     id="rect93"
     height="1.668"
     width="1.312"
     y="-4.5510011"
     x="89.458"
     transform="matrix(0,1,-1,0,0,0)" /><rect
     style="fill:#454545"
     id="rect95"
     height="7.428"
     width="3.7130001"
     y="-7.428"
     x="95.458"
     transform="matrix(0,1,-1,0,0,0)" /><polygon
     style="fill:#454545"
     id="polygon97"
     points="93.602,66.428 95.458,64.572 95.458,71.998 93.602,70.141 "
     transform="matrix(0,1,-1,0,72,0)" /><polygon
     style="fill:#454545"
     id="polygon99"
     points="99.171,64.572 101.029,66.428 101.029,70.141 99.171,71.998 "
     transform="matrix(0,1,-1,0,72,0)" /><rect
     style="fill:#b68b2d"
     id="rect101"
     height="1.668"
     width="1.312"
     y="-4.5510011"
     x="96.658997"
     transform="matrix(0,1,-1,0,0,0)" /><rect
     style="fill:#454545"
     id="rect103"
     height="7.428"
     width="3.7130001"
     y="-7.428"
     x="102.659"
     transform="matrix(0,1,-1,0,0,0)" /><polygon
     style="fill:#454545"
     id="polygon105"
     points="100.8,66.428 102.659,64.572 102.659,71.998 100.8,70.141 "
     transform="matrix(0,1,-1,0,72,0)" /><polygon
     style="fill:#454545"
     id="polygon107"
     points="106.37,64.572 108.229,66.428 108.229,70.141 106.37,71.998 "
     transform="matrix(0,1,-1,0,72,0)" /><rect
     style="fill:#b68b2d"
     id="rect109"
     height="1.668"
     width="1.312"
     y="-4.5510011"
     x="103.857"
     transform="matrix(0,1,-1,0,0,0)" /><rect
     style="fill:#454545"
     id="rect111"
     height="7.428"
     width="3.7130001"
     y="-7.428"
     x="109.857"
     transform="matrix(0,1,-1,0,0,0)" /><polygon
     style="fill:#454545"
     id="polygon113"
     points="108.001,66.428 109.857,64.572 109.857,71.998 108.001,70.141 "
     transform="matrix(0,1,-1,0,72,0)" /><polygon
     style="fill:#454545"
     id="polygon115"
     points="113.57,64.572 115.43,66.428 115.43,70.141 113.57,71.998 "
     transform="matrix(0,1,-1,0,72,0)" /><rect
     style="fill:#b68b2d"
     id="rect117"
     height="1.668"
     width="1.312"
     y="-4.5510011"
     x="111.061"
     transform="matrix(0,1,-1,0,0,0)" /><rect
     style="fill:#454545"
     id="rect119"
     height="7.428"
     width="3.7130001"
     y="-7.428"
     x="117.061"
     transform="matrix(0,1,-1,0,0,0)" /><polygon
     style="fill:#454545"
     id="polygon121"
     points="115.2,66.428 117.061,64.572 117.061,71.998 115.2,70.141 "
     transform="matrix(0,1,-1,0,72,0)" /><polygon
     style="fill:#454545"
     id="polygon123"
     points="120.771,64.572 122.63,66.428 122.63,70.141 120.771,71.998 "
     transform="matrix(0,1,-1,0,72,0)" /><rect
     style="fill:#b68b2d"
     id="rect125"
     height="1.668"
     width="1.312"
     y="-4.5510011"
     x="118.259"
     transform="matrix(0,1,-1,0,0,0)" /><rect
     style="fill:#454545"
     id="rect127"
     height="7.427"
     width="3.7130001"
     y="-72.000999"
     x="16.028"
     transform="matrix(0,1,-1,0,0,0)" /><polygon
     style="fill:#454545"
     id="polygon129"
     points="14.17,1.854 16.028,-0.001 16.028,7.425 14.17,5.566 "
     transform="matrix(0,1,-1,0,72,0)" /><polygon
     style="fill:#454545"
     id="polygon131"
     points="19.74,-0.001 21.599,1.854 21.599,5.566 19.74,7.425 "
     transform="matrix(0,1,-1,0,72,0)" /><rect
     style="fill:#b68b2d"
     id="rect133"
     height="1.668"
     width="1.312"
     y="-69.125"
     x="17.228001"
     transform="matrix(0,1,-1,0,0,0)" /><rect
     style="fill:#454545"
     id="rect135"
     height="7.427"
     width="3.7130001"
     y="-72.000999"
     x="23.228001"
     transform="matrix(0,1,-1,0,0,0)" /><polygon
     style="fill:#454545"
     id="polygon137"
     points="21.37,1.854 23.228,-0.001 23.228,7.425 21.37,5.566 "
     transform="matrix(0,1,-1,0,72,0)" /><polygon
     style="fill:#454545"
     id="polygon139"
     points="26.94,-0.001 28.799,1.854 28.799,5.566 26.94,7.425 "
     transform="matrix(0,1,-1,0,72,0)" /><rect
     style="fill:#b68b2d"
     id="rect141"
     height="1.668"
     width="1.312"
     y="-69.125"
     x="24.427999"
     transform="matrix(0,1,-1,0,0,0)" /><rect
     style="fill:#454545"
     id="rect143"
     height="7.427"
     width="3.7130001"
     y="-72.000999"
     x="30.427999"
     transform="matrix(0,1,-1,0,0,0)" /><polygon
     style="fill:#454545"
     id="polygon145"
     points="28.57,1.854 30.428,-0.001 30.428,7.425 28.57,5.566 "
     transform="matrix(0,1,-1,0,72,0)" /><polygon
     style="fill:#454545"
     id="polygon147"
     points="34.14,-0.001 35.999,1.854 35.999,5.566 34.14,7.425 "
     transform="matrix(0,1,-1,0,72,0)" /><rect
     style="fill:#b68b2d"
     id="rect149"
     height="1.668"
     width="1.312"
     y="-69.125"
     x="31.628"
     transform="matrix(0,1,-1,0,0,0)" /><rect
     style="fill:#454545"
     id="rect151"
     height="7.427"
     width="3.7130001"
     y="-72.000999"
     x="37.627998"
     transform="matrix(0,1,-1,0,0,0)" /><polygon
     style="fill:#454545"
     id="polygon153"
     points="35.771,1.854 37.628,-0.001 37.628,7.425 35.771,5.566 "
     transform="matrix(0,1,-1,0,72,0)" /><polygon
     style="fill:#454545"
     id="polygon155"
     points="41.34,-0.001 43.199,1.854 43.199,5.566 41.34,7.425 "
     transform="matrix(0,1,-1,0,72,0)" /><rect
     style="fill:#b68b2d"
     id="rect157"
     height="1.668"
     width="1.312"
     y="-69.125"
     x="38.828999"
     transform="matrix(0,1,-1,0,0,0)" /><rect
     style="fill:#454545"
     id="rect159"
     height="7.427"
     width="3.7130001"
     y="-72.000999"
     x="44.827999"
     transform="matrix(0,1,-1,0,0,0)" /><polygon
     style="fill:#454545"
     id="polygon161"
     points="42.97,1.854 44.828,-0.001 44.828,7.425 42.97,5.566 "
     transform="matrix(0,1,-1,0,72,0)" /><polygon
     style="fill:#454545"
     id="polygon163"
     points="48.54,-0.001 50.399,1.854 50.399,5.566 48.54,7.425 "
     transform="matrix(0,1,-1,0,72,0)" /><rect
     style="fill:#b68b2d"
     id="rect165"
     height="1.668"
     width="1.312"
     y="-69.125"
     x="46.028"
     transform="matrix(0,1,-1,0,0,0)" /><rect
     style="fill:#454545"
     id="rect167"
     height="7.427"
     width="3.7130001"
     y="-72.000999"
     x="52.028"
     transform="matrix(0,1,-1,0,0,0)" /><polygon
     style="fill:#454545"
     id="polygon169"
     points="50.17,1.854 52.028,-0.001 52.028,7.425 50.17,5.566 "
     transform="matrix(0,1,-1,0,72,0)" /><polygon
     style="fill:#454545"
     id="polygon171"
     points="55.74,-0.001 57.599,1.854 57.599,5.566 55.74,7.425 "
     transform="matrix(0,1,-1,0,72,0)" /><rect
     style="fill:#b68b2d"
     id="rect173"
     height="1.668"
     width="1.312"
     y="-69.125"
     x="53.229"
     transform="matrix(0,1,-1,0,0,0)" /><rect
     style="fill:#454545"
     id="rect175"
     height="7.427"
     width="3.7119999"
     y="-72.000999"
     x="59.229"
     transform="matrix(0,1,-1,0,0,0)" /><polygon
     style="fill:#454545"
     id="polygon177"
     points="57.371,1.854 59.229,-0.001 59.229,7.425 57.371,5.566 "
     transform="matrix(0,1,-1,0,72,0)" /><polygon
     style="fill:#454545"
     id="polygon179"
     points="62.939,-0.001 64.799,1.854 64.799,5.566 62.939,7.425 "
     transform="matrix(0,1,-1,0,72,0)" /><rect
     style="fill:#b68b2d"
     id="rect181"
     height="1.668"
     width="1.312"
     y="-69.125"
     x="60.43"
     transform="matrix(0,1,-1,0,0,0)" /><rect
     style="fill:#454545"
     id="rect183"
     height="7.427"
     width="3.7130001"
     y="-72.000999"
     x="66.43"
     transform="matrix(0,1,-1,0,0,0)" /><polygon
     style="fill:#454545"
     id="polygon185"
     points="64.57,1.854 66.43,-0.001 66.43,7.425 64.57,5.566 "
     transform="matrix(0,1,-1,0,72,0)" /><polygon
     style="fill:#454545"
     id="polygon187"
     points="70.141,-0.001 71.999,1.854 71.999,5.566 70.141,7.425 "
     transform="matrix(0,1,-1,0,72,0)" /><rect
     style="fill:#b68b2d"
     id="rect189"
     height="1.668"
     width="1.312"
     y="-69.125"
     x="67.628998"
     transform="matrix(0,1,-1,0,0,0)" /><rect
     style="fill:#454545"
     id="rect191"
     height="7.427"
     width="3.7130001"
     y="-72.000999"
     x="73.627998"
     transform="matrix(0,1,-1,0,0,0)" /><polygon
     style="fill:#454545"
     id="polygon193"
     points="71.771,1.854 73.628,-0.001 73.628,7.425 71.771,5.566 "
     transform="matrix(0,1,-1,0,72,0)" /><polygon
     style="fill:#454545"
     id="polygon195"
     points="77.34,-0.001 79.197,1.854 79.197,5.566 77.34,7.425 "
     transform="matrix(0,1,-1,0,72,0)" /><rect
     style="fill:#b68b2d"
     id="rect197"
     height="1.668"
     width="1.312"
     y="-69.125"
     x="74.828003"
     transform="matrix(0,1,-1,0,0,0)" /><rect
     style="fill:#454545"
     id="rect199"
     height="7.427"
     width="3.7130001"
     y="-72.000999"
     x="80.828003"
     transform="matrix(0,1,-1,0,0,0)" /><polygon
     style="fill:#454545"
     id="polygon201"
     points="78.971,1.854 80.828,-0.001 80.828,7.425 78.971,5.566 "
     transform="matrix(0,1,-1,0,72,0)" /><polygon
     style="fill:#454545"
     id="polygon203"
     points="84.54,-0.001 86.398,1.854 86.398,5.566 84.54,7.425 "
     transform="matrix(0,1,-1,0,72,0)" /><rect
     style="fill:#b68b2d"
     id="rect205"
     height="1.668"
     width="1.312"
     y="-69.125"
     x="82.027"
     transform="matrix(0,1,-1,0,0,0)" /><rect
     style="fill:#454545"
     id="rect207"
     height="7.427"
     width="3.714"
     y="-72.000999"
     x="88.027"
     transform="matrix(0,1,-1,0,0,0)" /><polygon
     style="fill:#454545"
     id="polygon209"
     points="86.171,1.854 88.027,-0.001 88.027,7.425 86.171,5.566 "
     transform="matrix(0,1,-1,0,72,0)" /><polygon
     style="fill:#454545"
     id="polygon211"
     points="91.74,-0.001 93.6,1.854 93.6,5.566 91.74,7.425 "
     transform="matrix(0,1,-1,0,72,0)" /><rect
     style="fill:#b68b2d"
     id="rect213"
     height="1.668"
     width="1.312"
     y="-69.125"
     x="89.228996"
     transform="matrix(0,1,-1,0,0,0)" /><rect
     style="fill:#454545"
     id="rect215"
     height="7.427"
     width="3.7130001"
     y="-72.000999"
     x="95.228996"
     transform="matrix(0,1,-1,0,0,0)" /><polygon
     style="fill:#454545"
     id="polygon217"
     points="93.37,1.854 95.229,-0.001 95.229,7.425 93.37,5.566 "
     transform="matrix(0,1,-1,0,72,0)" /><polygon
     style="fill:#454545"
     id="polygon219"
     points="98.939,-0.001 100.8,1.854 100.8,5.566 98.939,7.425 "
     transform="matrix(0,1,-1,0,72,0)" /><rect
     style="fill:#b68b2d"
     id="rect221"
     height="1.668"
     width="1.312"
     y="-69.125"
     x="96.43"
     transform="matrix(0,1,-1,0,0,0)" /><rect
     style="fill:#454545"
     id="rect223"
     height="7.427"
     width="3.7130001"
     y="-72.000999"
     x="102.43"
     transform="matrix(0,1,-1,0,0,0)" /><polygon
     style="fill:#454545"
     id="polygon225"
     points="100.57,1.854 102.43,-0.001 102.43,7.425 100.57,5.566 "
     transform="matrix(0,1,-1,0,72,0)" /><polygon
     style="fill:#454545"
     id="polygon227"
     points="106.141,-0.001 107.999,1.854 107.999,5.566 106.141,7.425 "
     transform="matrix(0,1,-1,0,72,0)" /><rect
     style="fill:#b68b2d"
     id="rect229"
     height="1.668"
     width="1.312"
     y="-69.125"
     x="103.628"
     transform="matrix(0,1,-1,0,0,0)" /><rect
     style="fill:#454545"
     id="rect231"
     height="7.427"
     width="3.7130001"
     y="-72.000999"
     x="109.628"
     transform="matrix(0,1,-1,0,0,0)" /><polygon
     style="fill:#454545"
     id="polygon233"
     points="107.771,1.854 109.628,-0.001 109.628,7.425 107.771,5.566 "
     transform="matrix(0,1,-1,0,72,0)" /><polygon
     style="fill:#454545"
     id="polygon235"
     points="113.341,-0.001 115.199,1.854 115.199,5.566 113.341,7.425 "
     transform="matrix(0,1,-1,0,72,0)" /><rect
     style="fill:#b68b2d"
     id="rect237"
     height="1.668"
     width="1.312"
     y="-69.125"
     x="110.829"
     transform="matrix(0,1,-1,0,0,0)" /><rect
     style="fill:#454545"
     id="rect239"
     height="7.427"
     width="3.7130001"
     y="-72.000999"
     x="116.829"
     transform="matrix(0,1,-1,0,0,0)" /><polygon
     style="fill:#454545"
     id="polygon241"
     points="114.971,1.854 116.829,-0.001 116.829,7.425 114.971,5.566 "
     transform="matrix(0,1,-1,0,72,0)" /><polygon
     style="fill:#454545"
     id="polygon243"
     points="120.54,-0.001 122.398,1.854 122.398,5.566 120.54,7.425 "
     transform="matrix(0,1,-1,0,72,0)" /><rect
     style="fill:#b68b2d"
     id="rect245"
     height="1.668"
     width="1.312"
     y="-69.125"
     x="118.027"
     transform="matrix(0,1,-1,0,0,0)" /><text
     style="font-style:normal;font-variant:normal;font-weight:bold;font-stretch:normal;font-size:5.18399954px;font-family:OCRA;-inkscape-font-specification:'OCRA Bold';fill:#ff7f2a;fill-opacity:1"
     id="text247"
     font-size="2.5"
     x="56.43132"
     y="19.839298">D0</text>
<text
     style="font-style:normal;font-variant:normal;font-weight:bold;font-stretch:normal;font-size:5.18399954px;font-family:OCRA;-inkscape-font-specification:'OCRA Bold';fill:#ff7f2a;fill-opacity:1"
     id="text249"
     font-size="2.5"
     x="56.501617"
     y="27.026802">D1</text>
<text
     style="font-style:normal;font-variant:normal;font-weight:bold;font-stretch:normal;font-size:5.18399954px;font-family:OCRA;-inkscape-font-specification:'OCRA Bold';fill:#ff7f2a;fill-opacity:1"
     id="text251"
     font-size="2.5"
     x="56.538345"
     y="34.245949">D2</text>
<text
     style="font-style:normal;font-variant:normal;font-weight:bold;font-stretch:normal;font-size:5.18399954px;font-family:OCRA;-inkscape-font-specification:'OCRA Bold';fill:#ff7f2a;fill-opacity:1"
     id="text253"
     font-size="2.5"
     x="56.46875"
     y="41.394218">D3</text>
<text
     style="font-style:normal;font-variant:normal;font-weight:bold;font-stretch:normal;font-size:5.18399954px;font-family:OCRA;-inkscape-font-specification:'OCRA Bold';fill:#ff7f2a;fill-opacity:1"
     id="text255"
     font-size="2.5"
     x="56.407959"
     y="48.581726">D4</text>
<text
     style="font-style:normal;font-variant:normal;font-weight:bold;font-stretch:normal;font-size:4.31999969px;font-family:OCRA;-inkscape-font-specification:'OCRA Bold';fill:#ff00ff"
     id="text257"
     font-size="2.5"
     x="55.94162"
     y="55.449654">3V3</text>
<text
     style="font-style:normal;font-variant:normal;font-weight:bold;font-stretch:normal;font-size:3.5999999px;font-family:OCRA;-inkscape-font-specification:'OCRA Bold';fill:#00ff00"
     id="text259"
     font-size="2.5"
     x="56.036369"
     y="62.37254">GND</text>
<text
     style="font-style:normal;font-variant:normal;font-weight:bold;font-stretch:normal;font-size:5.18399954px;font-family:OCRA;-inkscape-font-specification:'OCRA Bold';fill:#ff7f2a;fill-opacity:1"
     id="text261"
     font-size="2.5"
     x="56.469261"
     y="70.099937">D5</text>
<text
     style="font-style:normal;font-variant:normal;font-weight:bold;font-stretch:normal;font-size:5.18399954px;font-family:OCRA;-inkscape-font-specification:'OCRA Bold';fill:#ff7f2a;fill-opacity:1"
     id="text263"
     font-size="2.5"
     x="56.424454"
     y="77.319084">D6</text>
<text
     style="font-style:normal;font-variant:normal;font-weight:bold;font-stretch:normal;font-size:5.18399954px;font-family:OCRA;-inkscape-font-specification:'OCRA Bold';fill:#ff7f2a;fill-opacity:1"
     id="text265"
     font-size="2.5"
     x="56.481895"
     y="84.506584">D7</text>
<text
     style="font-style:normal;font-variant:normal;font-weight:bold;font-stretch:normal;font-size:5.18399954px;font-family:OCRA;-inkscape-font-specification:'OCRA Bold';fill:#ff7f2a;fill-opacity:1"
     id="text267"
     font-size="2.5"
     x="56.438377"
     y="91.689034">D8</text>
<text
     style="font-style:normal;font-variant:normal;font-weight:bold;font-stretch:normal;font-size:5.18399954px;font-family:OCRA;-inkscape-font-specification:'OCRA Bold';fill:#ffff00"
     id="text269"
     font-size="2.5"
     x="56.407227"
     y="98.996216">RX</text>
<text
     style="font-style:normal;font-variant:normal;font-weight:bold;font-stretch:normal;font-size:5.18399954px;font-family:OCRA;-inkscape-font-specification:'OCRA Bold';fill:#ffff00"
     id="text271"
     font-size="2.5"
     x="56.888893"
     y="106.05589">TX</text>
<text
     style="font-style:normal;font-variant:normal;font-weight:bold;font-stretch:normal;font-size:3.5999999px;font-family:OCRA;-inkscape-font-specification:'OCRA Bold';fill:#00ff00"
     id="text273"
     font-size="2.5"
     x="56.03437"
     y="113.14888">GND</text>
<text
     style="font-style:normal;font-variant:normal;font-weight:bold;font-stretch:normal;font-size:4.31999969px;font-family:OCRA;-inkscape-font-specification:'OCRA Bold';fill:#ff00ff"
     id="text275"
     font-size="2.5"
     x="55.94162"
     y="120.27958">3V3</text>
<text
     style="font-style:normal;font-variant:normal;font-weight:bold;font-stretch:normal;font-size:4.31999969px;font-family:OCRA;-inkscape-font-specification:'OCRA Bold';fill:#ff0000"
     id="text277"
     font-size="2.5"
     x="9.0959873"
     y="120.93279">Vin</text>
<text
     style="font-style:normal;font-variant:normal;font-weight:bold;font-stretch:normal;font-size:3.5999999px;font-family:OCRA;-inkscape-font-specification:'OCRA Bold';fill:#00ff00"
     id="text279"
     font-size="2.5"
     x="8.2442379"
     y="112.46072">GND</text>
<text
     style="font-style:normal;font-variant:normal;font-weight:bold;font-stretch:normal;font-size:3.5999999px;font-family:OCRA;-inkscape-font-specification:'OCRA Bold';fill:#ffffff"
     id="text281"
     font-size="2.5"
     x="8.6916142"
     y="105.62291">RST</text>
<text
     style="font-style:normal;font-variant:normal;font-weight:bold;font-stretch:normal;font-size:3.5999999px;font-family:OCRA;-inkscape-font-specification:'OCRA Bold';fill:#ffffff"
     id="text283"
     font-size="2.5"
     x="9.8804607"
     y="98.218666">EN</text>
<text
     style="font-style:normal;font-variant:normal;font-weight:bold;font-stretch:normal;font-size:4.31999969px;font-family:OCRA;-inkscape-font-specification:'OCRA Bold';fill:#ff00ff"
     id="text285"
     font-size="2.5"
     x="8.1495075"
     y="91.699875">3V3</text>
<text
     style="font-style:normal;font-variant:normal;font-weight:bold;font-stretch:normal;font-size:3.5999999px;font-family:OCRA;-inkscape-font-specification:'OCRA Bold';fill:#00ff00"
     id="text287"
     font-size="2.5"
     x="8.2442379"
     y="83.86692">GND</text>
<text
     style="font-style:normal;font-variant:normal;font-weight:bold;font-stretch:normal;font-size:3.5999999px;font-family:OCRA;-inkscape-font-specification:'OCRA Bold';fill:#ffffff"
     id="text289"
     font-size="2.5"
     x="8.7874165"
     y="77.095711">CLK</text>
<text
     style="font-style:normal;font-variant:normal;font-weight:bold;font-stretch:normal;font-size:3.5999999px;font-family:OCRA;-inkscape-font-specification:'OCRA Bold';fill:#ffffff"
     id="text291"
     font-size="2.5"
     x="8.6951313"
     y="69.883125">SD0</text>
<text
     style="font-style:normal;font-variant:normal;font-weight:bold;font-stretch:normal;font-size:3.5999999px;font-family:OCRA;-inkscape-font-specification:'OCRA Bold';fill:#ffffff"
     id="text293"
     font-size="2.5"
     x="8.1739254"
     y="62.370872">CMD</text>
<text
     style="font-style:normal;font-variant:normal;font-weight:bold;font-stretch:normal;font-size:3.5999999px;font-family:OCRA;-inkscape-font-specification:'OCRA Bold';fill:#ffffff"
     id="text295"
     font-size="2.5"
     x="8.7417126"
     y="55.616661">SD1</text>
<text
     style="font-style:normal;font-variant:normal;font-weight:bold;font-stretch:normal;font-size:3.5999999px;font-family:OCRA;-inkscape-font-specification:'OCRA Bold';fill:#ffffff"
     id="text297"
     font-size="2.5"
     x="8.7557735"
     y="48.478027">SD2</text>
<text
     style="font-style:normal;font-variant:normal;font-weight:bold;font-stretch:normal;font-size:3.5999999px;font-family:OCRA;-inkscape-font-specification:'OCRA Bold';fill:#ffffff"
     id="text299"
     font-size="2.5"
     x="8.7197399"
     y="41.304501">SD3</text>
<text
     style="font-style:normal;font-variant:normal;font-weight:bold;font-stretch:normal;font-size:3.5999999px;font-family:OCRA;-inkscape-font-specification:'OCRA Bold';fill:#ffffff"
     id="text301"
     font-size="2.5"
     x="8.5799885"
     y="34.059055">RSV</text>
<text
     style="font-style:normal;font-variant:normal;font-weight:bold;font-stretch:normal;font-size:3.5999999px;font-family:OCRA;-inkscape-font-specification:'OCRA Bold';fill:#ffffff"
     id="text303"
     font-size="2.5"
     x="8.5799885"
     y="26.910658">RSV</text>
<text
     style="font-style:normal;font-variant:normal;font-weight:bold;font-stretch:normal;font-size:3.5999999px;font-family:OCRA;-inkscape-font-specification:'OCRA Bold';fill:#ffffff"
     id="text305"
     font-size="2.5"
     x="10.097013"
     y="19.731625">A0</text>
<rect
     style="fill:#bec0c2"
     id="rect307"
     height="21.833"
     width="17.333"
     y="-46.901001"
     x="124.133"
     transform="matrix(0,1,-1,0,0,0)" /><rect
     style="fill:#bec0c2"
     id="rect309"
     height="8"
     width="7.8330002"
     y="-58.401001"
     x="126.83978"
     transform="matrix(0,1,-1,0,0,0)" /><circle
     style="fill:#231f20"
     id="circle311"
     r="2.75"
     cy="-54.317001"
     cx="130.7608"
     transform="matrix(0,1,-1,0,0,0)" /><rect
     style="fill:#bec0c2"
     id="rect313"
     height="8"
     width="7.8330002"
     y="-21.601999"
     x="126.83978"
     transform="matrix(0,1,-1,0,0,0)" /><circle
     style="fill:#231f20"
     id="circle315"
     r="2.75"
     cy="-17.518"
     cx="130.7608"
     transform="matrix(0,1,-1,0,0,0)" /><text
     style="font-size:2.5px;font-family:OCRA;fill:#ffffff"
     id="text317"
     font-size="2.5"
     x="50.236298"
     y="125.67658">FLASH</text>
<text
     style="font-style:normal;font-variant:normal;font-weight:bold;font-stretch:normal;font-size:2.5px;font-family:OCRA;-inkscape-font-specification:'OCRA Bold';fill:#ffffff"
     id="text319"
     font-size="2.5"
     x="15.4023"
     y="125.67467">RST</text>
<rect
     style="fill:#b68b2d"
     id="rect323"
     height="11.834"
     width="1.312"
     y="-55.233002"
     x="2.362"
     transform="matrix(0,1,-1,0,0,0)" /><rect
     style="fill:#b68b2d"
     id="rect325"
     height="1.168"
     width="11.099"
     y="-44.566002"
     x="2.467999"
     transform="matrix(0,1,-1,0,0,0)" /><rect
     style="fill:#b68b2d"
     id="rect327"
     height="1.168"
     width="11.099"
     y="-40.762001"
     x="2.467999"
     transform="matrix(0,1,-1,0,0,0)" /><rect
     style="fill:#b68b2d"
     id="rect329"
     height="1.168"
     width="11.099"
     y="-36.957001"
     x="2.467999"
     transform="matrix(0,1,-1,0,0,0)" /><rect
     style="fill:#b68b2d"
     id="rect331"
     height="1.168"
     width="11.099"
     y="-33.152"
     x="2.467999"
     transform="matrix(0,1,-1,0,0,0)" /><rect
     style="fill:#b68b2d"
     id="rect333"
     height="1.168"
     width="11.099"
     y="-29.345999"
     x="2.467999"
     transform="matrix(0,1,-1,0,0,0)" /><rect
     style="fill:#b68b2d"
     id="rect335"
     height="1.168"
     width="11.099"
     y="-25.542997"
     x="2.467999"
     transform="matrix(0,1,-1,0,0,0)" /><rect
     style="fill:#b68b2d"
     id="rect337"
     height="4.973"
     width="1.312"
     y="-44.566002"
     x="12.255"
     transform="matrix(0,1,-1,0,0,0)" /><rect
     style="fill:#b68b2d"
     id="rect339"
     height="4.1680002"
     width="1.312"
     y="-39.957001"
     x="2.467999"
     transform="matrix(0,1,-1,0,0,0)" /><rect
     style="fill:#b68b2d"
     id="rect341"
     height="4.973"
     width="1.312"
     y="-36.957001"
     x="12.255"
     transform="matrix(0,1,-1,0,0,0)" /><rect
     style="fill:#b68b2d"
     id="rect343"
     height="4.9759998"
     width="1.312"
     y="-33.152"
     x="2.467999"
     transform="matrix(0,1,-1,0,0,0)" /><rect
     style="fill:#b68b2d"
     id="rect345"
     height="4.973"
     width="1.312"
     y="-29.345999"
     x="12.255"
     transform="matrix(0,1,-1,0,0,0)" /><rect
     style="fill:#b68b2d"
     id="rect347"
     height="5.9920001"
     width="1.312"
     y="-25.589998"
     x="2.5989995"
     transform="matrix(0,1,-1,0,0,0)" /><rect
     style="fill:#b68b2d"
     id="rect349"
     height="1.168"
     width="18.582001"
     y="-20.765997"
     x="3.0180001"
     transform="matrix(0,1,-1,0,0,0)" /><rect
     style="fill:#b68b2d"
     id="rect351"
     height="24.312"
     width="1.312"
     y="-43.982002"
     x="16.495001"
     transform="matrix(0,1,-1,0,0,0)" /><text
     id="text357"
     x="21.119057"
     y="-27.402903"
     style="font-size:50.23015594px"
     transform="matrix(0,1,-1,0,0,0)"><tspan
       x="21.119057"
       y="-27.402903"
       font-size="7"
       id="tspan359"
       style="font-size:29.3009243px;font-family:OCRA;fill:#ffffff">Cockle</tspan></text>
<text
     font-size="4"
     id="text363"
     x="27.380079"
     y="134.88091"
     style="font-size:2.57755566px;line-height:125%;font-family:OCRA;fill:#000000"
     sodipodi:linespacing="125%">@ShrimpingIt</text>
<text
     font-size="4"
     x="27.380079"
     y="134.88091"
     style="font-size:2.57755566px;font-family:OCRA;fill:#000000"
     id="text4675"
     dy="3">blog.squix.ch</text>
</svg>