<?xml version="1.0" encoding="UTF-8" standalone="no"?>
<!-- Created with Inkscape (http://www.inkscape.org/) -->

<svg
   xmlns:dc="http://purl.org/dc/elements/1.1/"
   xmlns:cc="http://creativecommons.org/ns#"
   xmlns:rdf="http://www.w3.org/1999/02/22-rdf-syntax-ns#"
   xmlns:svg="http://www.w3.org/2000/svg"
   xmlns="http://www.w3.org/2000/svg"
   xmlns:xlink="http://www.w3.org/1999/xlink"
   xmlns:sodipodi="http://sodipodi.sourceforge.net/DTD/sodipodi-0.dtd"
   xmlns:inkscape="http://www.inkscape.org/namespaces/inkscape"
   width="793.70081"
   height="1122.5197"
   id="svg14479"
   version="1.1"
   inkscape:version="0.92.1 unknown"
   sodipodi:docname="logo_stencil.svg">
  <defs
     id="defs14481">
    <path
       inkscape:connector-curvature="0"
       id="path4162"
       d="M 80.332985,535.83518 A 79.6851,79.6851 0 0 0 193.73799,442.5174"
       style="color:#000000;display:inline;overflow:visible;visibility:visible;fill:none;stroke:none;stroke-width:1.29128397;marker:none;enable-background:accumulate" />
  </defs>
  <sodipodi:namedview
     id="base"
     pagecolor="#ffffff"
     bordercolor="#666666"
     borderopacity="1.0"
     inkscape:pageopacity="0.0"
     inkscape:pageshadow="2"
     inkscape:zoom="0.68800077"
     inkscape:cx="301.33233"
     inkscape:cy="883.0238"
     inkscape:document-units="px"
     inkscape:current-layer="layer1"
     showgrid="false"
     inkscape:window-width="1920"
     inkscape:window-height="1053"
     inkscape:window-x="0"
     inkscape:window-y="0"
     inkscape:window-maximized="1" />
  <metadata
     id="metadata14484">
    <rdf:RDF>
      <cc:Work
         rdf:about="">
        <dc:format>image/svg+xml</dc:format>
        <dc:type
           rdf:resource="http://purl.org/dc/dcmitype/StillImage" />
        <dc:title />
      </cc:Work>
    </rdf:RDF>
  </metadata>
  <g
     inkscape:label="Layer 1"
     inkscape:groupmode="layer"
     id="layer1">
    <path
       style="fill:#f68712;fill-opacity:1;fill-rule:nonzero;stroke:none;stroke-width:1.06666672"
       d="M 519.73333,125.8 513.8,126.76667 c 4.01011,24.7352 17.49694,43.20389 33.9,59.4 16.40306,16.1961 35.76889,30.3138 52.23333,46.53333 12.34854,12.1621 24.42934,25.99759 31.7,40.8 7.17311,14.60381 9.70554,29.95226 3.63334,46.26667 -10.60965,10.59173 -24.80336,20.28841 -39.73334,25.33333 -3.1476,1.06359 -6.3275,1.905 -9.5,2.53333 -5.4772,-2.97436 -10.28276,-7.31096 -14.2,-12.4 -7.22279,-9.38476 -13.44135,-19.39334 -19.63333,-29.3 -3.13061,1.18337 -6.6203,1.54237 -10.13333,0.86667 -3.88813,-0.74717 -7.25697,-2.65401 -9.83334,-5.3 l 3.4,-2.53333 c 2.07196,2.08773 4.76475,3.6039 7.86667,4.2 8.17643,1.57268 16.09399,-3.78279 17.66667,-11.96667 1.59505,-8.17643 -3.75297,-16.09398 -11.96667,-17.66667 -1.02205,-0.19658 -2.06444,-0.27867 -3.06667,-0.26666 -7.01558,0.0841 -13.25723,5.07243 -14.63333,12.23333 -0.57552,2.99216 -0.21818,5.9421 0.86667,8.56667 L 528.83333,296.7 c -1.65961,-3.33766 -2.3469,-7.18065 -1.76666,-11.1 -4.21431,3.70332 -10.02676,5.50275 -15.93334,4.36667 -3.1141,-0.59842 -5.88579,-1.96155 -8.2,-3.83334 l 3.7,-2.73333 c 1.56112,1.05852 3.36345,1.82145 5.33334,2.2 7.77091,1.49469 15.30532,-3.58867 16.8,-11.36667 1.523,-7.77799 -3.56033,-15.30532 -11.36667,-16.8 -0.97136,-0.18683 -1.94748,-0.27807 -2.9,-0.26666 -6.66764,0.0798 -12.59215,4.83378 -13.9,11.63333 -0.7112,3.70093 0.0843,7.33546 1.93333,10.3 l -3.56666,2.66667 c -2.57557,-3.9434 -3.68734,-8.83558 -2.73334,-13.8 1.1487,-5.9776 5.0527,-10.74517 10.13334,-13.26667 -14.19833,-2.45557 -29.44821,-5.33322 -44.36667,-5.3 -10.15085,0.0226 -20.13683,1.40944 -29.46667,5.23333 -8.5167,25.84836 -9.1538,55.26074 -2.13333,82.2 0.9354,-0.48214 1.93935,-0.72933 3.03333,-0.7 14.80066,0.38497 26.10196,0.2495 36.03334,1.66667 2.43594,10.13028 5.89127,17.30395 10.26666,22.63333 5.09366,6.20426 11.35805,9.74318 18,12.66667 13.28391,5.84698 28.31633,9.48674 44.56667,27.36667 l 4.36667,-3.93334 c -17.21618,-18.94262 -33.98842,-23.26362 -46.56667,-28.8 -6.28912,-2.76819 -11.49311,-5.78738 -15.8,-11.03333 -3.35553,-4.08716 -6.22063,-9.6583 -8.43333,-17.73333 4.13223,0.96394 8.07832,2.35873 12.03333,4.26666 l -1,0.4 c 1.5202,3.74621 5.04283,6.32829 9.43333,9.2 4.39051,2.87172 9.7894,5.7787 15.16667,8.63334 5.37727,2.85463 10.75071,5.65876 15.03333,8.26666 4.28263,2.60791 7.42096,5.25287 8.16667,6.5 11.40243,19.14462 28.67706,25.59154 46.86667,29.76667 18.18961,4.17513 37.53752,6.41692 55.06666,16.83333 l 3,-5.03333 C 620.80148,406.60947 600.62653,404.3355 582.9,400.26667 565.17347,396.19783 550.1511,390.66875 539.76667,373.23333 537.78999,369.92752 534.14113,367.46532 529.6,364.7 c -4.54113,-2.76532 -10.01155,-5.59046 -15.36667,-8.43333 -3.24019,-1.72012 -6.40982,-3.42358 -9.33333,-5.1 -5.40306,-8.60885 -6.19617,-11.26969 -4.26667,-23.96667 12.46193,12.71227 6.89375,31.88449 42.43334,37.26667 14.09646,2.14584 24.27002,1.43215 39.46666,-3.33334 l 3.7,-2.36666 c 9.39553,3.60786 19.63415,4.13381 29.43334,1.86666 11.60102,-2.67685 24.88762,-5.78276 36.36666,-11.66666 11.47904,-5.88391 21.26862,-14.80609 24.83334,-28.6 2.60819,-10.1342 -0.0659,-19.45179 -4.43334,-27.8 C 668.06589,284.21845 662.03454,276.60315 657.3,269.3 630.57326,228.1639 595.0091,192.6288 584.43333,146 l -5.86666,1.33333 c 11.06846,48.80111 47.41947,84.83535 73.66666,125.23334 4.95894,7.6493 10.8714,15.16318 14.86667,22.8 3.99527,7.63682 6.07983,15.15976 3.93333,23.5 C 667.9703,330.71925 659.8554,338.18953 649.3,343.6 c -10.5554,5.41047 -23.42794,8.4965 -35,11.16667 -8.62236,1.99488 -17.51456,1.54263 -25.66667,-1.53334 2.97279,-0.64359 5.92982,-1.45222 8.83334,-2.43333 16.2408,-5.48785 31.3025,-15.79142 42.56666,-27.16667 l 0.43334,-0.46666 L 640.7,322.6 c 7.05375,-18.27257 4.14251,-35.93577 -3.63333,-51.76667 -7.77584,-15.8309 -20.33047,-30.05356 -32.9,-42.43333 -16.8984,-16.64703 -36.28012,-30.74806 -52.23334,-46.5 -15.95321,-15.75194 -28.45372,-32.99217 -32.2,-56.1 z m -118,113.93333 c -0.76149,-0.0156 -1.53042,6.3e-4 -2.3,0.0333 -27.20353,1.19257 -55.12457,4.38954 -81.5,11.4 2.08348,6.74832 1.56274,13.33252 0.9,19.56667 -0.71024,6.68092 -1.56972,13.01254 -0.36666,19.13333 0.002,0.0108 -0.002,0.0225 0,0.0333 4.36725,21.78606 9.46977,42.9631 15.53333,63.9 0.37689,0.70388 0.77156,1.40626 1.23333,2.1 2.47205,3.70025 6.74736,4.32927 9.9,5.03334 0.49482,0.11391 1.00343,0.19186 1.5,0.3 -2.01818,1.73858 -4.15879,3.66225 -6.6,5.86666 -6.82198,6.16028 -14.95505,13.81456 -23.06666,21.26667 -8.11162,7.45211 -16.19629,14.69401 -22.9,19.96667 -3.35185,2.63633 -6.3677,4.79915 -8.76667,6.2 -2.39897,1.40084 -4.32145,1.84748 -4.53333,1.83333 L 280.4,421.83323 c 2.63922,0.17628 4.89932,-0.95071 7.66667,-2.56667 2.76735,-1.61596 5.90075,-3.9073 9.36666,-6.63333 6.77842,-5.33143 14.73333,-12.42308 22.7,-19.73334 C 300.00915,416.75198 282.83284,441.66507 273,466.06656 l 5.1,2.06667 c 9.02294,-22.39163 24.71411,-45.66665 43.33333,-68.2 -5.22687,9.66751 -10.22338,19.97058 -14.83333,30.46666 -13.88205,31.6071 -24.18537,64.51689 -26.5,85.43334 l 5.83333,0.66666 c 2.17573,-19.66111 12.36114,-52.52814 26.06667,-83.73333 10.02454,-22.82421 22.01523,-44.83984 33.86667,-60.4 3.04286,-3.2206 6.10683,-6.4155 9.2,-9.56667 0.0435,0.006 0.0898,-0.006 0.13333,0 -8.85425,18.10696 -18.88753,44.03819 -26.8,70.36667 -9.27388,30.85851 -15.6752,61.95309 -13.16667,82.06667 l 5.83334,-0.6999 c -2.25563,-18.0858 3.79797,-49.15817 12.96666,-79.66666 7.11092,-23.66129 16.05207,-47.122 24.1,-64.46667 1.54369,2.21424 3.64502,4.25436 5.93334,6.36667 3.53983,3.26755 7.61719,6.57816 10.9,9.8 3.2828,3.22183 5.63657,6.4145 6.16666,8.6 0.26505,1.09274 0.21597,1.8749 -0.23333,2.8 -0.4493,0.9251 -1.41613,2.06366 -3.33333,3.3 -9.74045,6.28271 -13.04168,5.62615 -17.43334,6.63333 -2.19583,0.50358 -4.63074,1.62996 -7,3.96667 -2.36926,2.3367 -4.90089,5.83815 -8.4,11.56666 l 5.03334,3.06667 c 3.38899,-5.54825 5.75942,-8.71667 7.5,-10.43333 1.74057,-1.71666 2.64092,-2.05009 4.16666,-2.4 3.05148,-0.69982 8.81035,-0.70073 19.3,-7.46667 2.53796,-1.63664 4.37673,-3.49114 5.43334,-5.66667 1.0566,-2.17553 1.22506,-4.60188 0.7,-6.76666 -1.05014,-4.32955 -4.23774,-7.9039 -7.8,-11.4 -3.56226,-3.49611 -7.65565,-6.84622 -11,-9.93334 -3.34436,-3.08711 -5.78269,-6.05327 -6.26667,-7.6 L 360.6,365.2 c 0.27413,-0.56026 0.56221,-1.12324 0.83333,-1.66667 18.7538,1.69903 37.93392,-1.23511 54.76667,-11.46666 2.40096,-1.4602 4.33379,-3.78126 6.13333,-6.2 14.81238,24.60687 45.45199,47.28881 66.8,62.4 l 0.8,0.53333 H 490.9 c 31.79886,-0.72463 63.43502,6.22234 94.53333,13.7 5.65016,1.35939 9.03858,5.98693 12.7,12 3.66142,6.01307 7.3225,13.19161 14.2,17.66667 l 3.2,-4.93334 c -5.19328,-3.37916 -8.57088,-9.56626 -12.36666,-15.8 -3.79579,-6.23374 -8.2954,-12.72478 -16.36667,-14.66666 -30.8546,-7.41906 -62.63919,-14.4475 -95.03333,-13.86667 -21.82706,-15.48613 -52.54941,-38.98837 -65.6,-62.16667 0.0593,-0.0739 0.10719,-0.16048 0.16666,-0.23333 l -0.26666,0.0667 c -0.56178,-1.0043 -1.10708,-1.99762 -1.6,-3 l -0.83334,0.4 c -7.29542,-28.46817 -6.52129,-59.41324 2.8,-86.73334 -6.28298,-7.30423 -15.12897,-11.30486 -24.7,-11.5 z m -89.9,13.13334 c -37.99927,11.07529 -72.32133,30.53247 -95.9,64.06666 -0.2272,0.32136 -0.42703,0.66127 -0.6,1 22.30693,28.86277 48.53806,55.10354 81.63334,68.73334 5.05954,-4.30436 10.64148,-8.19439 16.7,-11.56667 5.31959,-2.9649 11.72216,-5.69538 14.23333,-11.5 0.49372,-1.14399 0.93951,-2.29327 1.33333,-3.46667 -6.71338,-22.62836 -12.28396,-45.46971 -17,-69 -1.47852,-7.47577 -0.39466,-14.53221 0.3,-21.06666 0.65246,-6.13746 1.0022,-11.78615 -0.7,-17.2 z m -96.93333,75.9 c 0.4744,3.27864 0.82124,6.32128 -0.76667,8.33333 -9.90384,12.64969 -22.01574,24.48134 -25.83333,40.03333 -3.92903,15.91049 -4.94359,31.97792 -3.93333,48.03334 19.94446,17.85526 52.58795,27.50341 79.93333,23.26666 2.22042,-21.68686 11.71753,-41.30129 27,-56.53333 -30.82436,-13.50746 -55.46519,-37.15136 -76.4,-63.13333 z m -29.56667,107.06666 c 1.18334,10.10587 3.07973,20.20334 5.53334,30.23334 3.19498,13.07067 7.98197,25.34738 13.6,37.23333 9.05951,3.67972 20.92568,5.27189 32.23333,4.56667 10.76278,-0.67126 20.99684,-3.47847 27.86667,-7.66667 -1.78831,-14.64736 -1.68246,-29.24273 -0.83334,-44 -26.85766,3.71223 -57.01146,-4.27135 -78.4,-20.36667 z m 80.43334,73 c -8.07547,4.19332 -18.15469,6.45064 -28.56667,7.1 -9.36215,0.5839 -18.98843,-0.18198 -27.7,-2.46666 7.41072,14.33065 15.76529,28.2279 23.7,42.33333 8.97198,0.0728 18.37092,-0.57941 26.06667,-2.2 4.8003,-1.01086 8.90833,-2.43547 11.73333,-4.03333 2.825,-1.59787 4.13828,-3.20485 4.53333,-4.63334 l 1.06667,0.3 c -1.31446,-2.42241 -2.6072,-4.86576 -3.83333,-7.36666 -4.50379,-9.17124 -5.58276,-19.08173 -7,-29.03334 z m 15.16666,43.9 c -1.55585,1.77835 -3.49884,3.25937 -5.63333,4.46667 -4.02515,2.27668 -8.86873,3.80364 -14.23333,4.93333 -7.26626,1.53014 -15.46471,2.25656 -23.53334,2.4 -2.63924,46.0813 -39.28161,73.8792 -65.23333,84 17.8042,5.21496 31.36351,5.73629 42.56667,4.06667 5.79339,-7.75853 13.46933,-20.02915 20,-32.53333 4.53135,-8.67612 8.59523,-17.5161 11.3,-25.1 2.70476,-7.58391 3.89272,-14.08145 3.36666,-17.06667 l 5.8,-1.03333 c 0.94074,5.33839 -0.79068,12.09616 -3.63333,20.06666 -2.84265,7.97051 -6.97725,16.98221 -11.6,25.83334 -5.3718,10.2853 -11.24924,20.22687 -16.6,28.03333 4.59686,-1.22235 8.80577,-2.75035 12.8,-4.36667 6.47539,-2.62326 13.31515,-5.76522 19.16667,-11.4 6.49253,-9.99475 10.84917,-24.42393 10.96666,-46.7 l 4,0.0333 3.73334,-1.03333 c 4.33795,15.9962 9.86453,25.72949 22.3,32.56667 0.0682,-0.1446 0.13135,-0.28889 0.2,-0.43334 26.4024,10.29498 52.42355,-3.6063 69.13333,-24.26666 -20.5352,4.00534 -40.90756,-2.69993 -57.5,-13.3 -11.4994,-7.32941 -20.18706,-17.5391 -27.36667,-29.16667 z m -7.8,53.7 c -1.84001,13.81735 -5.72382,24.43435 -10.93333,32.63334 7.3673,5.87337 13.22967,11.1498 22.06667,16.93333 2.21726,-9.96531 5.19155,-19.62821 9.06666,-29 -9.1869,-5.12501 -15.55471,-11.9195 -20.2,-20.56667 z"
       id="path10810"
       inkscape:connector-curvature="0" />
    <g
       id="g1447"
       transform="translate(638.08068,47.965063)">
      <g
         transform="matrix(2.0039137,0,0,2.0038913,-579.64159,-13.79883)"
         id="g4874"
         style="font-style:normal;font-variant:normal;font-weight:normal;font-stretch:normal;font-size:53.17129898px;line-height:125%;font-family:'Ubuntu Condensed';-inkscape-font-specification:'Ubuntu Condensed,';text-align:center;letter-spacing:0px;word-spacing:0px;writing-mode:lr-tb;text-anchor:middle;display:inline;fill:#f68712;fill-opacity:1;stroke:none;stroke-width:0.6166997">
        <path
           inkscape:connector-curvature="0"
           id="path4876"
           style="font-style:normal;font-variant:normal;font-weight:normal;font-stretch:normal;font-size:53.17129898px;line-height:125%;font-family:'Ubuntu Condensed';-inkscape-font-specification:'Ubuntu Condensed,';text-align:center;writing-mode:lr-tb;text-anchor:middle;fill:#f68712;fill-opacity:1;stroke:none;stroke-width:0.6166997"
           d="m 28.028445,235.91562 1.828148,4.24934 q -4.379413,3.67849 -10.335997,7.86186 -5.977597,4.13453 -13.016106,8.49395 l -1.7861219,-4.15165 q 2.0161935,-1.09894 4.6809783,-2.70845 2.6159416,-1.5885 5.4062426,-3.30989 2.720444,-1.74922 5.294359,-3.4354 2.525073,-1.66517 4.289672,-2.94528 -2.142837,0.40094 -5.206872,1.08243 -3.085049,0.63265 -6.295613,1.37719 -3.231578,0.69569 -6.2257574,1.40501 -3.0430223,0.73033 -5.0739761,1.25679 l -1.70206904,-3.95628 q 1.82082174,-1.01488 4.43676364,-2.60338 2.5949286,-1.63734 5.4340719,-3.37974 2.769287,-1.77024 5.392046,-3.47743 2.622758,-1.7072 4.40837,-2.93847 -2.142836,0.40094 -5.137016,1.11027 -2.994179,0.70932 -6.1138743,1.53052 -3.1407082,0.77237 -6.0928612,1.57938 -3.00099595,0.82802 -5.185295,1.53621 l -1.7230823,-4.00512 q 8.0051159,-2.11264 15.1384388,-3.56081 7.11231,-1.49701 12.794542,-2.14724 l 1.765109,4.10281 q -1.346026,1.04215 -3.480355,2.53922 -2.204185,1.46923 -4.680415,3.11338 -2.497242,1.59532 -5.015498,3.14179 -2.5670992,1.56748 -4.6877952,2.82714 2.3728543,-0.67355 5.3181912,-1.36186 2.896493,-0.66729 5.814,-1.28575 2.917507,-0.61845 5.541956,-1.11082 2.554593,-0.52021 4.215816,-0.82972 z" />
        <path
           inkscape:connector-curvature="0"
           id="path4878"
           style="font-style:normal;font-variant:normal;font-weight:normal;font-stretch:normal;font-size:53.17129898px;line-height:125%;font-family:'Ubuntu Condensed';-inkscape-font-specification:'Ubuntu Condensed,';text-align:center;writing-mode:lr-tb;text-anchor:middle;fill:#f68712;fill-opacity:1;stroke:none;stroke-width:0.6166997"
           d="m 17.915085,205.86679 0.827166,4.55135 q -5.09364,2.60103 -11.8375491,5.33986 -6.75341639,2.68651 -14.5911504,5.35392 l -0.8081511,-4.44672 q 2.2114865,-0.61809 5.1696576,-1.58804 2.9058568,-0.96046 6.0114633,-2.01125 3.0437846,-1.09361 5.930626,-2.15869 2.8345267,-1.05557 4.8415327,-1.9067 -2.178143,-0.0905 -5.3169601,-0.11454 -3.1483244,-0.0763 -6.4440841,-0.0718 -3.3052674,-0.0478 -6.3822621,-0.029 -3.129309,0.0283 -5.2266147,0.0852 l -0.77012,-4.23746 q 2.0022286,-0.58006 4.9080854,-1.54051 2.8963492,-1.01276 6.05427005,-2.07307 3.09609885,-1.10311 6.03525465,-2.1777 2.9391559,-1.07458 4.9556689,-1.8734 -2.1781433,-0.0905 -5.2551379,-0.0717 -3.0769947,0.0188 -6.30142476,0.11842 -3.23393774,0.0473 -6.29191704,0.17074 -3.1102937,0.13293 -5.3978413,0.3325 l -0.779628,-4.28978 q 8.2750861,-0.26095 15.5514237,-0.0702 7.2668303,0.13846 12.9499453,0.78091 l 0.798644,4.39441 q -1.545684,0.71325 -3.961696,1.69276 -2.477834,0.93671 -5.2600471,1.98277 -2.7917204,0.99375 -5.5929485,1.93519 -2.8535425,0.95094 -5.2029567,1.70218 2.4635062,-0.12346 5.4881865,-0.13275 2.9723659,2.2e-4 5.9542396,0.0528 2.9818732,0.0525 5.6498612,0.16212 2.606165,0.0667 4.294464,0.13818 z" />
        <path
           inkscape:connector-curvature="0"
           id="path4880"
           style="font-style:normal;font-variant:normal;font-weight:normal;font-stretch:normal;font-size:53.17129898px;line-height:125%;font-family:'Ubuntu Condensed';-inkscape-font-specification:'Ubuntu Condensed,';text-align:center;writing-mode:lr-tb;text-anchor:middle;fill:#f68712;fill-opacity:1;stroke:none;stroke-width:0.6166997"
           d="m 14.859086,174.31441 -0.17225,4.62269 q -5.5342216,1.44324 -12.7096712,2.6657 -7.1734697,1.16933 -15.4017088,2.08652 l 0.16829,-4.51643 q 2.2927,-0.1274 5.3903358,-0.43764 3.0445012,-0.31223 6.3035201,-0.66966 3.2078643,-0.41256 6.2563253,-0.83105 2.9953266,-0.42047 5.1385226,-0.81948 -2.1075581,-0.55741 -5.1675761,-1.25672 -3.058038,-0.75244 -6.2774592,-1.4577 -3.2174414,-0.75838 -6.2263048,-1.40258 -3.0619977,-0.64618 -5.1223607,-1.0422 l 0.16037,-4.30389 q 2.080162,-0.13532 5.1246634,-0.44754 3.0464811,-0.36536 6.3586344,-0.72082 3.2609987,-0.41057 6.3625942,-0.82708 3.1015954,-0.41651 5.242811,-0.76239 -2.1075576,-0.5574 -5.116421,-1.2016 -3.0088634,-0.6442 -6.1791099,-1.2412 -3.1682667,-0.65014 -6.1810899,-1.18807 -3.0659572,-0.53991 -5.3428182,-0.83758 l 0.16235,-4.35702 q 8.1371643,1.52699 15.2017406,3.28006 7.0665561,1.69993 12.4780254,3.55103 l -0.16631,4.46329 q -1.663006,0.3637 -4.233257,0.80001 -2.6214061,0.38119 -5.5635983,0.80365 -2.9402123,0.36931 -5.87844469,0.68549 -2.99136681,0.31421 -5.44742971,0.54194 2.4323043,0.40988 5.38803327,1.0521 2.90259453,0.64023 5.80320923,1.33361 2.9006147,0.69337 5.4824232,1.37486 2.530653,0.62638 4.163961,1.0597 z" />
        <path
           inkscape:connector-curvature="0"
           id="path4882"
           style="font-style:normal;font-variant:normal;font-weight:normal;font-stretch:normal;font-size:53.17129898px;line-height:125%;font-family:'Ubuntu Condensed';-inkscape-font-specification:'Ubuntu Condensed,';text-align:center;writing-mode:lr-tb;text-anchor:middle;fill:#f68712;fill-opacity:1;stroke:none;stroke-width:0.6166997"
           d="m 15.440174,147.09604 q 1.202272,0.22389 1.977703,1.28773 0.785165,1.01158 0.522347,2.42294 -0.262818,1.41137 -1.35947,2.07252 -1.096653,0.66115 -2.298925,0.43727 -1.254546,-0.23362 -2.03971,-1.24519 -0.785165,-1.01158 -0.522347,-2.42294 0.262817,-1.41137 1.35947,-2.07252 1.106387,-0.71342 2.360932,-0.47981 z" />
        <path
           inkscape:connector-curvature="0"
           id="path4884"
           style="font-style:normal;font-variant:normal;font-weight:normal;font-stretch:normal;font-size:53.17129898px;line-height:125%;font-family:'Ubuntu Condensed';-inkscape-font-specification:'Ubuntu Condensed,';text-align:center;writing-mode:lr-tb;text-anchor:middle;fill:#f68712;fill-opacity:1;stroke:none;stroke-width:0.6166997"
           d="m 17.449669,135.92057 q 0.581478,-1.93503 -0.197141,-3.22388 -0.81424,-1.35509 -2.596504,-1.89066 -1.12028,-0.33664 -2.006525,-0.1588 -0.937166,0.16254 -1.747154,0.6409 -0.809989,0.47836 -1.528421,1.20631 -0.7693535,0.71265 -1.5896288,1.41 -0.7693534,0.71265 -1.6761704,1.32848 -0.9577387,0.60052 -2.0223369,1.00236 -1.1002178,0.33563 -2.3429149,0.40636 -1.27831674,0.005 -2.805972,-0.45456 -3.3099197,-0.99463 -4.7347108,-3.64359 -1.4094891,-2.69988 -0.3536469,-6.21348 0.4437598,-1.47674 1.2489882,-2.67829 0.7543065,-1.21685 1.4727381,-1.9448 l 3.22286791,2.02335 q -0.78465554,0.76358 -1.31470191,1.60366 -0.5300463,0.84008 -0.8513896,1.90944 -0.489666,1.6295 0.1871098,2.88775 0.625854,1.24296 2.40811844,1.77853 1.01843686,0.30604 1.88937886,0.17912 0.8200202,-0.14223 1.599405,-0.51874 0.743765,-0.44274 1.4672123,-1.00263 0.7387494,-0.6108 1.4418789,-1.28783 0.8508795,-0.7992 1.7883005,-1.51686 0.9527231,-0.76859 2.0835452,-1.20606 1.095202,-0.50369 2.455045,-0.59474 1.308921,-0.10635 2.989342,0.39862 3.513607,1.05584 5.024939,3.78632 1.526635,2.67956 0.333074,6.65147 -0.612082,2.03687 -1.661888,3.49805 -1.049807,1.46117 -1.752936,2.1382 l -3.340014,-2.00304 q 0.636906,-0.64141 1.528676,-1.76143 0.907072,-1.17095 1.381436,-2.74953 z" />
        <path
           inkscape:connector-curvature="0"
           id="path4886"
           style="font-style:normal;font-variant:normal;font-weight:normal;font-stretch:normal;font-size:53.17129898px;line-height:125%;font-family:'Ubuntu Condensed';-inkscape-font-specification:'Ubuntu Condensed,';text-align:center;writing-mode:lr-tb;text-anchor:middle;fill:#f68712;fill-opacity:1;stroke:none;stroke-width:0.6166997"
           d="m 25.012213,123.25218 -36.489567,-17.48699 1.256949,-4.46834 12.1791717,5.83665 q 0.1489034,-1.04891 0.4626427,-2.19572 0.3367182,-1.19475 0.8652344,-2.29759 0.7583058,-1.58233 1.9521403,-2.720098 1.145885,-1.160746 2.8271806,-1.593211 1.7042747,-0.480415 4.0418503,-0.06771 2.312606,0.341773 5.333424,1.789449 l 15.19999,7.28433 -1.976191,4.12365 -14.864344,-7.12348 q -3.74006,-1.79235 -5.9258215,-1.66061 -2.1857611,0.13175 -3.4496042,2.76897 -0.66639,1.39054 -1.0141378,3.34651 l 21.5772735,10.34053 z" />
        <path
           inkscape:connector-curvature="0"
           id="path4888"
           style="font-style:normal;font-variant:normal;font-weight:normal;font-stretch:normal;font-size:53.17129898px;line-height:125%;font-family:'Ubuntu Condensed';-inkscape-font-specification:'Ubuntu Condensed,';text-align:center;writing-mode:lr-tb;text-anchor:middle;fill:#f68712;fill-opacity:1;stroke:none;stroke-width:0.6166997"
           d="m 24.138993,77.173698 q -1.575192,0.983839 -2.776254,2.739102 -1.110982,1.623619 -1.50137,3.418175 L 39.52032,96.782866 36.938038,100.55668 14.90948,85.483358 q 0.256428,-1.692937 0.972475,-3.586795 0.702193,-1.967766 2.053387,-3.942437 0.720637,-1.053158 1.572919,-2.016237 0.852282,-0.963078 1.833892,-1.644379 z" />
        <path
           inkscape:connector-curvature="0"
           id="path4890"
           style="font-style:normal;font-variant:normal;font-weight:normal;font-stretch:normal;font-size:53.17129898px;line-height:125%;font-family:'Ubuntu Condensed';-inkscape-font-specification:'Ubuntu Condensed,';text-align:center;writing-mode:lr-tb;text-anchor:middle;fill:#f68712;fill-opacity:1;stroke:none;stroke-width:0.6166997"
           d="M 50.22881,83.02203 47.253558,86.494457 26.055601,68.331581 29.030853,64.859154 Z M 23.788161,63.377944 q -0.795707,0.928672 -1.989494,1.096143 -1.199569,0.0925 -2.249372,-0.806997 -1.049804,-0.899495 -1.101924,-2.064467 -0.0579,-1.239945 0.737805,-2.168618 0.795707,-0.928672 1.995275,-1.02117 1.193787,-0.167471 2.243591,0.732024 1.049803,0.899495 1.107705,2.13944 0.05212,1.164972 -0.743586,2.093645 z" />
        <path
           inkscape:connector-curvature="0"
           id="path4892"
           style="font-style:normal;font-variant:normal;font-weight:normal;font-stretch:normal;font-size:53.17129898px;line-height:125%;font-family:'Ubuntu Condensed';-inkscape-font-specification:'Ubuntu Condensed,';text-align:center;writing-mode:lr-tb;text-anchor:middle;fill:#f68712;fill-opacity:1;stroke:none;stroke-width:0.6166997"
           d="m 38.311376,55.412256 q 1.072837,-1.629237 2.527333,-3.295212 1.420899,-1.707187 2.822096,-2.849499 1.442408,-1.175909 2.898712,-1.745731 1.497515,-0.60342 3.109717,-0.477118 0.500347,-1.574131 1.367126,-3.035381 0.866779,-1.461251 2.350399,-2.670757 1.48362,-1.209507 3.048329,-1.730503 1.572324,-0.595805 3.277705,-0.271059 1.70538,0.324746 3.644608,1.693679 1.905631,1.327721 4.022267,3.924056 L 78.030045,58.01883 74.485842,60.908206 64.070647,48.132589 q -2.620598,-3.21451 -4.571914,-4.093376 -1.951317,-0.878867 -4.0119,0.801003 -0.783022,0.638351 -1.372073,1.59878 -0.54784,0.926833 -0.84527,1.992529 1.102434,0.679089 2.241605,1.739837 1.139172,1.060749 2.348678,2.544369 L 68.51015,65.77983 64.965947,68.669206 54.550752,55.89359 q -2.620598,-3.21451 -4.571914,-4.093377 -1.951317,-0.878867 -4.0119,0.801003 -1.071504,0.873533 -2.095515,2.394364 l 15.118832,18.54525 -3.544203,2.889377 z" />
        <path
           inkscape:connector-curvature="0"
           id="path4894"
           style="font-style:normal;font-variant:normal;font-weight:normal;font-stretch:normal;font-size:53.17129898px;line-height:125%;font-family:'Ubuntu Condensed';-inkscape-font-specification:'Ubuntu Condensed,';text-align:center;writing-mode:lr-tb;text-anchor:middle;fill:#f68712;fill-opacity:1;stroke:none;stroke-width:0.6166997"
           d="m 87.300897,48.48287 q 1.75974,0.06883 3.328031,-0.718106 1.188099,-0.596166 1.852588,-1.524491 0.664489,-0.928325 0.733828,-2.331382 0.116864,-1.426903 -0.45664,-3.39974 -0.573503,-1.972836 -1.908914,-4.634178 -2.575433,-5.132587 -5.003048,-6.650984 -2.403938,-1.589767 -5.255375,-0.15897 -0.522763,0.262312 -1.092881,0.667366 -0.593965,0.35753 -1.163914,0.881478 z m 6.295505,12.546324 -4.08706,2.050809 -16.59724,-33.076673 q 1.044511,-1.237992 2.540923,-2.405291 1.52009,-1.23867 3.278476,-2.120994 2.613817,-1.311564 4.920337,-1.338627 2.354044,-0.05091 4.353097,1.087635 2.02273,1.067173 3.785517,3.276106 1.786465,2.137562 3.360341,5.274143 3.171599,6.320686 2.797332,10.672767 -0.326744,4.328235 -4.889043,6.617509 -1.093051,0.548472 -2.067716,0.740092 -0.950817,0.239143 -1.901973,0.240497 z" />
        <path
           inkscape:connector-curvature="0"
           id="path4896"
           style="font-style:normal;font-variant:normal;font-weight:normal;font-stretch:normal;font-size:53.17129898px;line-height:125%;font-family:'Ubuntu Condensed';-inkscape-font-specification:'Ubuntu Condensed,';text-align:center;writing-mode:lr-tb;text-anchor:middle;fill:#f68712;fill-opacity:1;stroke:none;stroke-width:0.6166997"
           d="m 112.04894,42.513508 -4.32423,1.486914 -9.077084,-26.397914 4.324234,-1.486914 z M 99.201799,12.182849 q -1.15648,0.397663 -2.270615,-0.06264 -1.081143,-0.527873 -1.530675,-1.835198 -0.449532,-1.3073257 0.09563,-2.3381869 0.578155,-1.0984327 1.734635,-1.4960956 1.15648,-0.397663 2.237623,0.1302097 1.114133,0.4603014 1.563663,1.7676266 0.44954,1.3073253 -0.12862,2.4057582 -0.54516,1.030863 -1.701641,1.428526 z" />
        <path
           inkscape:connector-curvature="0"
           id="path4898"
           style="font-style:normal;font-variant:normal;font-weight:normal;font-stretch:normal;font-size:53.17129898px;line-height:125%;font-family:'Ubuntu Condensed';-inkscape-font-specification:'Ubuntu Condensed,';text-align:center;writing-mode:lr-tb;text-anchor:middle;fill:#f68712;fill-opacity:1;stroke:none;stroke-width:0.6166997"
           d="m 114.72981,13.324443 q 1.8174,-0.953714 3.98889,-1.760338 2.16122,-0.858796 4.03937,-1.228364 2.03467,-0.4003653 3.81706,-0.154991 1.77213,0.193204 3.17653,1.271629 1.45657,1.068159 2.52405,3.188318 1.10939,2.057722 1.75613,5.344487 l 3.25425,16.53817 -4.48669,0.882857 -3.18239,-16.172974 q -0.80073,-4.069328 -2.21372,-5.742164 -1.41299,-1.672837 -4.28238,-1.108219 -1.51296,0.297708 -3.28845,1.188985 l 4.6196,23.476896 -4.4867,0.882857 z" />
        <path
           inkscape:connector-curvature="0"
           id="path4900"
           style="font-style:normal;font-variant:normal;font-weight:normal;font-stretch:normal;font-size:53.17129898px;line-height:125%;font-family:'Ubuntu Condensed';-inkscape-font-specification:'Ubuntu Condensed,';text-align:center;writing-mode:lr-tb;text-anchor:middle;fill:#f68712;fill-opacity:1;stroke:none;stroke-width:0.6166997"
           d="m 161.85789,34.69968 q 0.0449,2.977254 -0.72208,5.009566 -0.71303,2.084675 -2.02291,3.380696 -1.30987,1.29602 -3.10867,1.908112 -1.74563,0.61129 -3.76591,0.641773 -1.70128,0.02567 -3.40819,-0.320818 -1.7069,-0.346487 -3.15359,-1.069141 l 0.89921,-3.842337 q 0.965,0.517213 2.35371,0.921678 1.38872,0.404465 2.87735,0.382004 2.60509,-0.03931 4.07126,-1.550394 1.46616,-1.511088 1.41162,-5.126325 l -0.0201,-1.329131 q -0.84503,0.384991 -1.79799,0.665257 -0.95377,0.2271 -2.17657,0.24555 -4.99753,0.07541 -7.38814,-3.291875 -2.33825,-3.421247 -2.43291,-9.694746 -0.0505,-3.349411 0.49418,-6.016497 0.59707,-2.721054 1.84496,-4.60109 1.30025,-1.9340036 3.35926,-2.922263 2.0582,-1.0414247 5.03545,-1.0863468 1.96712,-0.029681 3.83432,0.367565 1.91956,0.3432783 3.41782,0.9588002 z m -4.92517,-23.323721 q -0.74753,-0.201431 -1.43948,-0.244168 -0.69275,-0.0959 -1.27757,-0.08708 -3.18991,0.04813 -4.64164,2.516193 -1.39856,2.467261 -1.31513,7.996446 0.0754,4.997534 1.54215,7.049319 1.46594,1.998621 4.12421,1.958512 0.9038,-0.01364 1.69807,-0.238331 0.84744,-0.225496 1.58614,-0.608883 z" />
        <path
           inkscape:connector-curvature="0"
           id="path4902"
           style="font-style:normal;font-variant:normal;font-weight:normal;font-stretch:normal;font-size:53.17129898px;line-height:125%;font-family:'Ubuntu Condensed';-inkscape-font-specification:'Ubuntu Condensed,';text-align:center;writing-mode:lr-tb;text-anchor:middle;fill:#f68712;fill-opacity:1;stroke:none;stroke-width:0.6166997"
           d="m 175.53853,34.510065 q -0.14271,1.214585 -1.15213,2.059651 -0.95661,0.851271 -2.38243,0.683745 -1.42582,-0.167525 -2.15906,-1.217344 -0.73325,-1.04982 -0.59054,-2.264405 0.14891,-1.267393 1.10552,-2.118663 0.95662,-0.85127 2.38243,-0.683745 1.42582,0.167525 2.15907,1.217345 0.78605,1.056023 0.63714,2.323416 z" />
        <path
           inkscape:connector-curvature="0"
           id="path4904"
           style="font-style:normal;font-variant:normal;font-weight:normal;font-stretch:normal;font-size:53.17129898px;line-height:125%;font-family:'Ubuntu Condensed';-inkscape-font-specification:'Ubuntu Condensed,';text-align:center;writing-mode:lr-tb;text-anchor:middle;fill:#f68712;fill-opacity:1;stroke:none;stroke-width:0.6166997"
           d="m 186.77742,39.068385 -4.47544,-0.938268 5.7278,-27.320976 4.47544,0.938269 z m 4.50472,-32.6298251 q -1.19692,-0.2509323 -1.91795,-1.2170033 -0.65807,-1.0072009 -0.37441,-2.3602397 0.28366,-1.3530388 1.27995,-1.95907647 1.05924,-0.64716756 2.25616,-0.39623526 1.19692,0.25093229 1.855,1.25813313 0.72103,0.966071 0.43736,2.3191098 -0.28366,1.3530388 -1.3429,2.0002064 -0.99629,0.6060377 -2.19321,0.3551054 z" />
        <path
           inkscape:connector-curvature="0"
           id="path4906"
           style="font-style:normal;font-variant:normal;font-weight:normal;font-stretch:normal;font-size:53.17129898px;line-height:125%;font-family:'Ubuntu Condensed';-inkscape-font-specification:'Ubuntu Condensed,';text-align:center;writing-mode:lr-tb;text-anchor:middle;fill:#f68712;fill-opacity:1;stroke:none;stroke-width:0.6166997"
           d="m 207.47485,15.845683 6.67776,2.160676 -1.21129,3.743589 -6.67775,-2.160676 -4.73057,14.620232 q -0.88392,2.731808 -0.28284,4.155773 0.66804,1.389745 2.33748,1.929914 0.86001,0.278269 1.70069,0.270855 0.89127,0.009 1.56233,-0.165112 l -0.26943,3.768913 q -2.467,0.543018 -4.7941,-0.209945 -3.74359,-1.211288 -4.94426,-3.891083 -1.13372,-2.714015 0.43768,-7.570562 l 8.15164,-25.1933416 4.59619,0.6488776 z" />
      </g>
      <g
         transform="matrix(4.7192144,-0.54937968,0.54938582,4.7191616,-1077.5485,-1784.6243)"
         id="g4908"
         style="display:inline;stroke-width:0.6166997">
        <text
           xml:space="preserve"
           style="font-style:normal;font-variant:normal;font-weight:normal;font-stretch:normal;font-size:22.12595177px;line-height:125%;font-family:'Ubuntu Condensed';-inkscape-font-specification:'Ubuntu Condensed, ';letter-spacing:0px;word-spacing:0px;fill:#f68712;fill-opacity:1;stroke:#000000;stroke-width:0.99236858;stroke-opacity:0"
           id="text4910"><textPath
             style="stroke-width:0.99236858"
             xlink:href="#path4162"
             id="textPath4912">Learn Prototyping<tspan
   style="font-style:normal;font-variant:normal;font-weight:normal;font-stretch:normal;font-family:'Ubuntu Condensed';-inkscape-font-specification:'Ubuntu Condensed, ';stroke-width:0.99236858"
   id="tspan4914" /></textPath></text>
      </g>
    </g>
  </g>
</svg>
