<?xml version="1.0" encoding="UTF-8" standalone="no"?>
<!-- Created with Inkscape (http://www.inkscape.org/) -->

<svg
   xmlns:dc="http://purl.org/dc/elements/1.1/"
   xmlns:cc="http://creativecommons.org/ns#"
   xmlns:rdf="http://www.w3.org/1999/02/22-rdf-syntax-ns#"
   xmlns:svg="http://www.w3.org/2000/svg"
   xmlns="http://www.w3.org/2000/svg"
   xmlns:sodipodi="http://sodipodi.sourceforge.net/DTD/sodipodi-0.dtd"
   xmlns:inkscape="http://www.inkscape.org/namespaces/inkscape"
   width="793.70081"
   height="1122.5197"
   id="svg14479"
   version="1.1"
   inkscape:version="0.92.1 unknown"
   sodipodi:docname="logo_stencil.svg">
  <defs
     id="defs14481" />
  <sodipodi:namedview
     id="base"
     pagecolor="#ffffff"
     bordercolor="#666666"
     borderopacity="1.0"
     inkscape:pageopacity="0.0"
     inkscape:pageshadow="2"
     inkscape:zoom="0.68800077"
     inkscape:cx="301.33233"
     inkscape:cy="824.88433"
     inkscape:document-units="px"
     inkscape:current-layer="layer1"
     showgrid="false"
     inkscape:window-width="1920"
     inkscape:window-height="1053"
     inkscape:window-x="0"
     inkscape:window-y="0"
     inkscape:window-maximized="1" />
  <metadata
     id="metadata14484">
    <rdf:RDF>
      <cc:Work
         rdf:about="">
        <dc:format>image/svg+xml</dc:format>
        <dc:type
           rdf:resource="http://purl.org/dc/dcmitype/StillImage" />
        <dc:title />
      </cc:Work>
    </rdf:RDF>
  </metadata>
  <g
     inkscape:label="Layer 1"
     inkscape:groupmode="layer"
     id="layer1">
    <path
       style="fill:#f68712;fill-opacity:1;fill-rule:nonzero;stroke:none;stroke-width:1.06666672"
       d="M 519.73333,125.8 513.8,126.76667 c 4.01011,24.7352 17.49694,43.20389 33.9,59.4 16.40306,16.1961 35.76889,30.3138 52.23333,46.53333 12.34854,12.1621 24.42934,25.99759 31.7,40.8 7.17311,14.60381 9.70554,29.95226 3.63334,46.26667 -10.60965,10.59173 -24.80336,20.28841 -39.73334,25.33333 -3.1476,1.06359 -6.3275,1.905 -9.5,2.53333 -5.4772,-2.97436 -10.28276,-7.31096 -14.2,-12.4 -7.22279,-9.38476 -13.44135,-19.39334 -19.63333,-29.3 -3.13061,1.18337 -6.6203,1.54237 -10.13333,0.86667 -3.88813,-0.74717 -7.25697,-2.65401 -9.83334,-5.3 l 3.4,-2.53333 c 2.07196,2.08773 4.76475,3.6039 7.86667,4.2 8.17643,1.57268 16.09399,-3.78279 17.66667,-11.96667 1.59505,-8.17643 -3.75297,-16.09398 -11.96667,-17.66667 -1.02205,-0.19658 -2.06444,-0.27867 -3.06667,-0.26666 -7.01558,0.0841 -13.25723,5.07243 -14.63333,12.23333 -0.57552,2.99216 -0.21818,5.9421 0.86667,8.56667 L 528.83333,296.7 c -1.65961,-3.33766 -2.3469,-7.18065 -1.76666,-11.1 -4.21431,3.70332 -10.02676,5.50275 -15.93334,4.36667 -3.1141,-0.59842 -5.88579,-1.96155 -8.2,-3.83334 l 3.7,-2.73333 c 1.56112,1.05852 3.36345,1.82145 5.33334,2.2 7.77091,1.49469 15.30532,-3.58867 16.8,-11.36667 1.523,-7.77799 -3.56033,-15.30532 -11.36667,-16.8 -0.97136,-0.18683 -1.94748,-0.27807 -2.9,-0.26666 -6.66764,0.0798 -12.59215,4.83378 -13.9,11.63333 -0.7112,3.70093 0.0843,7.33546 1.93333,10.3 l -3.56666,2.66667 c -2.57557,-3.9434 -3.68734,-8.83558 -2.73334,-13.8 1.1487,-5.9776 5.0527,-10.74517 10.13334,-13.26667 -14.19833,-2.45557 -29.44821,-5.33322 -44.36667,-5.3 -10.15085,0.0226 -20.13683,1.40944 -29.46667,5.23333 -8.5167,25.84836 -9.1538,55.26074 -2.13333,82.2 0.9354,-0.48214 1.93935,-0.72933 3.03333,-0.7 14.80066,0.38497 26.10196,0.2495 36.03334,1.66667 2.43594,10.13028 5.89127,17.30395 10.26666,22.63333 5.09366,6.20426 11.35805,9.74318 18,12.66667 13.28391,5.84698 28.31633,9.48674 44.56667,27.36667 l 4.36667,-3.93334 c -17.21618,-18.94262 -33.98842,-23.26362 -46.56667,-28.8 -6.28912,-2.76819 -11.49311,-5.78738 -15.8,-11.03333 -3.35553,-4.08716 -6.22063,-9.6583 -8.43333,-17.73333 4.13223,0.96394 8.07832,2.35873 12.03333,4.26666 l -1,0.4 c 1.5202,3.74621 5.04283,6.32829 9.43333,9.2 4.39051,2.87172 9.7894,5.7787 15.16667,8.63334 5.37727,2.85463 10.75071,5.65876 15.03333,8.26666 4.28263,2.60791 7.42096,5.25287 8.16667,6.5 11.40243,19.14462 28.67706,25.59154 46.86667,29.76667 18.18961,4.17513 37.53752,6.41692 55.06666,16.83333 l 3,-5.03333 C 620.80148,406.60947 600.62653,404.3355 582.9,400.26667 565.17347,396.19783 550.1511,390.66875 539.76667,373.23333 537.78999,369.92752 534.14113,367.46532 529.6,364.7 c -4.54113,-2.76532 -10.01155,-5.59046 -15.36667,-8.43333 -3.24019,-1.72012 -6.40982,-3.42358 -9.33333,-5.1 -5.40306,-8.60885 -6.19617,-11.26969 -4.26667,-23.96667 12.46193,12.71227 6.89375,31.88449 42.43334,37.26667 14.09646,2.14584 24.27002,1.43215 39.46666,-3.33334 l 3.7,-2.36666 c 9.39553,3.60786 19.63415,4.13381 29.43334,1.86666 11.60102,-2.67685 24.88762,-5.78276 36.36666,-11.66666 11.47904,-5.88391 21.26862,-14.80609 24.83334,-28.6 2.60819,-10.1342 -0.0659,-19.45179 -4.43334,-27.8 C 668.06589,284.21845 662.03454,276.60315 657.3,269.3 630.57326,228.1639 595.0091,192.6288 584.43333,146 l -5.86666,1.33333 c 11.06846,48.80111 47.41947,84.83535 73.66666,125.23334 4.95894,7.6493 10.8714,15.16318 14.86667,22.8 3.99527,7.63682 6.07983,15.15976 3.93333,23.5 C 667.9703,330.71925 659.8554,338.18953 649.3,343.6 c -10.5554,5.41047 -23.42794,8.4965 -35,11.16667 -8.62236,1.99488 -17.51456,1.54263 -25.66667,-1.53334 2.97279,-0.64359 5.92982,-1.45222 8.83334,-2.43333 16.2408,-5.48785 31.3025,-15.79142 42.56666,-27.16667 l 0.43334,-0.46666 L 640.7,322.6 c 7.05375,-18.27257 4.14251,-35.93577 -3.63333,-51.76667 -7.77584,-15.8309 -20.33047,-30.05356 -32.9,-42.43333 -16.8984,-16.64703 -36.28012,-30.74806 -52.23334,-46.5 -15.95321,-15.75194 -28.45372,-32.99217 -32.2,-56.1 z m -118,113.93333 c -0.76149,-0.0156 -1.53042,6.3e-4 -2.3,0.0333 -27.20353,1.19257 -55.12457,4.38954 -81.5,11.4 2.08348,6.74832 1.56274,13.33252 0.9,19.56667 -0.71024,6.68092 -1.56972,13.01254 -0.36666,19.13333 0.002,0.0108 -0.002,0.0225 0,0.0333 4.36725,21.78606 9.46977,42.9631 15.53333,63.9 0.37689,0.70388 0.77156,1.40626 1.23333,2.1 2.47205,3.70025 6.74736,4.32927 9.9,5.03334 0.49482,0.11391 1.00343,0.19186 1.5,0.3 -2.01818,1.73858 -4.15879,3.66225 -6.6,5.86666 -6.82198,6.16028 -14.95505,13.81456 -23.06666,21.26667 -8.11162,7.45211 -16.19629,14.69401 -22.9,19.96667 -3.35185,2.63633 -6.3677,4.79915 -8.76667,6.2 -2.39897,1.40084 -4.32145,1.84748 -4.53333,1.83333 L 280.4,421.83323 c 2.63922,0.17628 4.89932,-0.95071 7.66667,-2.56667 2.76735,-1.61596 5.90075,-3.9073 9.36666,-6.63333 6.77842,-5.33143 14.73333,-12.42308 22.7,-19.73334 C 300.00915,416.75198 282.83284,441.66507 273,466.06656 l 5.1,2.06667 c 9.02294,-22.39163 24.71411,-45.66665 43.33333,-68.2 -5.22687,9.66751 -10.22338,19.97058 -14.83333,30.46666 -13.88205,31.6071 -24.18537,64.51689 -26.5,85.43334 l 5.83333,0.66666 c 2.17573,-19.66111 12.36114,-52.52814 26.06667,-83.73333 10.02454,-22.82421 22.01523,-44.83984 33.86667,-60.4 3.04286,-3.2206 6.10683,-6.4155 9.2,-9.56667 0.0435,0.006 0.0898,-0.006 0.13333,0 -8.85425,18.10696 -18.88753,44.03819 -26.8,70.36667 -9.27388,30.85851 -15.6752,61.95309 -13.16667,82.06667 l 5.83334,-0.6999 c -2.25563,-18.0858 3.79797,-49.15817 12.96666,-79.66666 7.11092,-23.66129 16.05207,-47.122 24.1,-64.46667 1.54369,2.21424 3.64502,4.25436 5.93334,6.36667 3.53983,3.26755 7.61719,6.57816 10.9,9.8 3.2828,3.22183 5.63657,6.4145 6.16666,8.6 0.26505,1.09274 0.21597,1.8749 -0.23333,2.8 -0.4493,0.9251 -1.41613,2.06366 -3.33333,3.3 -9.74045,6.28271 -13.04168,5.62615 -17.43334,6.63333 -2.19583,0.50358 -4.63074,1.62996 -7,3.96667 -2.36926,2.3367 -4.90089,5.83815 -8.4,11.56666 l 5.03334,3.06667 c 3.38899,-5.54825 5.75942,-8.71667 7.5,-10.43333 1.74057,-1.71666 2.64092,-2.05009 4.16666,-2.4 3.05148,-0.69982 8.81035,-0.70073 19.3,-7.46667 2.53796,-1.63664 4.37673,-3.49114 5.43334,-5.66667 1.0566,-2.17553 1.22506,-4.60188 0.7,-6.76666 -1.05014,-4.32955 -4.23774,-7.9039 -7.8,-11.4 -3.56226,-3.49611 -7.65565,-6.84622 -11,-9.93334 -3.34436,-3.08711 -5.78269,-6.05327 -6.26667,-7.6 L 360.6,365.2 c 0.27413,-0.56026 0.56221,-1.12324 0.83333,-1.66667 18.7538,1.69903 37.93392,-1.23511 54.76667,-11.46666 2.40096,-1.4602 4.33379,-3.78126 6.13333,-6.2 14.81238,24.60687 45.45199,47.28881 66.8,62.4 l 0.8,0.53333 H 490.9 c 31.79886,-0.72463 63.43502,6.22234 94.53333,13.7 5.65016,1.35939 9.03858,5.98693 12.7,12 3.66142,6.01307 7.3225,13.19161 14.2,17.66667 l 3.2,-4.93334 c -5.19328,-3.37916 -8.57088,-9.56626 -12.36666,-15.8 -3.79579,-6.23374 -8.2954,-12.72478 -16.36667,-14.66666 -30.8546,-7.41906 -62.63919,-14.4475 -95.03333,-13.86667 -21.82706,-15.48613 -52.54941,-38.98837 -65.6,-62.16667 0.0593,-0.0739 0.10719,-0.16048 0.16666,-0.23333 l -0.26666,0.0667 c -0.56178,-1.0043 -1.10708,-1.99762 -1.6,-3 l -0.83334,0.4 c -7.29542,-28.46817 -6.52129,-59.41324 2.8,-86.73334 -6.28298,-7.30423 -15.12897,-11.30486 -24.7,-11.5 z m -89.9,13.13334 c -37.99927,11.07529 -72.32133,30.53247 -95.9,64.06666 -0.2272,0.32136 -0.42703,0.66127 -0.6,1 22.30693,28.86277 48.53806,55.10354 81.63334,68.73334 5.05954,-4.30436 10.64148,-8.19439 16.7,-11.56667 5.31959,-2.9649 11.72216,-5.69538 14.23333,-11.5 0.49372,-1.14399 0.93951,-2.29327 1.33333,-3.46667 -6.71338,-22.62836 -12.28396,-45.46971 -17,-69 -1.47852,-7.47577 -0.39466,-14.53221 0.3,-21.06666 0.65246,-6.13746 1.0022,-11.78615 -0.7,-17.2 z m -96.93333,75.9 c 0.4744,3.27864 0.82124,6.32128 -0.76667,8.33333 -9.90384,12.64969 -22.01574,24.48134 -25.83333,40.03333 -3.92903,15.91049 -4.94359,31.97792 -3.93333,48.03334 19.94446,17.85526 52.58795,27.50341 79.93333,23.26666 2.22042,-21.68686 11.71753,-41.30129 27,-56.53333 -30.82436,-13.50746 -55.46519,-37.15136 -76.4,-63.13333 z m -29.56667,107.06666 c 1.18334,10.10587 3.07973,20.20334 5.53334,30.23334 3.19498,13.07067 7.98197,25.34738 13.6,37.23333 9.05951,3.67972 20.92568,5.27189 32.23333,4.56667 10.76278,-0.67126 20.99684,-3.47847 27.86667,-7.66667 -1.78831,-14.64736 -1.68246,-29.24273 -0.83334,-44 -26.85766,3.71223 -57.01146,-4.27135 -78.4,-20.36667 z m 80.43334,73 c -8.07547,4.19332 -18.15469,6.45064 -28.56667,7.1 -9.36215,0.5839 -18.98843,-0.18198 -27.7,-2.46666 7.41072,14.33065 15.76529,28.2279 23.7,42.33333 8.97198,0.0728 18.37092,-0.57941 26.06667,-2.2 4.8003,-1.01086 8.90833,-2.43547 11.73333,-4.03333 2.825,-1.59787 4.13828,-3.20485 4.53333,-4.63334 l 1.06667,0.3 c -1.31446,-2.42241 -2.6072,-4.86576 -3.83333,-7.36666 -4.50379,-9.17124 -5.58276,-19.08173 -7,-29.03334 z m 15.16666,43.9 c -1.55585,1.77835 -3.49884,3.25937 -5.63333,4.46667 -4.02515,2.27668 -8.86873,3.80364 -14.23333,4.93333 -7.26626,1.53014 -15.46471,2.25656 -23.53334,2.4 -2.63924,46.0813 -39.28161,73.8792 -65.23333,84 17.8042,5.21496 31.36351,5.73629 42.56667,4.06667 5.79339,-7.75853 13.46933,-20.02915 20,-32.53333 4.53135,-8.67612 8.59523,-17.5161 11.3,-25.1 2.70476,-7.58391 3.89272,-14.08145 3.36666,-17.06667 l 5.8,-1.03333 c 0.94074,5.33839 -0.79068,12.09616 -3.63333,20.06666 -2.84265,7.97051 -6.97725,16.98221 -11.6,25.83334 -5.3718,10.2853 -11.24924,20.22687 -16.6,28.03333 4.59686,-1.22235 8.80577,-2.75035 12.8,-4.36667 6.47539,-2.62326 13.31515,-5.76522 19.16667,-11.4 6.49253,-9.99475 10.84917,-24.42393 10.96666,-46.7 l 4,0.0333 3.73334,-1.03333 c 4.33795,15.9962 9.86453,25.72949 22.3,32.56667 0.0682,-0.1446 0.13135,-0.28889 0.2,-0.43334 26.4024,10.29498 52.42355,-3.6063 69.13333,-24.26666 -20.5352,4.00534 -40.90756,-2.69993 -57.5,-13.3 -11.4994,-7.32941 -20.18706,-17.5391 -27.36667,-29.16667 z m -7.8,53.7 c -1.84001,13.81735 -5.72382,24.43435 -10.93333,32.63334 7.3673,5.87337 13.22967,11.1498 22.06667,16.93333 2.21726,-9.96531 5.19155,-19.62821 9.06666,-29 -9.1869,-5.12501 -15.55471,-11.9195 -20.2,-20.56667 z"
       id="path10810"
       inkscape:connector-curvature="0" />
    <path
       inkscape:connector-curvature="0"
       id="path10900"
       style="fill:#f68712;fill-opacity:1;fill-rule:nonzero;stroke:none;stroke-width:1.06666672"
       d="m 115.79623,512.53226 3.8176,8.88685 c -6.07842,5.13967 -13.29116,10.6079 -21.599117,16.44381 -8.347072,5.77333 -17.421675,11.67181 -27.231627,17.75806 l -3.723723,-8.68345 c 2.808438,-1.52548 6.047136,-3.41863 9.778667,-5.65599 3.637664,-2.22954 7.423968,-4.52166 11.304139,-6.93112 3.786304,-2.44857 7.486549,-4.82675 11.092928,-7.18145 3.512493,-2.32341 6.508673,-4.37302 8.957253,-6.1723 -2.99619,0.5789 -6.60255,1.31425 -10.881701,2.29212 -4.310432,0.8527 -8.706923,1.83057 -13.173814,2.87102 -4.521664,0.97786 -8.855562,1.95573 -13.017365,2.9336 -4.247851,1.00916 -7.791637,1.89315 -10.631371,2.62851 l -3.543786,-8.28449 c 2.534634,-1.40031 5.624693,-3.2074 9.285824,-5.43694 3.606368,-2.29212 7.40049,-4.64683 11.343253,-7.05629 3.880171,-2.47987 7.635179,-4.88933 11.304139,-7.27533 3.637664,-2.38599 6.719904,-4.4356 9.199765,-6.17228 -2.964885,0.57889 -6.571264,1.34553 -10.725237,2.3234 -4.193088,1.00916 -8.44095,2.07308 -12.806144,3.2074 -4.373014,1.09521 -8.620875,2.19825 -12.743552,3.30128 -4.18527,1.15779 -7.791648,2.22954 -10.850411,3.2387 l -3.606379,-8.40183 c 11.186795,-2.9336 21.732118,-5.41348 31.659414,-7.43179 9.935125,-2.10436 18.853269,-3.60637 26.770075,-4.49036 l 3.70025,8.55828 c -1.86968,1.4629 -4.31043,3.2387 -7.27533,5.3196 -3.090057,2.04179 -6.328745,4.21656 -9.778665,6.50868 -3.481205,2.22954 -7.001525,4.42778 -10.514016,6.56345 -3.575082,2.20606 -6.845066,4.19309 -9.809962,5.92978 3.332565,-0.94658 7.032821,-1.89315 11.124213,-2.83972 4.067925,-0.94659 8.096736,-1.83057 12.164661,-2.6911 4.060096,-0.8527 7.940279,-1.65063 11.609219,-2.32341 3.5438,-0.72753 6.4774,-1.31425 8.8008,-1.73669 z" />
    <path
       inkscape:connector-curvature="0"
       id="path10902"
       style="fill:#f68712;fill-opacity:1;fill-rule:nonzero;stroke:none;stroke-width:1.06666672"
       d="m 94.650851,449.67499 1.744512,9.52834 c -7.118869,3.60637 -15.372064,7.33791 -24.78305,11.1555 -9.410987,3.76282 -19.588619,7.48655 -30.532907,11.21809 l -1.674112,-9.32494 c 3.08224,-0.85271 6.688608,-1.95573 10.811296,-3.33258 4.067925,-1.30642 8.253195,-2.71455 12.594923,-4.18527 4.216565,-1.52547 8.370538,-3.01964 12.407178,-4.52165 3.942752,-1.46289 7.298795,-2.80843 10.115051,-3.97405 -3.027477,-0.14895 -6.759019,-0.2109 -11.124213,-0.2422 -4.40431,-0.11765 -8.894678,-0.14894 -13.478912,-0.14894 -4.615531,-0.0626 -9.074603,-0.0939 -13.35375,-0.0626 -4.365194,0.0313 -8.002858,0.0939 -10.936458,0.18024 l -1.61935,-8.86338 c 2.808438,-0.82141 6.23488,-1.89316 10.263691,-3.23869 4.067925,-1.40031 8.28448,-2.83974 12.680971,-4.33391 4.310442,-1.53329 8.526997,-3.05876 12.626218,-4.55295 4.091392,-1.50201 7.541302,-2.81626 10.357558,-3.91147 -3.027467,-0.12516 -6.696427,-0.18774 -10.975574,-0.15646 -4.302613,0.0313 -8.706922,0.12518 -13.19729,0.2422 -4.490358,0.0626 -8.894667,0.18776 -13.173814,0.36737 -4.302613,0.18775 -8.096736,0.39928 -11.272853,0.70407 l -1.619339,-8.98074 c 11.523179,-0.36799 22.36576,-0.43057 32.512107,-0.15646 10.146347,0.18776 19.158368,0.73536 27.106464,1.65065 l 1.650635,9.16848 c -2.143478,1.00915 -4.920619,2.19824 -8.28448,3.54378 -3.44992,1.31425 -7.11887,2.69109 -10.999051,4.15398 -3.880171,1.37684 -7.791637,2.72237 -11.703104,4.03664 -3.974048,1.34553 -7.611712,2.53462 -10.881696,3.57507 3.426443,-0.18024 7.275328,-0.27348 11.491883,-0.27348 4.122688,0 8.28449,0.0312 12.438464,0.0939 4.153984,0.0864 8.096736,0.2109 11.828277,0.35985 3.637664,0.0939 6.626027,0.18776 8.980725,0.28162 z" />
    <path
       inkscape:connector-curvature="0"
       id="path10904"
       style="fill:#f68712;fill-opacity:1;fill-rule:nonzero;stroke:none;stroke-width:1.06666672"
       d="m 88.267342,383.66508 -0.367371,9.68479 c -7.729056,1.98703 -16.592437,3.85671 -26.590144,5.56211 -9.989888,1.61935 -20.746421,3.09006 -32.207018,4.37301 l 0.336693,-9.44227 c 3.207403,-0.18775 6.97024,-0.49316 11.280672,-0.91529 4.247851,-0.43057 8.644341,-0.9231 13.197291,-1.40812 4.459072,-0.5789 8.832096,-1.1578 13.079946,-1.74452 4.18527,-0.5789 7.760352,-1.1578 10.756534,-1.7054 -2.9336,-0.76665 -6.539979,-1.65064 -10.819115,-2.6285 -4.279147,-1.04045 -8.644341,-2.0809 -13.142528,-3.05877 -4.490368,-1.04046 -8.824277,-2.01832 -13.017365,-2.9336 -4.271318,-0.884 -7.85423,-1.61935 -10.725238,-2.16695 l 0.336694,-9.01984 c 2.902314,-0.18025 6.477386,-0.48503 10.725248,-0.91529 4.24785,-0.51632 8.683456,-1.04045 13.298986,-1.52547 4.552939,-0.5789 8.980726,-1.13432 13.322454,-1.71323 4.333898,-0.57889 7.971562,-1.12649 10.967754,-1.61935 -2.9336,-0.76664 -6.508682,-1.58805 -10.693952,-2.50333 -4.216565,-0.89181 -8.526997,-1.7758 -12.931306,-2.59721 -4.427787,-0.89182 -8.738219,-1.74452 -12.923488,-2.47987 -4.279147,-0.75883 -8.002859,-1.34555 -11.186795,-1.73669 l 0.336075,-9.13719 c 11.343253,2.13566 21.943328,4.42778 31.815861,6.87635 9.841259,2.34688 18.548181,4.82676 26.097312,7.42397 l -0.367371,9.31711 c -2.323402,0.52446 -5.257002,1.07174 -8.832085,1.68193 -3.66896,0.54761 -7.549131,1.10304 -11.640523,1.68193 -4.099221,0.51632 -8.221909,1.00916 -12.313301,1.43161 -4.161803,0.42994 -7.979392,0.82922 -11.405835,1.13432 3.395147,0.57889 7.157984,1.31425 11.280672,2.19824 4.060096,0.89182 8.096736,1.83839 12.133366,2.81626 4.060106,0.94657 7.877696,1.92444 11.484064,2.87102 3.52032,0.85269 6.422634,1.58805 8.714752,2.19824 z" />
    <path
       inkscape:connector-curvature="0"
       id="path10906"
       style="fill:#f68712;fill-opacity:1;fill-rule:nonzero;stroke:none;stroke-width:1.06666672"
       d="m 89.487715,326.73759 c 1.650646,0.30479 3.058774,1.22038 4.122688,2.68327 1.10303,1.40813 1.47071,3.12135 1.10303,5.07708 -0.36799,1.95573 -1.314251,3.41863 -2.839723,4.34173 -1.533291,0.91528 -3.15264,1.22038 -4.834571,0.91528 -1.736693,-0.33607 -3.176106,-1.1969 -4.24785,-2.59721 -1.095211,-1.43941 -1.462891,-3.12135 -1.095211,-5.07708 0.367989,-1.98703 1.314251,-3.41862 2.839723,-4.33391 1.525472,-1.00916 3.176106,-1.34554 4.951914,-1.00916 z" />
    <path
       inkscape:connector-curvature="0"
       id="path10908"
       style="fill:#f68712;fill-opacity:1;fill-rule:nonzero;stroke:none;stroke-width:1.06666672"
       d="m 93.672985,303.35485 c 0.829237,-2.68327 0.672778,-4.9441 -0.398656,-6.75119 -1.157792,-1.86187 -2.964886,-3.2074 -5.436939,-3.94276 -1.556757,-0.45373 -2.964885,-0.57889 -4.185269,-0.33608 -1.314251,0.21904 -2.534624,0.67278 -3.66895,1.34555 -1.126506,0.67277 -2.19825,1.502 -3.207402,2.53463 -1.071744,0.97787 -2.166955,1.95574 -3.332576,2.9336 -1.071744,1.00915 -2.229536,1.92444 -3.481206,2.78496 -1.345546,0.82141 -2.753674,1.52547 -4.24785,2.10438 -1.525472,0.46123 -3.144822,0.73535 -4.889334,0.82922 -1.775808,0.0313 -3.731541,-0.30541 -5.8672,-0.94657 -4.61553,-1.37684 -7.91681,-3.91146 -9.903829,-7.61172 -1.987029,-3.75501 -2.229536,-8.09674 -0.727541,-12.98607 0.610197,-2.0809 1.46289,-3.94275 2.597216,-5.62468 1.032629,-1.68193 2.073077,-3.05095 3.08224,-4.06011 l 6.719893,4.24785 c -1.063915,1.03263 -1.9792,2.16696 -2.745845,3.32475 -0.73536,1.19692 -1.314251,2.51117 -1.775808,4.00534 -0.672768,2.26083 -0.547606,4.27915 0.398656,6.05496 0.883989,1.70539 2.56592,2.95706 5.045792,3.69242 1.400309,0.43057 2.71456,0.57889 3.942762,0.39928 1.157792,-0.2109 2.260822,-0.57889 3.356032,-1.10303 1.040459,-0.61019 2.049611,-1.31425 3.058774,-2.07308 1.040448,-0.86052 2.04961,-1.77581 3.027477,-2.72238 1.189077,-1.10304 2.409461,-2.16695 3.723712,-3.14482 1.345547,-1.07174 2.78496,-1.92444 4.373024,-2.53463 1.525472,-0.70407 3.238688,-1.13433 5.13184,-1.25949 1.830571,-0.14895 3.911467,0.15646 6.266165,0.86052 4.889334,1.46289 8.401835,4.09139 10.482727,7.90898 2.13567,3.73154 2.37818,8.37837 0.69625,13.90919 -0.8527,2.83972 -2.010497,5.2883 -3.44991,7.33008 -1.462891,2.01832 -2.691093,3.52032 -3.66896,4.4669 l -6.993707,-4.1931 c 0.884,-0.88399 1.955734,-2.13566 3.207403,-3.69242 1.251669,-1.61935 2.198251,-3.54379 2.871019,-5.74985 z" />
    <path
       inkscape:connector-curvature="0"
       id="path10910"
       style="fill:#f68712;fill-opacity:1;fill-rule:nonzero;stroke:none;stroke-width:1.06666672"
       d="m 109.5066,276.8664 -76.336175,-36.58004 2.628501,-9.34841 25.479296,12.18813 c 0.21904,-1.43159 0.524448,-2.96489 0.9544,-4.58423 0.485013,-1.65064 1.095211,-3.26999 1.83056,-4.79546 1.040448,-2.19825 2.417291,-4.09139 4.060107,-5.68728 1.627168,-1.61934 3.582901,-2.74584 5.929781,-3.32474 2.385995,-0.67277 5.194432,-0.73536 8.43312,-0.15646 3.238699,0.49253 6.97024,1.71323 11.186795,3.76283 l 31.784575,15.2156 -4.13051,8.61306 -31.103975,-14.87922 c -5.194432,-2.50334 -9.356234,-3.66896 -12.375882,-3.48121 -3.058763,0.18024 -5.476054,2.10437 -7.244032,5.80462 -0.915286,1.92444 -1.61935,4.24785 -2.112192,7.00152 l 45.138321,21.63042 z" />
    <path
       inkscape:connector-curvature="0"
       id="path10912"
       style="fill:#f68712;fill-opacity:1;fill-rule:nonzero;stroke:none;stroke-width:1.06666672"
       d="m 107.66821,180.48003 c -2.19824,1.37684 -4.12268,3.26999 -5.80461,5.71857 -1.55677,2.26082 -2.597218,4.64682 -3.144823,7.15016 l 41.125163,28.14691 -5.40565,7.8777 -46.0849,-31.53424 c 0.367371,-2.35471 1.040448,-4.85805 2.049611,-7.48655 0.977866,-2.74585 2.41729,-5.49952 4.279146,-8.2532 1.009152,-1.46289 2.112192,-2.87102 3.30128,-4.21656 1.189078,-1.34554 2.472043,-2.47205 3.848873,-3.41862 z" />
    <path
       inkscape:connector-curvature="0"
       id="path10914"
       style="fill:#f68712;fill-opacity:1;fill-rule:nonzero;stroke:none;stroke-width:1.06666672"
       d="m 162.24882,192.70727 -6.23488,7.27533 -44.34038,-38.01945 6.23487,-7.24404 z m -55.31597,-41.10168 c -1.0952,1.31425 -2.50333,2.0809 -4.15397,2.29212 -1.68193,0.14895 -3.238695,-0.42996 -4.701586,-1.68193 -1.470709,-1.25167 -2.237355,-2.6911 -2.323403,-4.31044 -0.06261,-1.73669 0.453728,-3.23869 1.556758,-4.55295 1.10304,-1.28296 2.503338,-1.98702 4.153981,-2.13565 1.68193,-0.21092 3.23869,0.3054 4.7094,1.55675 1.46289,1.25167 2.22953,2.72238 2.32341,4.45908 0.0563,1.61934 -0.46187,3.09005 -1.56459,4.37302 z" />
    <path
       inkscape:connector-curvature="0"
       id="path10916"
       style="fill:#f68712;fill-opacity:1;fill-rule:nonzero;stroke:none;stroke-width:1.06666672"
       d="m 137.3093,134.95056 c 1.50201,-2.26082 3.27,-4.55295 5.28831,-6.90765 1.98702,-2.3547 3.94275,-4.33391 5.89849,-5.95325 2.01832,-1.61935 4.03664,-2.84755 6.07842,-3.63766 2.0809,-0.86052 4.24785,-1.16562 6.50868,-1.00916 0.67277,-2.19824 1.65063,-4.31043 2.84755,-6.36005 1.22038,-2.01831 2.83972,-3.88018 4.9128,-5.5621 2.0809,-1.7054 4.19309,-2.90231 6.39134,-3.62984 2.19824,-0.82924 4.45907,-1.00916 6.84507,-0.55574 2.38599,0.43057 4.92062,1.61935 7.63518,3.54378 2.65979,1.83839 5.44475,4.58425 8.40965,8.19061 l 22.27189,27.31769 -7.42397,6.05494 -21.78686,-26.70748 c -3.63767,-4.49037 -6.81378,-7.33791 -9.56745,-8.5583 -2.71456,-1.25167 -5.49952,-0.67277 -8.37054,1.65065 -1.10303,0.88399 -2.04961,2.01831 -2.87102,3.36386 -0.76664,1.28295 -1.34554,2.68326 -1.77581,4.15397 1.53331,0.94657 3.12136,2.16696 4.70941,3.63767 1.55677,1.49417 3.20741,3.26998 4.88934,5.31177 l 22.27189,27.35679 -7.39267,6.04714 -21.78687,-26.7388 c -3.66896,-4.49035 -6.84507,-7.33791 -9.56745,-8.55828 -2.71456,-1.22038 -5.53081,-0.67278 -8.40183,1.68193 -1.49418,1.18909 -2.96489,2.87102 -4.37302,5.0145 l 31.62812,38.77828 -7.42397,6.04712 -35.84468,-43.9727 z" />
    <path
       style="fill:#f68712;fill-opacity:1;fill-rule:nonzero;stroke:none;stroke-width:1.06666672"
       d="m 232.16667,69.533333 c -3.20741,0.06258 -6.66234,0.96943 -10.3,2.8 -2.44858,1.220374 -4.72897,2.720118 -6.83334,4.433334 C 212.92114,78.386016 211.13942,80.055488 209.7,81.8 l 34.73333,69.2 8.53334,-4.3 -9.43334,-18.76667 c 0.0329,0 0.0672,2.4e-4 0.1,0 l -3.83333,-7.46666 -0.4,-0.8 -1.3,-2.53334 h 0.0334 L 221.03333,83.1 c 0.79794,-0.73536 1.60615,-1.350357 2.46667,-1.866667 0.79011,-0.547605 1.49798,-1.030592 2.23333,-1.366666 3.97405,-2.018624 7.63614,-1.898251 11,0.3 3.39515,2.143477 6.89362,6.751882 10.5,13.933333 1.83056,3.700245 3.16873,6.94633 3.96667,9.7 0.79011,2.74585 1.11295,5.08167 0.93333,7.1 -0.0939,1.95573 -0.55342,3.5837 -1.5,4.86667 -0.9231,1.31425 -2.21807,2.34729 -3.9,3.2 -0.60699,0.3003 -1.23598,0.5546 -1.86666,0.76666 l 3.8,7.4 c 1.01807,-0.28628 2.0681,-0.71457 3.16666,-1.26666 6.35222,-3.20741 9.80276,-7.80968 10.23334,-13.83334 C 262.61427,105.95492 260.63561,98.5008 256.2,89.7 c -2.19825,-4.373013 -4.52796,-8.037152 -7,-11.033333 -2.47205,-3.090059 -5.11708,-5.370443 -7.93333,-6.833334 -2.77714,-1.588053 -5.83002,-2.362613 -9.1,-2.3 z"
       id="path10918"
       inkscape:connector-curvature="0" />
    <path
       inkscape:connector-curvature="0"
       id="path10920"
       style="fill:#f68712;fill-opacity:1;fill-rule:nonzero;stroke:none;stroke-width:1.06666672"
       d="m 291.56973,107.96927 -9.04332,3.11352 L 263.51668,55.868537 272.56,52.747182 Z M 264.67449,44.525283 c -1.61935,0.555734 -3.17612,0.524448 -4.73288,-0.117664 -1.52547,-0.735349 -2.56593,-2.018314 -3.2074,-3.848885 -0.6102,-1.838389 -0.54761,-3.457728 0.2109,-4.889333 0.79794,-1.533291 2.01831,-2.56592 3.60638,-3.121344 1.61934,-0.578902 3.1761,-0.485024 4.67811,0.242197 1.55676,0.649301 2.6598,1.900971 3.30128,3.700245 0.61019,1.83839 0.51631,3.512502 -0.28163,5.045792 -0.75883,1.431595 -1.95574,2.440758 -3.57508,2.988363 z" />
    <path
       inkscape:connector-curvature="0"
       id="path10922"
       style="fill:#f68712;fill-opacity:1;fill-rule:nonzero;stroke:none;stroke-width:1.06666672"
       d="m 297.16313,46.911278 c 2.53462,-1.314261 5.31959,-2.565931 8.33924,-3.66896 3.02748,-1.220373 5.83591,-2.073077 8.46441,-2.597216 2.84756,-0.547605 5.49952,-0.641483 7.9794,-0.304779 2.47204,0.273494 4.67029,1.165622 6.62602,2.659798 2.04961,1.502005 3.82541,3.700245 5.2883,6.665141 1.55677,2.871019 2.78497,6.594731 3.66896,11.178965 l 6.81377,34.593014 -9.37969,1.838389 -6.66514,-33.834187 c -1.09521,-5.64816 -2.6598,-9.653493 -4.61553,-12.008202 -1.9792,-2.323414 -4.9441,-3.08223 -8.94944,-2.323414 -2.11219,0.430582 -4.42778,1.259499 -6.90765,2.511168 l 9.68479,49.104555 -9.37969,1.83056 -10.96775,-55.644523 z" />
    <path
       inkscape:connector-curvature="0"
       id="path10924"
       style="fill:#f68712;fill-opacity:1;fill-rule:nonzero;stroke:none;stroke-width:1.06666672"
       d="m 395.7399,91.619342 c 0.0626,4.153973 -0.42243,7.642997 -1.49417,10.482728 -1.00916,2.90231 -2.41729,5.257 -4.24785,7.08757 -1.79928,1.8071 -3.97406,3.12136 -6.4774,3.97405 -2.44858,0.8527 -5.07708,1.31425 -7.88551,1.34555 -2.386,0.0312 -4.76416,-0.18776 -7.15016,-0.67277 -2.35471,-0.49253 -4.55295,-1.22038 -6.57126,-2.22954 l 1.86185,-8.04198 c 1.34555,0.73536 2.99618,1.37685 4.92062,1.92445 1.95573,0.55512 3.94276,0.82923 6.02366,0.79794 3.63766,-0.0626 6.4774,-1.13432 8.527,-3.2387 2.04179,-2.11219 3.01966,-5.687271 2.96489,-10.725234 l -0.0626,-2.784971 c -1.16562,0.555744 -2.41729,1.009163 -3.76284,1.408128 -1.31425,0.304779 -2.83972,0.493163 -4.55294,0.51632 -6.96241,0.09387 -12.12554,-2.19825 -15.45812,-6.899829 -3.23869,-4.771989 -4.95191,-11.523179 -5.07708,-20.261397 -0.0864,-4.678112 0.27349,-8.894678 1.04045,-12.594923 0.82923,-3.786304 2.11219,-6.993707 3.84889,-9.622208 1.80709,-2.722379 4.16179,-4.732875 7.03281,-6.109717 2.87102,-1.47071 6.38352,-2.229536 10.53749,-2.292118 2.72238,-0.03125 5.41347,0.211531 8.01069,0.758827 2.69108,0.493163 5.06926,1.165621 7.15015,2.018315 l 0.82141,55.159509 z M 385.44493,42.851171 c -1.04045,-0.304778 -2.04961,-0.461866 -2.99618,-0.524448 -0.97787,-0.117653 -1.86187,-0.180245 -2.6911,-0.180245 -4.42777,0.06261 -7.66647,1.830571 -9.71608,5.257013 -1.92444,3.44992 -2.83972,9.012022 -2.74585,16.741078 0.11766,6.97024 1.18909,11.890858 3.23869,14.730581 2.04179,2.784971 4.92063,4.153984 8.61306,4.099221 1.25167,0 2.44857,-0.187754 3.54378,-0.493162 1.19691,-0.304779 2.29212,-0.73535 3.33257,-1.282955 l -0.57889,-38.348021 z" />
    <path
       inkscape:connector-curvature="0"
       id="path10926"
       style="fill:#f68712;fill-opacity:1;fill-rule:nonzero;stroke:none;stroke-width:1.06666672"
       d="m 424.37967,91.220366 c -0.21904,1.713227 -1.00916,3.15264 -2.41729,4.310443 -1.34555,1.189077 -2.99618,1.68193 -4.98321,1.439413 -1.98702,-0.250336 -3.51249,-1.071744 -4.52166,-2.542453 -1.04044,-1.462891 -1.43941,-3.050944 -1.22037,-4.732875 0.18024,-1.775808 0.97787,-3.238688 2.29212,-4.427776 1.34555,-1.196907 2.99618,-1.681931 4.98321,-1.439424 1.9792,0.242197 3.51249,1.071744 4.52165,2.534635 1.09521,1.470709 1.52547,3.090058 1.34555,4.858037 z" />
    <path
       inkscape:connector-curvature="0"
       id="path10928"
       style="fill:#f68712;fill-opacity:1;fill-rule:nonzero;stroke:none;stroke-width:1.06666672"
       d="m 447.87194,100.75653 -9.34841,-1.955737 11.97691,-57.146528 9.35623,1.955733 z m 9.41881,-68.239449 c -1.65064,-0.367371 -2.99619,-1.220384 -4.00534,-2.565931 -0.91529,-1.400299 -1.16562,-3.027467 -0.79794,-4.920619 0.39928,-1.893152 1.31425,-3.269984 2.69109,-4.091392 1.47071,-0.915285 3.05876,-1.189088 4.73287,-0.829237 1.65064,0.336704 2.94142,1.228203 3.85671,2.628512 1.00915,1.345536 1.31425,2.964885 0.91528,4.834571 -0.39928,1.893152 -1.31426,3.29345 -2.78497,4.185269 -1.4003,0.852693 -2.9336,1.095211 -4.6077,0.758827 z" />
    <path
       inkscape:connector-curvature="0"
       id="path10930"
       style="fill:#f68712;fill-opacity:1;fill-rule:nonzero;stroke:none;stroke-width:1.06666672"
       d="m 491.17969,52.199577 13.96394,4.521653 -2.53463,7.822933 -13.97176,-4.521653 -9.89601,30.587669 c -1.2282,3.786304 -1.43942,6.696427 -0.57889,8.675638 0.91528,1.955733 2.56592,3.301273 4.88933,4.036633 1.18909,0.39865 2.37816,0.5789 3.54379,0.5789 1.25167,0 2.32341,-0.11767 3.26998,-0.36737 l -0.55574,7.88551 c -3.44991,0.76665 -6.78248,0.6102 -10.05247,-0.42243 -5.19442,-1.68193 -8.64434,-4.40431 -10.32628,-8.12803 -1.58805,-3.794125 -1.28295,-9.082424 0.91529,-15.833613 l 17.05399,-52.710934 9.62221,1.345547 -5.34306,16.529856 z" />
    <path
       inkscape:connector-curvature="0"
       id="path10932"
       style="fill:#f68712;fill-opacity:1;fill-rule:nonzero;stroke:none;stroke-width:1.06666672"
       d="m 319.41154,717.61039 c 0.0563,4.39649 0.11767,9.13719 0.11767,14.17516 0,4.98321 0.0626,9.98988 0.24219,15.03568 0.21904,4.98321 0.49315,9.80996 0.73535,14.42549 0.30541,4.639 0.6102,8.88685 0.86052,12.71227 1.76799,-3.82542 3.57509,-8.07327 5.37436,-12.71227 1.77581,-4.70941 3.60638,-9.69262 5.49952,-14.91834 1.86187,-5.19443 3.73154,-10.56879 5.6247,-16.13089 1.86185,-5.59339 3.66896,-11.24937 5.37435,-16.86624 l 9.41881,1.95574 c -4.7407,14.11256 -9.38752,26.98129 -13.94046,38.62181 -4.58425,11.58577 -9.44228,22.55353 -14.54284,33.00496 l -9.77866,-2.0809 c -0.33608,-3.755 -0.70407,-7.88552 -1.10303,-12.34459 -0.33671,-4.55294 -0.64149,-9.28582 -0.85271,-14.17515 -0.18023,-4.85805 -0.33607,-9.80996 -0.49315,-14.79317 -0.18025,-4.95192 -0.21091,-9.71609 -0.11703,-14.30032 -1.89316,4.24785 -3.94277,8.61304 -6.10972,13.07994 -2.14348,4.49036 -4.31043,8.89468 -6.48521,13.19729 -2.19825,4.34173 -4.36519,8.527 -6.47738,12.59493 -2.13567,3.99751 -4.12269,7.60388 -5.98455,10.87387 l -9.66132,-2.07307 c -0.3367,-11.55448 -0.30479,-23.59398 0.12516,-36.06373 0.46187,-12.43846 1.46289,-26.09731 2.9336,-40.94523 l 9.65351,2.08089 c -0.72755,5.8672 -1.40031,11.75788 -1.95574,17.6016 -0.5789,5.80462 -1.06392,11.51536 -1.46289,17.10876 -0.3367,5.56211 -0.67278,10.85041 -0.97786,15.88838 -0.24283,4.9832 -0.36799,9.56745 -0.36799,13.69014 1.92443,-3.32475 3.97404,-7.08759 6.1097,-11.24156 2.11219,-4.13051 4.21657,-8.46442 6.36005,-12.95478 2.16695,-4.55294 4.3339,-9.08243 6.47739,-13.57279 2.10437,-4.55294 4.02881,-8.86338 5.74203,-12.95478 l 9.66132,2.0809 z" />
    <path
       inkscape:connector-curvature="0"
       id="path10934"
       style="fill:#f68712;fill-opacity:1;fill-rule:nonzero;stroke:none;stroke-width:1.06666672"
       d="m 350.14785,789.63614 3.05876,-83.369 9.411,-1.34554 -0.97787,27.74794 c 1.37684,-0.30541 2.87101,-0.61019 4.52166,-0.8527 1.61935,-0.21091 3.30128,-0.30478 5.01449,-0.24282 2.35471,0.0864 4.58425,0.5789 6.71991,1.46289 2.11219,0.82922 3.91146,2.17477 5.38217,4.03663 1.52548,1.89315 2.68327,4.42778 3.41863,7.58042 0.79794,3.11353 1.13432,6.93112 0.97786,11.48407 l -1.22038,34.71817 -9.41099,-0.24281 1.22039,-33.98283 c 0.2109,-5.68727 -0.33608,-9.90383 -1.71323,-12.59492 -1.40031,-2.65198 -4.09139,-4.09139 -8.06544,-4.27132 -2.13567,0 -4.49037,0.30478 -7.08758,0.85269 l -1.83839,49.26102 -9.41099,-0.24283 z" />
    <path
       inkscape:connector-curvature="0"
       id="path10936"
       style="fill:#f68712;fill-opacity:1;fill-rule:nonzero;stroke:none;stroke-width:1.06666672"
       d="m 407.13792,763.90652 c 0.30478,2.77714 0.76665,5.31176 1.34555,7.57259 0.64148,2.20607 1.53329,4.13051 2.69109,5.74986 1.18908,1.55676 2.69108,2.74585 4.40431,3.54379 1.6741,0.82141 3.81759,1.09521 6.35222,0.8527 2.1122,-0.14833 4.03663,-0.64148 5.74203,-1.46289 1.68193,-0.79794 2.9649,-1.47071 3.79412,-1.95573 l 2.44076,7.45525 c -0.91529,0.73536 -2.47204,1.61935 -4.639,2.56592 -2.14349,0.97787 -4.7407,1.61935 -7.82293,1.83057 -4.00534,0.33669 -7.43179,-0.0626 -10.27151,-1.22038 -2.77714,-1.18908 -5.16315,-3.09006 -7.08758,-5.62469 -1.95574,-2.50333 -3.48903,-5.53081 -4.52166,-9.04331 -1.07174,-3.48121 -1.8071,-7.45526 -2.20607,-11.85957 -0.97786,-10.47491 0.0313,-18.36042 3.05877,-23.58614 2.99619,-5.19443 7.39267,-8.06544 13.20512,-8.55829 6.4148,-0.54761 11.24155,1.49418 14.41766,6.10971 3.15264,4.58424 5.16314,11.21808 5.99236,19.92502 0.0626,0.82922 0.14833,1.68193 0.24221,2.56592 0.0626,0.82922 0.12516,1.74451 0.12516,2.69108 l -27.26292,2.44859 z m 7.21275,-25.79222 c -3.17611,0.24283 -5.34306,2.0105 -6.47739,5.25702 -1.1578,3.1761 -1.58806,7.48654 -1.34555,12.82961 l 17.3591,-1.58807 c -0.48503,-5.28829 -1.43943,-9.44227 -2.80844,-12.46975 -1.40813,-2.99618 -3.63766,-4.3339 -6.72772,-4.02881 z" />
    <path
       inkscape:connector-curvature="0"
       id="path10938"
       style="fill:#f68712;fill-opacity:1;fill-rule:nonzero;stroke:none;stroke-width:1.06666672"
       d="m 465.38749,731.81684 c -2.44859,-0.5476 -5.10839,-0.5476 -7.94811,0 -2.6285,0.57889 -5.03796,1.55676 -7.21275,2.9336 l 9.53616,48.04063 -9.16848,1.83057 -10.63136,-53.90784 c 1.79928,-1.36901 3.94276,-2.68326 6.47739,-3.91146 2.59722,-1.18908 5.49952,-2.10437 8.67563,-2.68327 1.77581,-0.39865 3.5438,-0.64148 5.25701,-0.73535 1.77581,-0.15646 3.48121,-0.0939 5.13185,0.11703 l -0.11703,8.31577 z" />
    <path
       style="fill:#f68712;fill-opacity:1;fill-rule:nonzero;stroke:none;stroke-width:1.06666672"
       d="m 488.03333,715.43333 c -1.70154,0.0446 -3.50049,0.36528 -5.4,0.96667 -5.56211,1.71323 -9.24018,5.45389 -11.13333,11.13333 -1.92444,5.6247 -1.39006,13.51625 1.7,23.6 1.31425,4.24786 2.86534,7.99465 4.63333,11.23334 1.77581,3.26998 3.88849,5.94834 6.26667,7.96666 2.41728,1.95574 5.1392,3.21906 8.16667,3.76667 3.09006,0.5789 6.55111,0.32446 10.4,-0.83333 2.9023,-0.884 5.30686,-2.02521 7.2,-3.43334 1.92444,-1.43159 3.29797,-2.61192 4.03333,-3.43333 l -4.03333,-6.83333 c -0.57889,0.67276 -1.6412,1.61091 -3.16667,2.8 -1.55677,1.16562 -3.34835,2.05851 -5.36667,2.7 -2.44075,0.73535 -4.63032,0.8966 -6.5,0.46666 -1.79927,-0.45374 -3.42725,-1.39187 -4.86666,-2.8 -1.46289,-1.37683 -2.79901,-3.08373 -3.93334,-5.13333 -0.31839,-0.60401 -0.60346,-1.24134 -0.9,-1.9 l -0.26666,0.0667 -0.66667,-2.3 c -0.33938,-0.89989 -0.66743,-1.84764 -0.96667,-2.83334 l 0.13334,-0.0333 -2.16667,-7.46666 -0.16667,0.0667 c -1.40816,-5.10055 -1.82649,-9.36947 -1.33333,-12.73333 0.45373,-3.39516 2.20586,-5.55138 5.23333,-6.46667 2.90231,-0.94658 5.3776,-0.0931 7.33334,2.56667 1.92444,2.6285 3.74935,6.45421 5.4,11.5 l -11.86667,3.66667 2.16667,7.43333 21.3,-6.6 c -0.2422,-0.88399 -0.5143,-1.74526 -0.73334,-2.56667 -0.24251,-0.79794 -0.52242,-1.60409 -0.73333,-2.43333 -2.6285,-8.37054 -5.96541,-14.48445 -10.03333,-18.33333 -2.7483,-2.62997 -5.98993,-3.89814 -9.73334,-3.8 z"
       id="path10940"
       inkscape:connector-curvature="0" />
    <path
       inkscape:connector-curvature="0"
       id="path10942"
       style="fill:#f68712;fill-opacity:1;fill-rule:nonzero;stroke:none;stroke-width:1.06666672"
       d="m 505.87899,681.85177 2.07307,5.01449 c 1.40813,3.36386 2.6598,6.90766 3.79413,10.63137 1.15779,3.76283 2.13566,7.54913 2.92578,11.36672 l -4.39649,1.83839 c -2.01832,-3.33256 -3.94277,-6.72772 -5.74204,-10.14635 -1.86967,-3.39514 -3.48902,-6.84506 -4.88933,-10.2715 l -2.0809,-5.00668 z" />
    <path
       inkscape:connector-curvature="0"
       id="path10944"
       style="fill:#f68712;fill-opacity:1;fill-rule:nonzero;stroke:none;stroke-width:1.06666672"
       d="m 554.4594,743.69987 c 2.41729,-1.28295 3.94277,-2.9336 4.52949,-4.88933 0.5476,-2.01049 0.27411,-4.21656 -0.86053,-6.59473 -0.67278,-1.37683 -1.52547,-2.44858 -2.56593,-3.18394 -0.97786,-0.79011 -2.13566,-1.36901 -3.41861,-1.7054 -1.2282,-0.39865 -2.54245,-0.64148 -3.91147,-0.73534 -1.40813,-0.0626 -2.87885,-0.15646 -4.40432,-0.2422 -1.37683,-0.0626 -2.80842,-0.27412 -4.27913,-0.6102 -1.52548,-0.39866 -2.9962,-0.97787 -4.39649,-1.71322 -1.37685,-0.79794 -2.6911,-1.7758 -3.91147,-2.9336 -1.19691,-1.18908 -2.32341,-2.81625 -3.30128,-4.77198 -2.11219,-4.21657 -2.47987,-8.30796 -1.10303,-12.21943 1.31425,-3.97405 4.21655,-7.11887 8.68346,-9.41099 1.95573,-0.88398 3.93493,-1.502 5.8672,-1.83838 1.86185,-0.39115 3.4812,-0.61019 4.88933,-0.61019 l 1.46288,7.70559 c -1.46288,-0.0626 -2.90231,0.0312 -4.27914,0.2422 -1.28296,0.24281 -2.62851,0.76664 -4.02881,1.46288 -2.01832,0.97786 -3.33257,2.47987 -3.91146,4.40432 -0.64149,1.89314 -0.42996,3.94275 0.61018,6.1097 0.67277,1.31425 1.49418,2.3547 2.44076,3.05876 0.91527,0.73536 1.92444,1.28297 3.05876,1.58807 1.12651,0.33669 2.32342,0.64147 3.54379,0.85269 1.28296,0.18776 2.62851,0.30478 4.03664,0.36799 1.52547,0.0939 3.11352,0.30479 4.76416,0.6102 1.68193,0.25032 3.30128,0.70406 4.76417,1.34553 1.53329,0.67278 2.96488,1.61935 4.27915,2.81626 1.37683,1.22038 2.5972,2.9649 3.66895,5.13185 2.16695,4.49036 2.65979,8.76951 1.46289,12.82961 -1.22038,4.09921 -4.42778,7.40049 -9.52833,9.90383 -2.62852,1.31425 -5.16314,2.14349 -7.58043,2.44858 -2.44858,0.33607 -4.34173,0.48502 -5.62468,0.48502 l -1.83057,-7.94809 c 1.18908,0 2.83972,-0.0563 4.88933,-0.2422 2.01831,-0.14895 4.02881,-0.73536 5.98454,-1.71323 z" />
    <path
       inkscape:connector-curvature="0"
       id="path10946"
       style="fill:#f68712;fill-opacity:1;fill-rule:nonzero;stroke:none;stroke-width:1.06666672"
       d="m 575.82383,672.19826 11.85957,-8.31577 4.639,6.60256 -11.85174,8.31577 18.21178,25.90956 c 2.16696,3.26998 4.33391,5.16313 6.47739,5.62468 2.10437,0.43058 4.15398,-0.0626 6.10972,-1.47071 0.94657,-0.69623 1.83839,-1.52547 2.56592,-2.44076 0.70406,-0.94657 1.25167,-1.89314 1.58805,-2.81625 l 5.74986,5.13967 c -1.40813,3.17612 -3.45774,5.77332 -6.10971,7.69777 -4.49819,3.02748 -8.71475,4.09921 -12.59492,3.17611 -3.91147,-0.94658 -7.88552,-4.3339 -11.97692,-10.14635 l -31.16656,-44.61419 6.71989,-6.71989 z" />
    <path
       inkscape:connector-curvature="0"
       id="path10948"
       style="fill:#f68712;fill-opacity:1;fill-rule:nonzero;stroke:none;stroke-width:1.06666672"
       d="m 630.27926,703.7638 -55.1282,-62.58341 5.99236,-7.33008 18.32915,20.77765 c 0.73534,-1.19691 1.65063,-2.47987 2.69108,-3.79413 1.07174,-1.28296 2.26083,-2.50333 3.54378,-3.66113 1.80711,-1.53323 3.76284,-2.72231 5.8672,-3.54372 2.04962,-0.79794 4.24787,-1.04046 6.60256,-0.73536 2.386,0.24283 4.92062,1.28297 7.58042,3.05088 2.74586,1.71323 5.64816,4.31043 8.67564,7.70559 l 22.98377,26.03472 -6.97023,6.23488 -22.49093,-25.5497 c -3.76284,-4.21656 -7.00152,-6.84506 -9.77867,-7.82293 -2.83972,-0.94658 -5.77332,-0.14833 -8.8008,2.44858 -1.61934,1.46289 -3.1761,3.35603 -4.64682,5.61686 l 32.5121,36.91643 z" />
    <path
       style="fill:#f68712;fill-opacity:1;fill-rule:nonzero;stroke:none;stroke-width:1.06666672"
       d="m 647,611.06667 c -4.24023,-0.0139 -8.11527,1.93066 -11.56667,5.83333 -3.8179,4.33391 -5.04351,9.43076 -3.66666,15.26667 1.31425,5.8672 5.96177,12.30635 13.93333,19.3 3.26998,2.87883 6.56131,5.23032 9.8,7.1 3.18394,1.79927 6.30994,2.9796 9.4,3.43333 3.14482,0.49284 6.16231,0.20507 9.03333,-0.86667 2.90232,-1.04046 5.70484,-3.08034 8.33334,-6.1 2.01831,-2.3547 3.48471,-4.66841 4.4,-6.86666 0.94658,-2.17478 1.4728,-3.80276 1.56666,-4.86667 L 681.4,639.5 c -0.24251,0.91529 -0.77043,2.25754 -1.46667,4.03333 -0.67278,1.79928 -1.68982,3.47453 -3.06666,5 -1.71322,1.95574 -3.45753,3.24426 -5.23334,3.8 -1.79927,0.57889 -3.70889,0.66329 -5.63333,0.23334 -1.95573,-0.39897 -3.91093,-1.13438 -5.86667,-2.3 -1.05221,-0.61991 -2.1158,-1.32552 -3.2,-2.1 l -0.16666,0.2 -1.9,-1.73334 c -0.32401,-0.25048 -0.63943,-0.5063 -0.96667,-0.76666 l 0.0667,-0.0667 -5.66667,-5.26667 -0.0333,0.0667 c -0.43153,-0.41035 -0.83302,-0.82922 -1.23333,-1.23333 l -0.13334,-0.13334 -1.2,-1.1 0.0667,-0.0667 c -2.47586,-2.6861 -4.23159,-5.22443 -5.3,-7.6 -1.43942,-3.14482 -1.14553,-5.94734 0.96667,-8.33334 2.04178,-2.26083 4.60994,-2.75575 7.7,-1.56666 3.11353,1.16561 6.6671,3.48546 10.63333,6.96666 l -8.26667,9.36667 5.66662,5.23333 14.83333,-16.8 c -0.67277,-0.64148 -1.32518,-1.24692 -1.96667,-1.83333 -0.67276,-0.54761 -1.32518,-1.15443 -1.96666,-1.73333 -6.57127,-5.78116 -12.59062,-9.23438 -18.06667,-10.4 -1.01942,-0.21122 -2.02148,-0.2968 -3,-0.3 z"
       id="path10950"
       inkscape:connector-curvature="0" />
    <path
       inkscape:connector-curvature="0"
       id="path10952"
       style="fill:#f68712;fill-opacity:1;fill-rule:nonzero;stroke:none;stroke-width:1.06666672"
       d="m 726.56394,593.05372 c -4.58425,7.66647 -10.93647,11.82045 -19.06449,12.46193 -8.22191,0.67277 -18.24309,-2.59722 -30.07136,-9.77867 -6.07843,-3.62984 -10.90517,-7.33009 -14.42549,-10.99905 -3.4812,-3.63766 -5.89067,-7.33008 -7.20493,-10.99904 -1.37683,-3.63766 -1.7758,-7.21275 -1.2282,-10.63137 0.49254,-3.48902 1.77581,-6.90765 3.79412,-10.27151 1.65065,-2.75367 3.51251,-5.13184 5.61688,-7.08757 2.14348,-1.92445 4.24785,-3.36386 6.36004,-4.27915 l 5.37436,6.84507 c -1.92445,0.91528 -3.69243,2.04961 -5.2492,3.41862 -1.61934,1.31425 -3.12134,3.12135 -4.52947,5.38218 -2.98836,4.98321 -3.08224,9.87254 -0.24219,14.668 2.78496,4.73287 8.52699,9.71608 17.23392,14.9105 8.8008,5.3196 16.31863,8.2532 22.49093,8.8008 6.17229,0.49317 10.88169,-1.95573 14.05781,-7.33008 1.53329,-2.59721 2.47986,-4.88933 2.81626,-6.84506 0.39114,-2.01833 0.51631,-4.06793 0.35985,-6.11754 l 8.19061,1.59587 c 0.15646,2.13567 -0.0864,4.60772 -0.72753,7.45527 -0.58641,2.87101 -1.77581,5.80461 -3.55161,8.8008 z" />
    <path
       style="fill:#f68712;fill-opacity:1;fill-rule:nonzero;stroke:none;stroke-width:1.06666672"
       d="m 703.93333,522.3 c -1.83776,6.8e-4 -3.53932,0.29275 -5.1,0.9 -4.21655,1.55676 -7.35039,4.69841 -9.4,9.4 -1.03263,2.29212 -1.76943,4.56639 -2.2,6.73333 -0.39928,2.14349 -0.63946,4.22284 -0.73333,6.23334 l 8.33333,1.33333 c -0.0626,-1.76798 0.0612,-3.44323 0.36667,-5 0.33638,-1.53329 0.79185,-3.06261 1.43333,-4.53333 1.22038,-2.83973 3.00584,-4.67077 5.26667,-5.5 2.19824,-0.79012 5.21574,-0.3486 9.03333,1.33333 l 2.73334,1.16667 0.0333,-0.0333 2.13333,0.96666 7.1,3.16667 4.53333,2 V 540.5 l 12.1,5.43333 c -0.43026,2.386 -1.03539,4.46535 -1.83333,6.23334 -1.31425,2.87102 -3.09189,4.78676 -5.26667,5.73333 -2.16695,0.97787 -4.80585,0.84758 -7.83333,-0.46667 -1.76798,-0.79794 -3.15547,-1.72213 -4.13333,-2.7 -1.04046,-0.94657 -1.72385,-2.00887 -1.96667,-3.16666 -0.30482,-1.13433 -0.38979,-2.35242 -0.23333,-3.66667 0.17993,-1.28297 0.51906,-2.57962 1.06666,-3.8 0.25784,-0.5375 0.56768,-1.06857 0.86667,-1.6 l -7,-3.1 c -0.589,1.02953 -1.10414,2.04892 -1.53333,3 -1.04045,2.38599 -1.63947,4.70585 -1.73334,6.96667 -0.14863,2.19825 0.0918,4.35447 0.73334,6.46666 0.67276,2.13567 1.88473,4.05141 3.56666,5.73334 1.71323,1.71322 3.94633,3.20309 6.7,4.4 2.87102,1.31425 5.56333,1.96666 8.06667,1.96666 2.44076,-0.0626 4.71502,-0.55138 6.73333,-1.46666 2.01832,-0.94657 3.80378,-2.3674 5.26667,-4.16667 1.52547,-1.86187 2.82826,-4.06537 3.9,-6.6 1.04045,-2.3547 1.8939,-4.80483 2.56667,-7.43333 0.70406,-2.6598 1.27004,-5.37558 1.7,-8.06667 l -34.93334,-15.43333 c -3.79902,-1.66238 -7.27039,-2.46781 -10.33333,-2.46667 z"
       id="path10954"
       inkscape:connector-curvature="0" />
    <path
       inkscape:connector-curvature="0"
       id="path10956"
       style="fill:#f68712;fill-opacity:1;fill-rule:nonzero;stroke:none;stroke-width:1.06666672"
       d="m 703.98694,499.08464 4.39649,-13.69013 7.70559,2.44075 -4.40431,13.69014 30.07135,9.66132 c 3.75501,1.22037 6.63386,1.43159 8.5583,0.61019 1.89315,-0.88399 3.1761,-2.47206 3.91146,-4.76417 0.39115,-1.13433 0.54761,-2.32342 0.48503,-3.55161 0,-1.18909 -0.0626,-2.22954 -0.12518,-3.05094 l 7.58043,0.36736 c 0.79794,3.41862 0.67277,6.75119 -0.36736,9.89601 -1.65064,5.13967 -4.33391,8.52699 -8.06545,10.14634 -3.72371,1.55676 -8.94943,1.28296 -15.64587,-0.8527 l -51.82693,-16.7489 1.34555,-9.41098 16.38122,5.257 z" />
    <path
       inkscape:connector-curvature="0"
       id="path10958"
       style="fill:#f68712;fill-opacity:1;fill-rule:nonzero;stroke:none;stroke-width:1.06666672"
       d="m 771.06078,475.18558 c -0.82924,3.84888 -2.29212,6.87635 -4.40431,9.05113 -2.04179,2.19824 -4.52166,3.84888 -7.45526,4.88934 -2.98836,0.97786 -6.38351,1.43159 -10.14634,1.33772 -3.72372,-0.0563 -7.69777,-0.61019 -11.85174,-1.58806 -9.26236,-2.01831 -16.13872,-5.31177 -20.5352,-9.89601 -4.46691,-4.55295 -5.9298,-10.27151 -4.40432,-17.11657 0.43058,-2.01833 1.04045,-3.78631 1.83838,-5.25702 0.82141,-1.52547 1.79928,-2.96489 2.9336,-4.27914 l 7.08759,4.03662 c -1.86186,1.89316 -3.11353,4.18527 -3.78631,6.84507 -0.79794,3.91147 0.33608,7.18146 3.41863,9.77867 3.12135,2.53463 8.33924,4.61553 15.64587,6.23488 3.12135,0.73536 6.02365,1.25167 8.67563,1.46289 2.6285,0.18775 4.9832,0.0626 7.09539,-0.35985 2.0418,-0.46125 3.75501,-1.34555 5.13186,-2.57375 1.40812,-1.18909 2.35469,-2.9649 2.80842,-5.24919 0.33671,-1.5333 0.46187,-2.96489 0.368,-4.27914 -0.0626,-1.28297 -0.30479,-2.62851 -0.73536,-4.03664 l 7.58043,-0.48502 c 0.5476,1.30643 0.91527,3.01965 1.10303,5.13184 0.2109,2.04179 0.0939,4.18527 -0.36799,6.35223 z" />
    <path
       inkscape:connector-curvature="0"
       id="path10960"
       style="fill:#f68712;fill-opacity:1;fill-rule:nonzero;stroke:none;stroke-width:1.06666672"
       d="m 773.6267,453.86026 -82.87616,-8.8008 -0.48501,-9.41099 27.62277,2.9336 c -0.30478,-1.43941 -0.51631,-2.99618 -0.61019,-4.64682 -0.0626,-1.68193 -0.0312,-3.42645 0.12516,-5.13185 0.2422,-2.3547 0.88399,-4.52947 1.83058,-6.4852 0.97786,-2.0105 2.47204,-3.72373 4.39649,-5.13185 1.90097,-1.37684 4.46689,-2.3547 7.70559,-2.9336 3.26998,-0.54761 7.18145,-0.57889 11.7344,-0.11703 l 34.46784,3.66113 -0.97787,9.41099 -33.73249,-3.54379 c -5.68728,-0.64148 -9.93513,-0.33607 -12.71227,0.86053 -2.75367,1.15779 -4.34173,3.72371 -4.77199,7.69776 -0.2109,2.14348 -0.0939,4.49036 0.36799,7.08758 l 49.01851,5.25701 -1.10304,9.29365 z" />
    <path
       inkscape:connector-curvature="0"
       id="path10962"
       style="fill:#f68712;fill-opacity:1;fill-rule:nonzero;stroke:none;stroke-width:1.06666672"
       d="m 708.35214,396.40864 c 0,1.95573 0.39867,3.73154 1.10304,5.25701 0.67277,1.46288 1.52547,2.87101 2.56592,4.15398 l -7.33009,3.7863 c -1.37683,-2.0105 -2.47987,-4.18527 -3.30128,-6.4774 -0.89181,-2.34688 -1.34554,-4.94408 -1.34554,-7.82293 0,-3.32475 0.51631,-6.141 1.46288,-8.43312 0.91529,-2.3547 2.14349,-4.27915 3.66896,-5.74203 1.55677,-1.43942 3.36386,-2.56593 5.38218,-3.30128 2.04179,-0.70406 4.18527,-1.10304 6.35222,-1.10304 2.53464,0 4.82675,0.43058 6.84507,1.22821 1.95573,0.72753 3.81759,1.73669 5.49952,2.9336 1.71323,1.15779 3.39516,2.40946 5.01451,3.7863 1.65063,1.31425 3.33256,2.59722 5.00667,3.78629 1.71322,1.16562 3.57507,2.14349 5.50734,2.9336 1.95573,0.73536 4.24785,1.07175 6.84507,0.97787 0.33607,0 0.75882,0 1.22038,0 0.42243,0 0.79011,-0.0312 1.09521,-0.11765 v 8.55046 c -1.36901,0.25034 -2.87102,0.36737 -4.52166,0.36737 -2.59721,0.0939 -4.82674,-0.18024 -6.71989,-0.8527 -1.92445,-0.70407 -3.70025,-1.61935 -5.25702,-2.69109 -1.61935,-1.04045 -3.11352,-2.19825 -4.52165,-3.41862 -1.37684,-1.28296 -2.80844,-2.44858 -4.27915,-3.42644 -1.52547,-1.04046 -3.1761,-1.89315 -4.88933,-2.56593 -1.68193,-0.70407 -3.70025,-1.10303 -5.99236,-1.10303 -2.98837,0 -5.31178,0.89182 -6.96241,2.57375 -1.61935,1.65063 -2.44859,3.88017 -2.44859,6.71989 z m 64.29669,-6.97024 c 1.65064,0 3.14482,0.64148 4.52166,1.83839 1.28296,1.1578 1.95573,2.74586 1.95573,4.76417 0,1.95573 -0.67277,3.57508 -1.95573,4.76417 -1.28296,1.16561 -2.74585,1.71322 -4.3965,1.71322 -1.77579,0 -3.33256,-0.54761 -4.64681,-1.71322 -1.37684,-1.12651 -2.08091,-2.68327 -2.08091,-4.63901 0,-2.01831 0.67278,-3.66895 1.95574,-4.88933 1.31426,-1.19691 2.87101,-1.83839 4.64682,-1.83839 z" />
    <g
       transform="matrix(7.334,0,0,7.334,-3389.5729,-4201.9217)"
       id="g10812-6-1">
      <path
         inkscape:connector-curvature="0"
         id="path10814-4-6"
         style="fill:none;stroke:#f6ffff;stroke-width:0.65733886;stroke-linecap:butt;stroke-linejoin:miter;stroke-miterlimit:4;stroke-dasharray:none;stroke-opacity:1"
         d="m 518.02827,677.70377 -0.10975,-2.05128"
         sodipodi:nodetypes="cc" />
    </g>
    <path
       inkscape:connector-curvature="0"
       id="path10814-4-6-5-1-3"
       style="fill:none;stroke:#f6ffff;stroke-width:4.82092285;stroke-linecap:butt;stroke-linejoin:miter;stroke-miterlimit:4;stroke-dasharray:none;stroke-opacity:1"
       d="M 383.69902,91.92415 383.45364,76.860581"
       sodipodi:nodetypes="cc" />
  </g>
</svg>
