<?xml version="1.0" encoding="UTF-8" standalone="no"?>
<!-- Created with Inkscape (http://www.inkscape.org/) -->

<svg
   xmlns:dc="http://purl.org/dc/elements/1.1/"
   xmlns:cc="http://creativecommons.org/ns#"
   xmlns:rdf="http://www.w3.org/1999/02/22-rdf-syntax-ns#"
   xmlns:svg="http://www.w3.org/2000/svg"
   xmlns="http://www.w3.org/2000/svg"
   xmlns:xlink="http://www.w3.org/1999/xlink"
   xmlns:sodipodi="http://sodipodi.sourceforge.net/DTD/sodipodi-0.dtd"
   xmlns:inkscape="http://www.inkscape.org/namespaces/inkscape"
   width="200mm"
   height="200mm"
   id="svg14479"
   version="1.1"
   inkscape:version="0.92.2 (5c3e80d, 2017-08-06)"
   sodipodi:docname="logo_stencil.svg"
   inkscape:export-filename="/home/cefn/Documents/shrimping/git/projects/vector/logo_learn.png"
   inkscape:export-xdpi="127"
   inkscape:export-ydpi="127">
  <defs
     id="defs14481">
    <path
       inkscape:connector-curvature="0"
       id="path4162"
       d="M 80.332985,535.83518 A 79.6851,79.6851 0 0 0 193.73799,442.5174"
       style="color:#000000;display:inline;overflow:visible;visibility:visible;fill:none;stroke:none;stroke-width:1.29128397;marker:none;enable-background:accumulate" />
  </defs>
  <sodipodi:namedview
     id="base"
     pagecolor="#ffffff"
     bordercolor="#666666"
     borderopacity="1.0"
     inkscape:pageopacity="0.0"
     inkscape:pageshadow="2"
     inkscape:zoom="0.34400039"
     inkscape:cx="-55.786163"
     inkscape:cy="537.35409"
     inkscape:document-units="px"
     inkscape:current-layer="g4908"
     showgrid="false"
     inkscape:window-width="1366"
     inkscape:window-height="719"
     inkscape:window-x="0"
     inkscape:window-y="0"
     inkscape:window-maximized="1"
     fit-margin-top="0"
     fit-margin-left="0"
     fit-margin-right="0"
     fit-margin-bottom="0"
     units="mm" />
  <metadata
     id="metadata14484">
    <rdf:RDF>
      <cc:Work
         rdf:about="">
        <dc:format>image/svg+xml</dc:format>
        <dc:type
           rdf:resource="http://purl.org/dc/dcmitype/StillImage" />
        <dc:title></dc:title>
      </cc:Work>
    </rdf:RDF>
  </metadata>
  <g
     inkscape:label="Layer 1"
     inkscape:groupmode="layer"
     id="layer1"
     transform="translate(-31.537462,-20.944473)">
    <g
       style="display:inline;stroke-width:0.6166997"
       id="g4908"
       transform="matrix(4.7192144,-0.54937968,0.54938582,4.7191616,-439.46782,-1736.6592)">
      <g
         id="g69"
         transform="translate(2.0800881,-1.2512458)">
        <path
           inkscape:connector-curvature="0"
           id="path10810"
           d="m 502.89289,165.3215 -5.09629,0.83029 c 3.44439,21.24568 15.02856,37.10889 29.11755,51.02013 14.089,13.91124 30.72279,26.03728 44.8645,39.96863 10.60647,10.44633 20.98297,22.32998 27.22792,35.04413 6.16116,12.54358 8.33633,25.72674 3.12077,39.73959 -9.1129,9.0975 -21.30422,17.42622 -34.12795,21.75943 -2.70356,0.91354 -5.43485,1.63625 -8.15979,2.17594 -4.7045,-2.55475 -8.83212,-6.27957 -12.19673,-10.65067 -6.20383,-8.0608 -11.54511,-16.65742 -16.86356,-25.1665 -2.68895,1.01643 -5.68633,1.32478 -8.70376,0.74441 -3.33961,-0.64176 -6.23319,-2.2796 -8.4461,-4.5523 l 2.92034,-2.17594 c 1.77966,1.7932 4.09256,3.09548 6.75688,3.60748 7.02294,1.35082 13.82353,-3.24913 15.17434,-10.27847 1.37003,-7.02294 -3.22352,-13.82352 -10.27847,-15.17434 -0.87786,-0.16885 -1.7732,-0.23935 -2.63404,-0.22904 -6.02585,0.0722 -11.38696,4.35684 -12.56893,10.50751 -0.49433,2.57004 -0.1874,5.10382 0.74441,7.35813 l -3.03488,2.26183 c -1.42548,-2.8668 -2.01581,-6.16764 -1.51743,-9.53407 -3.61977,3.18088 -8.61223,4.72645 -13.68554,3.75065 -2.67477,-0.514 -5.05545,-1.68483 -7.04318,-3.29256 l 3.17802,-2.34772 c 1.34089,0.90919 2.88895,1.56449 4.58094,1.88963 6.67463,1.28383 13.14612,-3.08239 14.42994,-9.76311 1.30814,-6.68071 -3.05806,-13.14612 -9.76312,-14.42994 -0.83432,-0.16047 -1.67274,-0.23884 -2.49088,-0.22904 -5.727,0.0685 -10.81571,4.15186 -11.93905,9.99216 -0.61087,3.17882 0.0724,6.30061 1.66058,8.84692 l -3.06349,2.29047 c -2.21222,-3.38708 -3.16715,-7.5891 -2.34773,-11.85316 0.98664,-5.13431 4.33988,-9.22929 8.70377,-11.39507 -12.1953,-2.10915 -25.29379,-4.58084 -38.10763,-4.5523 -8.71882,0.0194 -17.29602,1.2106 -25.30965,4.49503 -7.31521,22.2018 -7.86243,47.46482 -1.83237,70.60362 0.80344,-0.41412 1.66575,-0.62644 2.6054,-0.60125 12.71265,0.33066 22.41962,0.2143 30.94993,1.43155 2.09229,8.70115 5.06016,14.86279 8.81829,19.44033 4.37507,5.32899 9.75571,8.36865 15.46064,10.87971 11.40988,5.02212 24.3216,8.1484 38.27942,23.50591 l 3.75064,-3.37844 c -14.7874,-16.27029 -29.1935,-19.9817 -39.99727,-24.73703 -5.40188,-2.37767 -9.87171,-4.97093 -13.57101,-9.4768 -2.88215,-3.51057 -5.34305,-8.29576 -7.24359,-15.2316 3.54927,0.82795 6.93867,2.02597 10.33572,3.66474 l -0.85892,0.34357 c 1.30573,3.21771 4.33141,5.43552 8.10252,7.90211 3.77112,2.46659 8.40836,4.96347 13.02703,7.41539 4.61867,2.45191 9.23405,4.86045 12.9125,7.10044 3.67845,2.23999 6.37404,4.51182 7.01455,5.58301 9.79383,16.44378 24.63144,21.9812 40.25495,25.56733 15.6235,3.58612 32.2419,5.51165 47.29811,14.45856 l 2.57678,-4.32325 c -16.17514,-9.61182 -33.50391,-11.56499 -48.72966,-15.05981 -15.22576,-3.49483 -28.12885,-8.24389 -37.04829,-23.21961 -1.69782,-2.83944 -4.83192,-4.95428 -8.73241,-7.32949 -3.90048,-2.3752 -8.59916,-4.80178 -13.19881,-7.24359 -2.78308,-1.47746 -5.50555,-2.9406 -8.01663,-4.38052 -4.64082,-7.39435 -5.32204,-9.67981 -3.66475,-20.58557 10.70386,10.91889 5.92122,27.38638 36.44705,32.00927 12.1078,1.84312 20.84612,1.23011 33.89889,-2.86309 l 3.17803,-2.03278 c 8.07005,3.09888 16.86425,3.55063 25.28102,1.60332 9.9644,-2.29921 21.37659,-4.96696 31.23623,-10.02078 9.85963,-5.05384 18.26814,-12.71732 21.32997,-24.56525 2.24024,-8.70452 -0.0566,-16.70763 -3.80791,-23.87811 -3.7513,-7.17049 -8.93178,-13.71146 -12.99839,-19.98432 -22.95626,-35.33282 -53.5032,-65.85479 -62.58699,-105.90542 l -5.03902,1.14523 c 9.50698,41.91648 40.72976,72.86718 63.27412,107.56601 4.25936,6.57018 9.33771,13.02404 12.76935,19.58349 3.43164,6.55945 5.22212,13.02109 3.37844,20.18473 -2.63092,10.18048 -9.60101,16.59688 -18.6673,21.24407 -9.06629,4.64719 -20.12284,7.29786 -30.06237,9.59133 -7.40596,1.71345 -15.04369,1.325 -22.04574,-1.31702 2.55341,-0.5528 5.09327,-1.24735 7.58718,-2.09005 13.94962,-4.71365 26.88649,-13.56364 36.56156,-23.33413 l 0.3722,-0.40082 0.20042,-0.48673 c 6.05864,-15.69476 3.5581,-30.86612 -3.12076,-44.46367 -6.67886,-13.59756 -17.46234,-25.81375 -28.25862,-36.44704 -14.51446,-14.29855 -31.1619,-26.41027 -44.86451,-39.94 -13.70261,-13.52974 -24.43961,-28.3378 -27.65738,-48.18568 z m -101.35313,97.86015 c -0.65406,-0.0134 -1.31451,5.5e-4 -1.97552,0.0286 -23.36579,1.02433 -47.34786,3.77028 -70.00237,9.79174 1.78955,5.7963 1.34227,11.45163 0.77303,16.8063 -0.61004,5.7384 -1.34827,11.17679 -0.31493,16.43409 0.002,0.009 -0.002,0.0193 0,0.0286 3.75114,18.71259 8.13382,36.90207 13.34196,54.88529 0.32372,0.60458 0.66271,1.20788 1.05934,1.80375 2.1233,3.17823 5.79547,3.71851 8.50335,4.32326 0.42502,0.0978 0.86187,0.16479 1.28839,0.25767 -1.73347,1.49331 -3.57209,3.1456 -5.6689,5.03902 -5.85957,5.29122 -12.84527,11.86567 -19.81253,18.26647 -6.96727,6.4008 -13.91139,12.62105 -19.66938,17.14987 -2.87898,2.26441 -5.46937,4.12211 -7.52991,5.32533 -2.06053,1.20322 -3.7118,1.58685 -3.89379,1.5747 l -0.31494,4.69542 c 2.26689,0.15141 4.20815,-0.81659 6.58509,-2.20458 2.37695,-1.38798 5.0683,-3.35607 8.04526,-5.69753 5.82215,-4.57929 12.65482,-10.67049 19.49759,-16.94945 -17.28515,20.48715 -32.03831,41.88562 -40.48398,62.84466 l 4.38051,1.77512 c 7.75003,-19.23273 21.22757,-39.22422 37.22007,-58.57867 -4.48948,8.30366 -8.78111,17.15322 -12.74071,26.16857 -11.92364,27.14812 -20.77341,55.41515 -22.76151,73.38081 l 5.0104,0.57261 c 1.86878,-16.88741 10.61728,-45.11772 22.3893,-71.92063 8.61033,-19.60428 18.90943,-38.51405 29.08893,-51.87906 2.61358,-2.76625 5.2453,-5.51043 7.9021,-8.21705 0.0374,0.005 0.0771,-0.005 0.11452,0 -7.60513,15.55252 -16.22296,37.82549 -23.01918,60.43968 -7.96556,26.50514 -13.46382,53.21304 -11.30918,70.48909 l 5.0104,-0.60116 c -1.93741,-15.53434 3.26217,-42.22317 11.13739,-68.42767 6.10774,-20.32326 13.78752,-40.47425 20.70008,-55.37202 1.32592,1.90187 3.1308,3.65418 5.0963,5.4685 3.04044,2.80658 6.54259,5.65014 9.36228,8.41746 2.81968,2.76731 4.84139,5.50957 5.29669,7.38675 0.22766,0.93858 0.18551,1.6104 -0.20041,2.40499 -0.38591,0.79459 -1.21635,1.77253 -2.86308,2.83445 -8.36631,5.39638 -11.20182,4.83244 -14.97393,5.69753 -1.88605,0.43254 -3.97745,1.40002 -6.01247,3.40708 -2.03502,2.00704 -4.2095,5.01453 -7.21497,9.93489 l 4.32326,2.63403 c 2.91089,-4.76552 4.94691,-7.48696 6.44194,-8.96144 1.49502,-1.47448 2.26835,-1.76087 3.57885,-2.06142 2.62099,-0.60109 7.56742,-0.60187 16.57724,-6.41331 2.17992,-1.40575 3.75929,-2.99862 4.66683,-4.86724 0.90754,-1.86862 1.05224,-3.95267 0.60125,-5.81205 -0.90199,-3.71876 -3.6399,-6.78886 -6.69961,-9.79175 -3.05971,-3.00289 -6.57563,-5.88038 -9.44817,-8.53199 -2.87256,-2.65159 -4.9669,-5.1993 -5.3826,-6.52783 l -1.03071,0.31495 c 0.23546,-0.48123 0.48289,-0.96478 0.71577,-1.43155 16.1081,1.45934 32.58238,-1.06086 47.04045,-9.849 2.06224,-1.2542 3.7224,-3.24781 5.26806,-5.32533 12.72272,21.13545 39.03984,40.61753 57.37618,53.59691 l 0.68714,0.45809 h 0.8303 c 27.31282,-0.62241 54.48591,5.34452 81.19702,11.76727 4.85306,1.16761 7.76346,5.14232 10.90834,10.30709 3.14488,5.16478 6.28948,11.3306 12.19673,15.17434 l 2.74856,-4.23736 c -4.46064,-2.90245 -7.36174,-8.2167 -10.62203,-13.57102 -3.2603,-5.35431 -7.12512,-10.92962 -14.05774,-12.59755 -26.50178,-6.37242 -53.80235,-12.40932 -81.62648,-11.91043 -18.7478,-13.30142 -45.13599,-33.48808 -56.34546,-53.39649 0.0509,-0.0635 0.0921,-0.13784 0.14314,-0.20042 l -0.22904,0.0573 c -0.48252,-0.86261 -0.9509,-1.7158 -1.37428,-2.57677 l -0.71577,0.34357 c -6.26622,-24.45202 -5.6013,-51.0315 2.40499,-74.49741 -5.39661,-6.27379 -12.99465,-9.71003 -21.21545,-9.87764 z m -77.21733,11.28056 c -32.63852,9.51284 -62.11858,26.22509 -82.37089,55.02844 -0.19515,0.27602 -0.36679,0.56798 -0.51535,0.85892 19.15997,24.79095 41.69054,47.3298 70.11689,59.03677 4.34577,-3.69712 9.14024,-7.03836 14.34405,-9.9349 4.56913,-2.54662 10.06845,-4.8919 12.22536,-9.87763 0.42407,-0.9826 0.80697,-1.96975 1.14523,-2.97761 -5.76629,-19.43606 -10.551,-39.05506 -14.60172,-59.26581 -1.26994,-6.42113 -0.33899,-12.48208 0.25767,-18.09468 0.56042,-5.27161 0.86082,-10.12341 -0.60124,-14.7735 z m -83.25844,65.19239 c 0.40747,2.8161 0.70538,5.4295 -0.65851,7.1577 -8.50666,10.86513 -18.90987,21.02763 -22.18889,34.38562 -3.37474,13.66591 -4.24617,27.46663 -3.37843,41.25702 17.13079,15.33633 45.16909,23.62336 68.65671,19.98432 1.90718,-18.62739 10.06448,-35.47471 23.19097,-48.55788 -26.47581,-11.60189 -47.64042,-31.91023 -65.62185,-54.22678 z m -25.39555,91.9622 c 1.0164,8.68019 2.64526,17.35315 4.75273,25.96817 2.74424,11.22672 6.85591,21.77149 11.68137,31.98063 7.78144,3.1606 17.97359,4.52815 27.68601,3.92242 9.24442,-0.57656 18.0347,-2.98774 23.93537,-6.58509 -1.53602,-12.58098 -1.4451,-25.1173 -0.71577,-37.79269 -23.06871,3.18853 -48.96856,-3.66877 -67.33971,-17.49344 z m 69.08619,62.70151 c -6.93622,3.60175 -15.59351,5.54062 -24.53662,6.09837 -8.04138,0.50152 -16.30963,-0.15631 -23.79222,-2.11868 6.36526,12.30895 13.5412,24.24564 20.35652,36.36115 7.70626,0.0625 15.77924,-0.49767 22.38931,-1.88964 4.1231,-0.86825 7.65159,-2.09188 10.07805,-3.46432 2.42646,-1.37245 3.55447,-2.75273 3.89379,-3.97969 l 0.91619,0.25767 c -1.12903,-2.08066 -2.23939,-4.17932 -3.29254,-6.3274 -3.86842,-7.87741 -4.79518,-16.38977 -6.01248,-24.93746 z m 13.02702,37.7068 c -1.33636,1.52747 -3.00524,2.79955 -4.83861,3.83653 -3.4573,1.9555 -7.61757,3.26704 -12.22535,4.23736 -6.24118,1.31428 -13.28303,1.93822 -20.21337,2.06142 -2.26691,39.58037 -33.73995,63.45668 -56.03053,72.14968 15.29247,4.47926 26.9389,4.92704 36.56157,3.49297 4.97609,-6.664 11.56914,-17.20354 17.1785,-27.94369 3.89208,-7.45213 7.38265,-15.04501 9.70585,-21.55901 2.32318,-6.51401 3.34355,-12.09491 2.8917,-14.65898 l 4.98177,-0.88756 c 0.80802,4.58528 -0.67914,10.38969 -3.12076,17.23575 -2.44162,6.84607 -5.99293,14.58644 -9.96353,22.1889 -4.61397,8.8343 -9.66225,17.37336 -14.25815,24.07852 3.94836,-1.04991 7.5635,-2.36234 10.99424,-3.75064 5.56187,-2.25318 11.43671,-4.95189 16.46273,-9.79174 5.57659,-8.58474 9.31862,-20.97832 9.41953,-40.11179 l 3.4357,0.0286 3.20666,-0.88755 c 3.72597,13.73953 8.47289,22.0997 19.15402,27.97232 0.0586,-0.1242 0.11282,-0.24813 0.17179,-0.37221 22.67767,8.84262 45.02788,-3.09754 59.38033,-20.84323 -17.6382,3.44028 -35.13652,-2.31904 -49.38818,-11.4237 -9.87712,-6.29541 -17.33916,-15.06477 -23.50591,-25.05198 z m -6.69961,46.12426 c -1.58043,11.86806 -4.91633,20.98727 -9.39091,28.02958 6.32796,5.04479 11.36329,9.57684 18.95361,14.54446 1.90446,-8.55945 4.45915,-16.85916 7.78758,-24.90882 -7.89086,-4.402 -13.36033,-10.23795 -17.35028,-17.66522 z"
           style="fill:#f68712;fill-opacity:1;fill-rule:nonzero;stroke:none;stroke-width:0.91618645"
           transform="matrix(0.20906633,0.02433839,-0.02433866,0.20906867,49.609964,373.77697)" />
        <g
           transform="matrix(0.35984729,0.04189151,-0.04189151,0.3598473,69.804197,394.48176)"
           id="g4874"
           style="font-style:normal;font-variant:normal;font-weight:normal;font-stretch:normal;font-size:53.17129898px;line-height:125%;font-family:'Ubuntu Condensed';-inkscape-font-specification:'Ubuntu Condensed,';text-align:center;letter-spacing:0px;word-spacing:0px;writing-mode:lr-tb;text-anchor:middle;display:inline;fill:#f68712;fill-opacity:1;stroke:none;stroke-width:0.6166997">
          <path
             inkscape:connector-curvature="0"
             id="path4876"
             style="font-style:normal;font-variant:normal;font-weight:normal;font-stretch:normal;font-size:53.17129898px;line-height:125%;font-family:'Ubuntu Condensed';-inkscape-font-specification:'Ubuntu Condensed,';text-align:center;writing-mode:lr-tb;text-anchor:middle;fill:#f68712;fill-opacity:1;stroke:none;stroke-width:0.6166997"
             d="m 28.028445,235.91562 1.828148,4.24934 q -4.379413,3.67849 -10.335997,7.86186 -5.977597,4.13453 -13.016106,8.49395 l -1.7861219,-4.15165 q 2.0161935,-1.09894 4.6809783,-2.70845 2.6159416,-1.5885 5.4062426,-3.30989 2.720444,-1.74922 5.294359,-3.4354 2.525073,-1.66517 4.289672,-2.94528 -2.142837,0.40094 -5.206872,1.08243 -3.085049,0.63265 -6.295613,1.37719 -3.231578,0.69569 -6.2257574,1.40501 -3.0430223,0.73033 -5.0739761,1.25679 l -1.70206904,-3.95628 q 1.82082174,-1.01488 4.43676364,-2.60338 2.5949286,-1.63734 5.4340719,-3.37974 2.769287,-1.77024 5.392046,-3.47743 2.622758,-1.7072 4.40837,-2.93847 -2.142836,0.40094 -5.137016,1.11027 -2.994179,0.70932 -6.1138743,1.53052 -3.1407082,0.77237 -6.0928612,1.57938 -3.00099595,0.82802 -5.185295,1.53621 l -1.7230823,-4.00512 q 8.0051159,-2.11264 15.1384388,-3.56081 7.11231,-1.49701 12.794542,-2.14724 l 1.765109,4.10281 q -1.346026,1.04215 -3.480355,2.53922 -2.204185,1.46923 -4.680415,3.11338 -2.497242,1.59532 -5.015498,3.14179 -2.5670992,1.56748 -4.6877952,2.82714 2.3728543,-0.67355 5.3181912,-1.36186 2.896493,-0.66729 5.814,-1.28575 2.917507,-0.61845 5.541956,-1.11082 2.554593,-0.52021 4.215816,-0.82972 z" />
          <path
             inkscape:connector-curvature="0"
             id="path4878"
             style="font-style:normal;font-variant:normal;font-weight:normal;font-stretch:normal;font-size:53.17129898px;line-height:125%;font-family:'Ubuntu Condensed';-inkscape-font-specification:'Ubuntu Condensed,';text-align:center;writing-mode:lr-tb;text-anchor:middle;fill:#f68712;fill-opacity:1;stroke:none;stroke-width:0.6166997"
             d="m 17.915085,205.86679 0.827166,4.55135 q -5.09364,2.60103 -11.8375491,5.33986 -6.75341639,2.68651 -14.5911504,5.35392 l -0.8081511,-4.44672 q 2.2114865,-0.61809 5.1696576,-1.58804 2.9058568,-0.96046 6.0114633,-2.01125 3.0437846,-1.09361 5.930626,-2.15869 2.8345267,-1.05557 4.8415327,-1.9067 -2.178143,-0.0905 -5.3169601,-0.11454 -3.1483244,-0.0763 -6.4440841,-0.0718 -3.3052674,-0.0478 -6.3822621,-0.029 -3.129309,0.0283 -5.2266147,0.0852 l -0.77012,-4.23746 q 2.0022286,-0.58006 4.9080854,-1.54051 2.8963492,-1.01276 6.05427005,-2.07307 3.09609885,-1.10311 6.03525465,-2.1777 2.9391559,-1.07458 4.9556689,-1.8734 -2.1781433,-0.0905 -5.2551379,-0.0717 -3.0769947,0.0188 -6.30142476,0.11842 -3.23393774,0.0473 -6.29191704,0.17074 -3.1102937,0.13293 -5.3978413,0.3325 l -0.779628,-4.28978 q 8.2750861,-0.26095 15.5514237,-0.0702 7.2668303,0.13846 12.9499453,0.78091 l 0.798644,4.39441 q -1.545684,0.71325 -3.961696,1.69276 -2.477834,0.93671 -5.2600471,1.98277 -2.7917204,0.99375 -5.5929485,1.93519 -2.8535425,0.95094 -5.2029567,1.70218 2.4635062,-0.12346 5.4881865,-0.13275 2.9723659,2.2e-4 5.9542396,0.0528 2.9818732,0.0525 5.6498612,0.16212 2.606165,0.0667 4.294464,0.13818 z" />
          <path
             inkscape:connector-curvature="0"
             id="path4880"
             style="font-style:normal;font-variant:normal;font-weight:normal;font-stretch:normal;font-size:53.17129898px;line-height:125%;font-family:'Ubuntu Condensed';-inkscape-font-specification:'Ubuntu Condensed,';text-align:center;writing-mode:lr-tb;text-anchor:middle;fill:#f68712;fill-opacity:1;stroke:none;stroke-width:0.6166997"
             d="m 14.859086,174.31441 -0.17225,4.62269 q -5.5342216,1.44324 -12.7096712,2.6657 -7.1734697,1.16933 -15.4017088,2.08652 l 0.16829,-4.51643 q 2.2927,-0.1274 5.3903358,-0.43764 3.0445012,-0.31223 6.3035201,-0.66966 3.2078643,-0.41256 6.2563253,-0.83105 2.9953266,-0.42047 5.1385226,-0.81948 -2.1075581,-0.55741 -5.1675761,-1.25672 -3.058038,-0.75244 -6.2774592,-1.4577 -3.2174414,-0.75838 -6.2263048,-1.40258 -3.0619977,-0.64618 -5.1223607,-1.0422 l 0.16037,-4.30389 q 2.080162,-0.13532 5.1246634,-0.44754 3.0464811,-0.36536 6.3586344,-0.72082 3.2609987,-0.41057 6.3625942,-0.82708 3.1015954,-0.41651 5.242811,-0.76239 -2.1075576,-0.5574 -5.116421,-1.2016 -3.0088634,-0.6442 -6.1791099,-1.2412 -3.1682667,-0.65014 -6.1810899,-1.18807 -3.0659572,-0.53991 -5.3428182,-0.83758 l 0.16235,-4.35702 q 8.1371643,1.52699 15.2017406,3.28006 7.0665561,1.69993 12.4780254,3.55103 l -0.16631,4.46329 q -1.663006,0.3637 -4.233257,0.80001 -2.6214061,0.38119 -5.5635983,0.80365 -2.9402123,0.36931 -5.87844469,0.68549 -2.99136681,0.31421 -5.44742971,0.54194 2.4323043,0.40988 5.38803327,1.0521 2.90259453,0.64023 5.80320923,1.33361 2.9006147,0.69337 5.4824232,1.37486 2.530653,0.62638 4.163961,1.0597 z" />
          <path
             inkscape:connector-curvature="0"
             id="path4882"
             style="font-style:normal;font-variant:normal;font-weight:normal;font-stretch:normal;font-size:53.17129898px;line-height:125%;font-family:'Ubuntu Condensed';-inkscape-font-specification:'Ubuntu Condensed,';text-align:center;writing-mode:lr-tb;text-anchor:middle;fill:#f68712;fill-opacity:1;stroke:none;stroke-width:0.6166997"
             d="m 15.440174,147.09604 q 1.202272,0.22389 1.977703,1.28773 0.785165,1.01158 0.522347,2.42294 -0.262818,1.41137 -1.35947,2.07252 -1.096653,0.66115 -2.298925,0.43727 -1.254546,-0.23362 -2.03971,-1.24519 -0.785165,-1.01158 -0.522347,-2.42294 0.262817,-1.41137 1.35947,-2.07252 1.106387,-0.71342 2.360932,-0.47981 z" />
          <path
             inkscape:connector-curvature="0"
             id="path4884"
             style="font-style:normal;font-variant:normal;font-weight:normal;font-stretch:normal;font-size:53.17129898px;line-height:125%;font-family:'Ubuntu Condensed';-inkscape-font-specification:'Ubuntu Condensed,';text-align:center;writing-mode:lr-tb;text-anchor:middle;fill:#f68712;fill-opacity:1;stroke:none;stroke-width:0.6166997"
             d="m 17.449669,135.92057 q 0.581478,-1.93503 -0.197141,-3.22388 -0.81424,-1.35509 -2.596504,-1.89066 -1.12028,-0.33664 -2.006525,-0.1588 -0.937166,0.16254 -1.747154,0.6409 -0.809989,0.47836 -1.528421,1.20631 -0.7693535,0.71265 -1.5896288,1.41 -0.7693534,0.71265 -1.6761704,1.32848 -0.9577387,0.60052 -2.0223369,1.00236 -1.1002178,0.33563 -2.3429149,0.40636 -1.27831674,0.005 -2.805972,-0.45456 -3.3099197,-0.99463 -4.7347108,-3.64359 -1.4094891,-2.69988 -0.3536469,-6.21348 0.4437598,-1.47674 1.2489882,-2.67829 0.7543065,-1.21685 1.4727381,-1.9448 l 3.22286791,2.02335 q -0.78465554,0.76358 -1.31470191,1.60366 -0.5300463,0.84008 -0.8513896,1.90944 -0.489666,1.6295 0.1871098,2.88775 0.625854,1.24296 2.40811844,1.77853 1.01843686,0.30604 1.88937886,0.17912 0.8200202,-0.14223 1.599405,-0.51874 0.743765,-0.44274 1.4672123,-1.00263 0.7387494,-0.6108 1.4418789,-1.28783 0.8508795,-0.7992 1.7883005,-1.51686 0.9527231,-0.76859 2.0835452,-1.20606 1.095202,-0.50369 2.455045,-0.59474 1.308921,-0.10635 2.989342,0.39862 3.513607,1.05584 5.024939,3.78632 1.526635,2.67956 0.333074,6.65147 -0.612082,2.03687 -1.661888,3.49805 -1.049807,1.46117 -1.752936,2.1382 l -3.340014,-2.00304 q 0.636906,-0.64141 1.528676,-1.76143 0.907072,-1.17095 1.381436,-2.74953 z" />
          <path
             inkscape:connector-curvature="0"
             id="path4886"
             style="font-style:normal;font-variant:normal;font-weight:normal;font-stretch:normal;font-size:53.17129898px;line-height:125%;font-family:'Ubuntu Condensed';-inkscape-font-specification:'Ubuntu Condensed,';text-align:center;writing-mode:lr-tb;text-anchor:middle;fill:#f68712;fill-opacity:1;stroke:none;stroke-width:0.6166997"
             d="m 25.012213,123.25218 -36.489567,-17.48699 1.256949,-4.46834 12.1791717,5.83665 q 0.1489034,-1.04891 0.4626427,-2.19572 0.3367182,-1.19475 0.8652344,-2.29759 0.7583058,-1.58233 1.9521403,-2.720098 1.145885,-1.160746 2.8271806,-1.593211 1.7042747,-0.480415 4.0418503,-0.06771 2.312606,0.341773 5.333424,1.789449 l 15.19999,7.28433 -1.976191,4.12365 -14.864344,-7.12348 q -3.74006,-1.79235 -5.9258215,-1.66061 -2.1857611,0.13175 -3.4496042,2.76897 -0.66639,1.39054 -1.0141378,3.34651 l 21.5772735,10.34053 z" />
          <path
             inkscape:connector-curvature="0"
             id="path4888"
             style="font-style:normal;font-variant:normal;font-weight:normal;font-stretch:normal;font-size:53.17129898px;line-height:125%;font-family:'Ubuntu Condensed';-inkscape-font-specification:'Ubuntu Condensed,';text-align:center;writing-mode:lr-tb;text-anchor:middle;fill:#f68712;fill-opacity:1;stroke:none;stroke-width:0.6166997"
             d="m 24.138993,77.173698 q -1.575192,0.983839 -2.776254,2.739102 -1.110982,1.623619 -1.50137,3.418175 L 39.52032,96.782866 36.938038,100.55668 14.90948,85.483358 q 0.256428,-1.692937 0.972475,-3.586795 0.702193,-1.967766 2.053387,-3.942437 0.720637,-1.053158 1.572919,-2.016237 0.852282,-0.963078 1.833892,-1.644379 z" />
          <path
             inkscape:connector-curvature="0"
             id="path4890"
             style="font-style:normal;font-variant:normal;font-weight:normal;font-stretch:normal;font-size:53.17129898px;line-height:125%;font-family:'Ubuntu Condensed';-inkscape-font-specification:'Ubuntu Condensed,';text-align:center;writing-mode:lr-tb;text-anchor:middle;fill:#f68712;fill-opacity:1;stroke:none;stroke-width:0.6166997"
             d="M 50.22881,83.02203 47.253558,86.494457 26.055601,68.331581 29.030853,64.859154 Z M 23.788161,63.377944 q -0.795707,0.928672 -1.989494,1.096143 -1.199569,0.0925 -2.249372,-0.806997 -1.049804,-0.899495 -1.101924,-2.064467 -0.0579,-1.239945 0.737805,-2.168618 0.795707,-0.928672 1.995275,-1.02117 1.193787,-0.167471 2.243591,0.732024 1.049803,0.899495 1.107705,2.13944 0.05212,1.164972 -0.743586,2.093645 z" />
          <path
             inkscape:connector-curvature="0"
             id="path4892"
             style="font-style:normal;font-variant:normal;font-weight:normal;font-stretch:normal;font-size:53.17129898px;line-height:125%;font-family:'Ubuntu Condensed';-inkscape-font-specification:'Ubuntu Condensed,';text-align:center;writing-mode:lr-tb;text-anchor:middle;fill:#f68712;fill-opacity:1;stroke:none;stroke-width:0.6166997"
             d="m 38.311376,55.412256 q 1.072837,-1.629237 2.527333,-3.295212 1.420899,-1.707187 2.822096,-2.849499 1.442408,-1.175909 2.898712,-1.745731 1.497515,-0.60342 3.109717,-0.477118 0.500347,-1.574131 1.367126,-3.035381 0.866779,-1.461251 2.350399,-2.670757 1.48362,-1.209507 3.048329,-1.730503 1.572324,-0.595805 3.277705,-0.271059 1.70538,0.324746 3.644608,1.693679 1.905631,1.327721 4.022267,3.924056 L 78.030045,58.01883 74.485842,60.908206 64.070647,48.132589 q -2.620598,-3.21451 -4.571914,-4.093376 -1.951317,-0.878867 -4.0119,0.801003 -0.783022,0.638351 -1.372073,1.59878 -0.54784,0.926833 -0.84527,1.992529 1.102434,0.679089 2.241605,1.739837 1.139172,1.060749 2.348678,2.544369 L 68.51015,65.77983 64.965947,68.669206 54.550752,55.89359 q -2.620598,-3.21451 -4.571914,-4.093377 -1.951317,-0.878867 -4.0119,0.801003 -1.071504,0.873533 -2.095515,2.394364 l 15.118832,18.54525 -3.544203,2.889377 z" />
          <path
             inkscape:connector-curvature="0"
             id="path4894"
             style="font-style:normal;font-variant:normal;font-weight:normal;font-stretch:normal;font-size:53.17129898px;line-height:125%;font-family:'Ubuntu Condensed';-inkscape-font-specification:'Ubuntu Condensed,';text-align:center;writing-mode:lr-tb;text-anchor:middle;fill:#f68712;fill-opacity:1;stroke:none;stroke-width:0.6166997"
             d="m 87.300897,48.48287 q 1.75974,0.06883 3.328031,-0.718106 1.188099,-0.596166 1.852588,-1.524491 0.664489,-0.928325 0.733828,-2.331382 0.116864,-1.426903 -0.45664,-3.39974 -0.573503,-1.972836 -1.908914,-4.634178 -2.575433,-5.132587 -5.003048,-6.650984 -2.403938,-1.589767 -5.255375,-0.15897 -0.522763,0.262312 -1.092881,0.667366 -0.593965,0.35753 -1.163914,0.881478 z m 6.295505,12.546324 -4.08706,2.050809 -16.59724,-33.076673 q 1.044511,-1.237992 2.540923,-2.405291 1.52009,-1.23867 3.278476,-2.120994 2.613817,-1.311564 4.920337,-1.338627 2.354044,-0.05091 4.353097,1.087635 2.02273,1.067173 3.785517,3.276106 1.786465,2.137562 3.360341,5.274143 3.171599,6.320686 2.797332,10.672767 -0.326744,4.328235 -4.889043,6.617509 -1.093051,0.548472 -2.067716,0.740092 -0.950817,0.239143 -1.901973,0.240497 z" />
          <path
             inkscape:connector-curvature="0"
             id="path4896"
             style="font-style:normal;font-variant:normal;font-weight:normal;font-stretch:normal;font-size:53.17129898px;line-height:125%;font-family:'Ubuntu Condensed';-inkscape-font-specification:'Ubuntu Condensed,';text-align:center;writing-mode:lr-tb;text-anchor:middle;fill:#f68712;fill-opacity:1;stroke:none;stroke-width:0.6166997"
             d="m 112.04894,42.513508 -4.32423,1.486914 -9.077084,-26.397914 4.324234,-1.486914 z M 99.201799,12.182849 q -1.15648,0.397663 -2.270615,-0.06264 -1.081143,-0.527873 -1.530675,-1.835198 -0.449532,-1.3073257 0.09563,-2.3381869 0.578155,-1.0984327 1.734635,-1.4960956 1.15648,-0.397663 2.237623,0.1302097 1.114133,0.4603014 1.563663,1.7676266 0.44954,1.3073253 -0.12862,2.4057582 -0.54516,1.030863 -1.701641,1.428526 z" />
          <path
             inkscape:connector-curvature="0"
             id="path4898"
             style="font-style:normal;font-variant:normal;font-weight:normal;font-stretch:normal;font-size:53.17129898px;line-height:125%;font-family:'Ubuntu Condensed';-inkscape-font-specification:'Ubuntu Condensed,';text-align:center;writing-mode:lr-tb;text-anchor:middle;fill:#f68712;fill-opacity:1;stroke:none;stroke-width:0.6166997"
             d="m 114.72981,13.324443 q 1.8174,-0.953714 3.98889,-1.760338 2.16122,-0.858796 4.03937,-1.228364 2.03467,-0.4003653 3.81706,-0.154991 1.77213,0.193204 3.17653,1.271629 1.45657,1.068159 2.52405,3.188318 1.10939,2.057722 1.75613,5.344487 l 3.25425,16.53817 -4.48669,0.882857 -3.18239,-16.172974 q -0.80073,-4.069328 -2.21372,-5.742164 -1.41299,-1.672837 -4.28238,-1.108219 -1.51296,0.297708 -3.28845,1.188985 l 4.6196,23.476896 -4.4867,0.882857 z" />
          <path
             inkscape:connector-curvature="0"
             id="path4900"
             style="font-style:normal;font-variant:normal;font-weight:normal;font-stretch:normal;font-size:53.17129898px;line-height:125%;font-family:'Ubuntu Condensed';-inkscape-font-specification:'Ubuntu Condensed,';text-align:center;writing-mode:lr-tb;text-anchor:middle;fill:#f68712;fill-opacity:1;stroke:none;stroke-width:0.6166997"
             d="m 161.85789,34.69968 q 0.0449,2.977254 -0.72208,5.009566 -0.71303,2.084675 -2.02291,3.380696 -1.30987,1.29602 -3.10867,1.908112 -1.74563,0.61129 -3.76591,0.641773 -1.70128,0.02567 -3.40819,-0.320818 -1.7069,-0.346487 -3.15359,-1.069141 l 0.89921,-3.842337 q 0.965,0.517213 2.35371,0.921678 1.38872,0.404465 2.87735,0.382004 2.60509,-0.03931 4.07126,-1.550394 1.46616,-1.511088 1.41162,-5.126325 l -0.0201,-1.329131 q -0.84503,0.384991 -1.79799,0.665257 -0.95377,0.2271 -2.17657,0.24555 -4.99753,0.07541 -7.38814,-3.291875 -2.33825,-3.421247 -2.43291,-9.694746 -0.0505,-3.349411 0.49418,-6.016497 0.59707,-2.721054 1.84496,-4.60109 1.30025,-1.9340036 3.35926,-2.922263 2.0582,-1.0414247 5.03545,-1.0863468 1.96712,-0.029681 3.83432,0.367565 1.91956,0.3432783 3.41782,0.9588002 z m -4.92517,-23.323721 q -0.74753,-0.201431 -1.43948,-0.244168 -0.69275,-0.0959 -1.27757,-0.08708 -3.18991,0.04813 -4.64164,2.516193 -1.39856,2.467261 -1.31513,7.996446 0.0754,4.997534 1.54215,7.049319 1.46594,1.998621 4.12421,1.958512 0.9038,-0.01364 1.69807,-0.238331 0.84744,-0.225496 1.58614,-0.608883 z" />
          <path
             inkscape:connector-curvature="0"
             id="path4902"
             style="font-style:normal;font-variant:normal;font-weight:normal;font-stretch:normal;font-size:53.17129898px;line-height:125%;font-family:'Ubuntu Condensed';-inkscape-font-specification:'Ubuntu Condensed,';text-align:center;writing-mode:lr-tb;text-anchor:middle;fill:#f68712;fill-opacity:1;stroke:none;stroke-width:0.6166997"
             d="m 175.53853,34.510065 q -0.14271,1.214585 -1.15213,2.059651 -0.95661,0.851271 -2.38243,0.683745 -1.42582,-0.167525 -2.15906,-1.217344 -0.73325,-1.04982 -0.59054,-2.264405 0.14891,-1.267393 1.10552,-2.118663 0.95662,-0.85127 2.38243,-0.683745 1.42582,0.167525 2.15907,1.217345 0.78605,1.056023 0.63714,2.323416 z" />
          <path
             inkscape:connector-curvature="0"
             id="path4904"
             style="font-style:normal;font-variant:normal;font-weight:normal;font-stretch:normal;font-size:53.17129898px;line-height:125%;font-family:'Ubuntu Condensed';-inkscape-font-specification:'Ubuntu Condensed,';text-align:center;writing-mode:lr-tb;text-anchor:middle;fill:#f68712;fill-opacity:1;stroke:none;stroke-width:0.6166997"
             d="m 186.77742,39.068385 -4.47544,-0.938268 5.7278,-27.320976 4.47544,0.938269 z m 4.50472,-32.6298251 q -1.19692,-0.2509323 -1.91795,-1.2170033 -0.65807,-1.0072009 -0.37441,-2.3602397 0.28366,-1.3530388 1.27995,-1.95907647 1.05924,-0.64716756 2.25616,-0.39623526 1.19692,0.25093229 1.855,1.25813313 0.72103,0.966071 0.43736,2.3191098 -0.28366,1.3530388 -1.3429,2.0002064 -0.99629,0.6060377 -2.19321,0.3551054 z" />
          <path
             inkscape:connector-curvature="0"
             id="path4906"
             style="font-style:normal;font-variant:normal;font-weight:normal;font-stretch:normal;font-size:53.17129898px;line-height:125%;font-family:'Ubuntu Condensed';-inkscape-font-specification:'Ubuntu Condensed,';text-align:center;writing-mode:lr-tb;text-anchor:middle;fill:#f68712;fill-opacity:1;stroke:none;stroke-width:0.6166997"
             d="m 207.47485,15.845683 6.67776,2.160676 -1.21129,3.743589 -6.67775,-2.160676 -4.73057,14.620232 q -0.88392,2.731808 -0.28284,4.155773 0.66804,1.389745 2.33748,1.929914 0.86001,0.278269 1.70069,0.270855 0.89127,0.009 1.56233,-0.165112 l -0.26943,3.768913 q -2.467,0.543018 -4.7941,-0.209945 -3.74359,-1.211288 -4.94426,-3.891083 -1.13372,-2.714015 0.43768,-7.570562 l 8.15164,-25.1933416 4.59619,0.6488776 z" />
        </g>
        <text
           transform="matrix(0.85892477,0,0,0.85892477,17.413179,66.078431)"
           xml:space="preserve"
           style="font-style:normal;font-variant:normal;font-weight:normal;font-stretch:normal;font-size:22.12595177px;line-height:125%;font-family:'Ubuntu Condensed';-inkscape-font-specification:'Ubuntu Condensed, ';letter-spacing:0px;word-spacing:0px;fill:#f68712;fill-opacity:1;stroke:#000000;stroke-width:0.99236858;stroke-opacity:0"
           id="text4910"><textPath
             style="stroke-width:0.99236858"
             xlink:href="#path4162"
             id="textPath4912">Learn Prototyping<tspan
   style="font-style:normal;font-variant:normal;font-weight:normal;font-stretch:normal;font-family:'Ubuntu Condensed';-inkscape-font-specification:'Ubuntu Condensed, ';stroke-width:0.99236858"
   id="tspan4914" /></textPath></text>
      </g>
    </g>
  </g>
</svg>
