<?xml version="1.0" encoding="UTF-8" standalone="no"?>
<!-- Created with Inkscape (http://www.inkscape.org/) -->

<svg
   xmlns:dc="http://purl.org/dc/elements/1.1/"
   xmlns:cc="http://creativecommons.org/ns#"
   xmlns:rdf="http://www.w3.org/1999/02/22-rdf-syntax-ns#"
   xmlns:svg="http://www.w3.org/2000/svg"
   xmlns="http://www.w3.org/2000/svg"
   xmlns:xlink="http://www.w3.org/1999/xlink"
   xmlns:sodipodi="http://sodipodi.sourceforge.net/DTD/sodipodi-0.dtd"
   xmlns:inkscape="http://www.inkscape.org/namespaces/inkscape"
   width="524.02972"
   height="535.71362"
   id="svg4890"
   version="1.1"
   inkscape:version="0.92.1 unknown"
   sodipodi:docname="logo.svg"
   inkscape:export-filename="/home/cefn/Documents/shrimping/git/projects/vector/logo.png"
   inkscape:export-xdpi="183.50102"
   inkscape:export-ydpi="183.50102">
  <defs
     id="defs4892">
    <path
       inkscape:connector-curvature="0"
       id="path4162"
       d="M 80.332985,535.83518 A 79.6851,79.6851 0 0 0 193.73799,442.5174"
       style="color:#000000;fill:none;stroke:none;stroke-width:1.29128397;marker:none;visibility:visible;display:inline;overflow:visible;enable-background:accumulate" />
  </defs>
  <sodipodi:namedview
     id="base"
     pagecolor="#000000"
     bordercolor="#666666"
     borderopacity="1.0"
     inkscape:pageopacity="1"
     inkscape:pageshadow="2"
     inkscape:zoom="0.84357673"
     inkscape:cx="262.01485"
     inkscape:cy="267.85679"
     inkscape:document-units="px"
     inkscape:current-layer="g4820"
     showgrid="false"
     units="mm"
     fit-margin-left="10"
     fit-margin-top="10"
     fit-margin-right="10"
     fit-margin-bottom="10"
     inkscape:window-width="958"
     inkscape:window-height="1026"
     inkscape:window-x="960"
     inkscape:window-y="0"
     inkscape:window-maximized="0"
     showguides="false" />
  <metadata
     id="metadata4895">
    <rdf:RDF>
      <cc:Work
         rdf:about="">
        <dc:format>image/svg+xml</dc:format>
        <dc:type
           rdf:resource="http://purl.org/dc/dcmitype/StillImage" />
        <dc:title></dc:title>
      </cc:Work>
    </rdf:RDF>
  </metadata>
  <g
     inkscape:label="Layer 1"
     inkscape:groupmode="layer"
     id="layer1"
     transform="translate(-190.77863,141.24098)">
    <g
       style="display:inline"
       transform="matrix(2.9299764,0,0,2.9299764,101.9969,-1237.7026)"
       id="g4820">
      <circle
         style="opacity:1;vector-effect:none;fill:#fbfbfb;fill-opacity:1;stroke:none;stroke-width:4.77819538;stroke-linecap:butt;stroke-linejoin:miter;stroke-miterlimit:4;stroke-dasharray:none;stroke-dashoffset:0;stroke-opacity:1"
         id="path57"
         cx="119.72676"
         cy="465.64145"
         r="88.40213" />
      <g
         id="g4822"
         transform="matrix(0.53392397,0,0,0.53392782,39.776335,372.89121)"
         inkscape:export-xdpi="211.4758"
         inkscape:export-ydpi="211.4758"
         style="stroke-width:0.96289831">
        <path
           inkscape:connector-curvature="0"
           id="path4824"
           style="fill:#f68712;fill-opacity:1;fill-rule:nonzero;stroke:none;stroke-width:0.96289831"
           d="m 208.63502,134.76761 c -3.36939,-0.64891 -5.57529,-3.90684 -4.92614,-7.27717 0.64892,-3.36964 3.90663,-5.57529 7.27626,-4.92638 3.37032,0.64914 5.5762,3.90685 4.92706,7.27719 -0.64892,3.36962 -3.90755,5.5755 -7.27718,4.92636" />
        <path
           inkscape:connector-curvature="0"
           id="path4826"
           style="fill:none;stroke:#f68712;stroke-width:2.22203326;stroke-linecap:butt;stroke-linejoin:miter;stroke-miterlimit:4;stroke-dasharray:none;stroke-opacity:1"
           d="m 219.90836,151.40439 c 11.29295,6.19996 25.49239,-0.78437 33.89547,-9.26498 5.15159,-13.35184 -4.18815,-25.45524 -13.74045,-34.86976 -12.7823,-12.59746 -29.70107,-21.61716 -32.67957,-39.95837" />
        <path
           inkscape:connector-curvature="0"
           id="path4828"
           style="fill:none;stroke:#f68712;stroke-width:2.22203326;stroke-linecap:butt;stroke-linejoin:miter;stroke-miterlimit:4;stroke-dasharray:none;stroke-opacity:1"
           d="m 226.62294,154.80356 c 3.69778,1.76951 7.87485,2.13204 11.86547,1.21244 8.88284,-2.04711 20.06133,-4.7713 22.59882,-14.59405 1.82997,-7.08426 -3.64077,-12.9346 -7.35748,-18.6585 C 243.57701,107.12819 229.7978,93.41913 225.64864,75.12569" />
        <path
           inkscape:connector-curvature="0"
           id="path4830"
           style="fill:none;stroke:#f68712;stroke-width:2.22203326;stroke-linecap:butt;stroke-linejoin:miter;stroke-miterlimit:4;stroke-dasharray:none;stroke-opacity:1"
           d="m 185.42883,150.0288 c 3.749,19.83035 19.40573,40.77504 32.53142,55.22232" />
        <path
           inkscape:connector-curvature="0"
           id="path4832"
           style="fill:none;stroke:#f68712;stroke-width:2.22203326;stroke-linecap:butt;stroke-linejoin:miter;stroke-miterlimit:4;stroke-dasharray:none;stroke-opacity:1"
           d="m 187.55694,149.91158 c 1.55236,3.82031 6.40119,15.82448 8.53393,19.3988 8.55445,14.33789 18.55489,27.99549 32.82263,36.4708" />
        <path
           inkscape:connector-curvature="0"
           id="path4834"
           style="fill:none;stroke:#f68712;stroke-width:2.22203326;stroke-linecap:butt;stroke-linejoin:miter;stroke-miterlimit:4;stroke-dasharray:none;stroke-opacity:1"
           d="m 160.98573,148.47922 c 4.93353,10.04012 18.06359,19.90625 27.05259,26.26752 12.65423,-0.2903 25.15985,2.47266 37.37309,5.40867 5.37983,1.29252 6.17135,8.71231 10.9055,11.78517" />
        <path
           inkscape:connector-curvature="0"
           id="path4836"
           style="fill:none;stroke:#f68712;stroke-width:2.22203326;stroke-linecap:butt;stroke-linejoin:miter;stroke-miterlimit:4;stroke-dasharray:none;stroke-opacity:1"
           d="m 136.32363,158.9961 c 1.3359,4.26108 14.89773,10.42043 7.91086,14.92866 -7.92979,5.11652 -18.92989,4.12122 -24.33764,12.96692" />
        <path
           inkscape:connector-curvature="0"
           id="path4838"
           style="fill:none;stroke:#f68712;stroke-width:2.22203326;stroke-linecap:butt;stroke-linejoin:miter;stroke-miterlimit:4;stroke-dasharray:none;stroke-opacity:1"
           d="m 137.61361,155.03341 c -7.52802,13.7026 -19.17242,47.49791 -17.29585,62.47249" />
        <path
           inkscape:connector-curvature="0"
           id="path4840"
           style="fill:none;stroke:#f68712;stroke-width:2.22203326;stroke-linecap:butt;stroke-linejoin:miter;stroke-miterlimit:4;stroke-dasharray:none;stroke-opacity:1"
           d="m 135.48527,155.14971 c -12.87416,11.27149 -27.18967,46.94916 -28.95111,62.86018" />
        <path
           inkscape:connector-curvature="0"
           id="path4842"
           style="fill:none;stroke:#f68712;stroke-width:2.22203326;stroke-linecap:butt;stroke-linejoin:miter;stroke-miterlimit:4;stroke-dasharray:none;stroke-opacity:1"
           d="m 135.38695,155.65739 c -14.82388,13.89437 -28.96101,29.7027 -35.46651,44.7592" />
        <path
           inkscape:connector-curvature="0"
           id="path4844"
           style="fill:none;stroke:#f68712;stroke-width:2.22203326;stroke-linecap:butt;stroke-linejoin:miter;stroke-miterlimit:4;stroke-dasharray:none;stroke-opacity:1"
           d="m 135.38695,155.65739 c -4.86222,2.1805 -28.30287,25.55262 -33.27886,25.23532" />
        <path
           inkscape:connector-curvature="0"
           id="path4846"
           style="fill:#f68712;fill-opacity:1;fill-rule:nonzero;stroke:none;stroke-width:0.96289831"
           d="m 195.68518,115.74657 c -10.09067,-1.69197 -21.83154,-4.41592 -31.5869,0.16777 -2.60695,-4.27378 -7.06995,-6.51196 -11.89871,-6.30104 -27.01843,1.17736 -55.87676,7.36279 -71.97894,30.25722 -1.692,2.40596 0.69139,6.14412 -0.69772,7.9164 -3.88424,4.95775 -8.64107,9.58944 -10.14734,15.70103 -2.84492,11.54632 -1.81098,23.31442 1.0213,34.88706 3.44525,14.06951 11.54457,25.833 18.32592,38.31416 -0.88336,18.25478 -15.37645,29.24045 -25.61395,33.23288 12.0719,3.53269 19.17242,1.5865 25.09289,-0.81311 2.64318,-1.07177 5.4329,-2.34913 7.78301,-4.72615 4.16647,3.09191 6.6705,5.61678 11.04257,8.46981 1.09521,-4.95608 2.68357,-9.74266 4.86498,-14.32908 10.35721,4.03477 20.55149,-1.41434 27.10222,-9.52096 -8.04425,1.57843 -16.0391,-1.04998 -22.55359,-5.2056 -6.35436,-4.05477 -10.51874,-10.33389 -13.9253,-17.27668 -1.93888,-3.95094 -2.2608,-8.25816 -2.92702,-12.54255 -1.09336,-7.03465 -0.98329,-14.03259 -0.51553,-21.13485 0.83468,-12.68747 7.9434,-23.72381 19.48165,-30.15085 2.07874,-1.15844 4.59639,-2.23819 5.58151,-4.51607 1.26113,-2.91271 1.72821,-6.0892 0.96368,-9.23706 0.22985,2.19411 0.61291,4.25023 1.91373,6.20827 0.97084,1.46028 2.65473,1.70259 3.88887,1.98574 9.25482,2.12557 19.33279,1.70997 27.86395,-3.47579 2.77541,-1.68758 4.013,-6.32551 6.7508,-6.25419 14.27929,0.37222 27.0572,7.54578 37.04933,17.50745 -4.15284,-6.74088 -11.66079,-14.61666 -10.69364,-21.01047 4.89844,4.98937 2.71148,12.50908 16.65477,14.62382 7.7154,1.17112 17.0577,-3.54156 24.67571,-5.08584 -5.50052,0.72114 -10.20674,-2.23103 -13.40237,-6.38734 -8.20394,-10.67034 -13.04723,-23.36243 -24.11588,-31.30398" />
        <path
           inkscape:connector-curvature="0"
           id="path4848"
           style="fill:#f68712;fill-opacity:1;fill-rule:nonzero;stroke:none;stroke-width:0.96289831"
           d="m 95.98474,264.38279 c 3.23163,-3.26766 5.63298,-8.61404 5.68075,-18.35756" />
        <path
           inkscape:connector-curvature="0"
           id="path4850"
           style="fill:#000000;fill-opacity:0;stroke:#ffffff;stroke-width:2.22203326;stroke-linecap:butt;stroke-linejoin:miter;stroke-miterlimit:4;stroke-dasharray:none;stroke-opacity:1"
           d="m 95.98474,264.38279 c 3.23163,-3.26766 5.63298,-8.61404 5.68075,-18.35756" />
        <path
           inkscape:connector-curvature="0"
           id="path4852"
           style="fill:none;stroke:#ffffff;stroke-width:2.22203326;stroke-linecap:butt;stroke-linejoin:miter;stroke-miterlimit:4;stroke-dasharray:none;stroke-opacity:1"
           d="m 167.02716,114.37283 c -6.40119,8.96383 -7.55502,20.27756 -3.73747,30.33937" />
        <path
           inkscape:connector-curvature="0"
           id="path4854"
           style="fill:none;stroke:#ffffff;stroke-width:2.22203326;stroke-linecap:butt;stroke-linejoin:miter;stroke-miterlimit:4;stroke-dasharray:none;stroke-opacity:1"
           d="m 124.34807,114.57659 c 1.87959,4.352 -0.69482,8.77184 0.3697,13.33039 1.94789,8.34168 4.26361,16.4293 7.09787,24.43039" />
        <path
           inkscape:connector-curvature="0"
           id="path4856"
           style="fill:none;stroke:#ffffff;stroke-width:2.22203326;stroke-linecap:butt;stroke-linejoin:miter;stroke-miterlimit:4;stroke-dasharray:none;stroke-opacity:1"
           d="m 79.87538,143.79099 c 7.64951,9.97505 16.76197,19.11912 28.5266,23.51542" />
        <path
           inkscape:connector-curvature="0"
           id="path4858"
           style="fill:none;stroke:#ffffff;stroke-width:2.22203326;stroke-linecap:butt;stroke-linejoin:miter;stroke-miterlimit:4;stroke-dasharray:none;stroke-opacity:1"
           d="m 68.88157,183.91066 c 6.27755,7.50263 18.21964,11.40925 27.74147,9.02776" />
        <path
           inkscape:connector-curvature="0"
           id="path4860"
           style="fill:none;stroke:#ffffff;stroke-width:2.22203326;stroke-linecap:butt;stroke-linejoin:miter;stroke-miterlimit:4;stroke-dasharray:none;stroke-opacity:1"
           d="m 93.51302,211.81707 c -3.14856,5.31476 -10.79365,6.14944 -15.09255,1.83159" />
        <path
           inkscape:connector-curvature="0"
           id="path4862"
           style="fill:none;stroke:#ffffff;stroke-width:2.22203326;stroke-linecap:butt;stroke-linejoin:miter;stroke-miterlimit:4;stroke-dasharray:none;stroke-opacity:1"
           d="m 100.58573,229.7616 c -0.57622,4.601 -5.54297,5.8739 -9.47867,5.43659" />
        <path
           inkscape:connector-curvature="0"
           id="path4864"
           style="fill:none;stroke:#ffffff;stroke-width:2.22203326;stroke-linecap:butt;stroke-linejoin:miter;stroke-miterlimit:4;stroke-dasharray:none;stroke-opacity:1"
           d="m 94.53969,242.02123 c 1.1439,6.53065 -1.23852,13.30944 -6.05666,17.78412" />
        <path
           inkscape:connector-curvature="0"
           id="path4866"
           style="fill:none;stroke:#ffffff;stroke-width:2.22203326;stroke-linecap:butt;stroke-linejoin:miter;stroke-miterlimit:4;stroke-dasharray:none;stroke-opacity:1"
           d="m 111.89229,258.52352 c -6.16142,-2.26439 -8.64468,-5.98356 -10.2268,-12.49829" />
        <path
           inkscape:connector-curvature="0"
           id="path4868"
           style="fill:none;stroke:#ffffff;stroke-width:2.22203326;stroke-linecap:butt;stroke-linejoin:miter;stroke-miterlimit:4;stroke-dasharray:none;stroke-opacity:1"
           d="m 191.80717,134.67485 c 0,0 0.77883,9.62544 -7.4214,11.20456" />
        <path
           inkscape:connector-curvature="0"
           id="path4870"
           style="fill:#f68712;fill-opacity:1;fill-rule:nonzero;stroke:none;stroke-width:0.96289831"
           d="m 196.21962,128.16474 c -3.36939,-0.64823 -5.57619,-3.90686 -4.92613,-7.27626 0.64799,-3.36963 3.90662,-5.57552 7.27626,-4.92637 3.36962,0.64891 5.5762,3.90685 4.92636,7.27625 -0.64822,3.37055 -3.90684,5.5762 -7.27649,4.92638" />
        <path
           inkscape:connector-curvature="0"
           id="path4872"
           style="fill:none;stroke:#ffffff;stroke-width:2.22203326;stroke-linecap:butt;stroke-linejoin:miter;stroke-miterlimit:4;stroke-dasharray:none;stroke-opacity:1"
           d="m 196.21962,128.16474 c -3.36939,-0.64823 -5.57619,-3.90686 -4.92613,-7.27626 0.64799,-3.36963 3.90662,-5.57552 7.27626,-4.92637 3.36962,0.64891 5.5762,3.90685 4.92636,7.27625 -0.64822,3.37055 -3.90684,5.5762 -7.27649,4.92638 z" />
      </g>
      <g
         style="font-style:normal;font-variant:normal;font-weight:normal;font-stretch:normal;font-size:53.17129898px;line-height:125%;font-family:'Ubuntu Condensed';-inkscape-font-specification:'Ubuntu Condensed,';text-align:center;letter-spacing:0px;word-spacing:0px;writing-mode:lr-tb;text-anchor:middle;fill:#f68712;fill-opacity:1;stroke:none;stroke-width:0.96289831"
         id="g4874"
         transform="matrix(0.43803037,0,0,0.43803352,49.365205,385.19399)"
         inkscape:export-xdpi="211.4758"
         inkscape:export-ydpi="211.4758">
        <path
           d="m 28.028445,235.91562 1.828148,4.24934 q -4.379413,3.67849 -10.335997,7.86186 -5.977597,4.13453 -13.016106,8.49395 l -1.7861219,-4.15165 q 2.0161935,-1.09894 4.6809783,-2.70845 2.6159416,-1.5885 5.4062426,-3.30989 2.720444,-1.74922 5.294359,-3.4354 2.525073,-1.66517 4.289672,-2.94528 -2.142837,0.40094 -5.206872,1.08243 -3.085049,0.63265 -6.295613,1.37719 -3.231578,0.69569 -6.2257574,1.40501 -3.0430223,0.73033 -5.0739761,1.25679 l -1.70206904,-3.95628 q 1.82082174,-1.01488 4.43676364,-2.60338 2.5949286,-1.63734 5.4340719,-3.37974 2.769287,-1.77024 5.392046,-3.47743 2.622758,-1.7072 4.40837,-2.93847 -2.142836,0.40094 -5.137016,1.11027 -2.994179,0.70932 -6.1138743,1.53052 -3.1407082,0.77237 -6.0928612,1.57938 -3.00099595,0.82802 -5.185295,1.53621 l -1.7230823,-4.00512 q 8.0051159,-2.11264 15.1384388,-3.56081 7.11231,-1.49701 12.794542,-2.14724 l 1.765109,4.10281 q -1.346026,1.04215 -3.480355,2.53922 -2.204185,1.46923 -4.680415,3.11338 -2.497242,1.59532 -5.015498,3.14179 -2.5670992,1.56748 -4.6877952,2.82714 2.3728543,-0.67355 5.3181912,-1.36186 2.896493,-0.66729 5.814,-1.28575 2.917507,-0.61845 5.541956,-1.11082 2.554593,-0.52021 4.215816,-0.82972 z"
           style="font-style:normal;font-variant:normal;font-weight:normal;font-stretch:normal;font-size:53.17129898px;line-height:125%;font-family:'Ubuntu Condensed';-inkscape-font-specification:'Ubuntu Condensed,';text-align:center;writing-mode:lr-tb;text-anchor:middle;fill:#f68712;fill-opacity:1;stroke:none;stroke-width:0.96289831"
           id="path4876"
           inkscape:connector-curvature="0" />
        <path
           d="m 17.915085,205.86679 0.827166,4.55135 q -5.09364,2.60103 -11.8375491,5.33986 -6.75341639,2.68651 -14.5911504,5.35392 l -0.8081511,-4.44672 q 2.2114865,-0.61809 5.1696576,-1.58804 2.9058568,-0.96046 6.0114633,-2.01125 3.0437846,-1.09361 5.930626,-2.15869 2.8345267,-1.05557 4.8415327,-1.9067 -2.178143,-0.0905 -5.3169601,-0.11454 -3.1483244,-0.0763 -6.4440841,-0.0718 -3.3052674,-0.0478 -6.3822621,-0.029 -3.129309,0.0283 -5.2266147,0.0852 l -0.77012,-4.23746 q 2.0022286,-0.58006 4.9080854,-1.54051 2.8963492,-1.01276 6.05427005,-2.07307 3.09609885,-1.10311 6.03525465,-2.1777 2.9391559,-1.07458 4.9556689,-1.8734 -2.1781433,-0.0905 -5.2551379,-0.0717 -3.0769947,0.0188 -6.30142476,0.11842 -3.23393774,0.0473 -6.29191704,0.17074 -3.1102937,0.13293 -5.3978413,0.3325 l -0.779628,-4.28978 q 8.2750861,-0.26095 15.5514237,-0.0702 7.2668303,0.13846 12.9499453,0.78091 l 0.798644,4.39441 q -1.545684,0.71325 -3.961696,1.69276 -2.477834,0.93671 -5.2600471,1.98277 -2.7917204,0.99375 -5.5929485,1.93519 -2.8535425,0.95094 -5.2029567,1.70218 2.4635062,-0.12346 5.4881865,-0.13275 2.9723659,2.2e-4 5.9542396,0.0528 2.9818732,0.0525 5.6498612,0.16212 2.606165,0.0667 4.294464,0.13818 z"
           style="font-style:normal;font-variant:normal;font-weight:normal;font-stretch:normal;font-size:53.17129898px;line-height:125%;font-family:'Ubuntu Condensed';-inkscape-font-specification:'Ubuntu Condensed,';text-align:center;writing-mode:lr-tb;text-anchor:middle;fill:#f68712;fill-opacity:1;stroke:none;stroke-width:0.96289831"
           id="path4878"
           inkscape:connector-curvature="0" />
        <path
           d="m 14.859086,174.31441 -0.17225,4.62269 q -5.5342216,1.44324 -12.7096712,2.6657 -7.1734697,1.16933 -15.4017088,2.08652 l 0.16829,-4.51643 q 2.2927,-0.1274 5.3903358,-0.43764 3.0445012,-0.31223 6.3035201,-0.66966 3.2078643,-0.41256 6.2563253,-0.83105 2.9953266,-0.42047 5.1385226,-0.81948 -2.1075581,-0.55741 -5.1675761,-1.25672 -3.058038,-0.75244 -6.2774592,-1.4577 -3.2174414,-0.75838 -6.2263048,-1.40258 -3.0619977,-0.64618 -5.1223607,-1.0422 l 0.16037,-4.30389 q 2.080162,-0.13532 5.1246634,-0.44754 3.0464811,-0.36536 6.3586344,-0.72082 3.2609987,-0.41057 6.3625942,-0.82708 3.1015954,-0.41651 5.242811,-0.76239 -2.1075576,-0.5574 -5.116421,-1.2016 -3.0088634,-0.6442 -6.1791099,-1.2412 -3.1682667,-0.65014 -6.1810899,-1.18807 -3.0659572,-0.53991 -5.3428182,-0.83758 l 0.16235,-4.35702 q 8.1371643,1.52699 15.2017406,3.28006 7.0665561,1.69993 12.4780254,3.55103 l -0.16631,4.46329 q -1.663006,0.3637 -4.233257,0.80001 -2.6214061,0.38119 -5.5635983,0.80365 -2.9402123,0.36931 -5.87844469,0.68549 -2.99136681,0.31421 -5.44742971,0.54194 2.4323043,0.40988 5.38803327,1.0521 2.90259453,0.64023 5.80320923,1.33361 2.9006147,0.69337 5.4824232,1.37486 2.530653,0.62638 4.163961,1.0597 z"
           style="font-style:normal;font-variant:normal;font-weight:normal;font-stretch:normal;font-size:53.17129898px;line-height:125%;font-family:'Ubuntu Condensed';-inkscape-font-specification:'Ubuntu Condensed,';text-align:center;writing-mode:lr-tb;text-anchor:middle;fill:#f68712;fill-opacity:1;stroke:none;stroke-width:0.96289831"
           id="path4880"
           inkscape:connector-curvature="0" />
        <path
           d="m 15.440174,147.09604 q 1.202272,0.22389 1.977703,1.28773 0.785165,1.01158 0.522347,2.42294 -0.262818,1.41137 -1.35947,2.07252 -1.096653,0.66115 -2.298925,0.43727 -1.254546,-0.23362 -2.03971,-1.24519 -0.785165,-1.01158 -0.522347,-2.42294 0.262817,-1.41137 1.35947,-2.07252 1.106387,-0.71342 2.360932,-0.47981 z"
           style="font-style:normal;font-variant:normal;font-weight:normal;font-stretch:normal;font-size:53.17129898px;line-height:125%;font-family:'Ubuntu Condensed';-inkscape-font-specification:'Ubuntu Condensed,';text-align:center;writing-mode:lr-tb;text-anchor:middle;fill:#f68712;fill-opacity:1;stroke:none;stroke-width:0.96289831"
           id="path4882"
           inkscape:connector-curvature="0" />
        <path
           d="m 17.449669,135.92057 q 0.581478,-1.93503 -0.197141,-3.22388 -0.81424,-1.35509 -2.596504,-1.89066 -1.12028,-0.33664 -2.006525,-0.1588 -0.937166,0.16254 -1.747154,0.6409 -0.809989,0.47836 -1.528421,1.20631 -0.7693535,0.71265 -1.5896288,1.41 -0.7693534,0.71265 -1.6761704,1.32848 -0.9577387,0.60052 -2.0223369,1.00236 -1.1002178,0.33563 -2.3429149,0.40636 -1.27831674,0.005 -2.805972,-0.45456 -3.3099197,-0.99463 -4.7347108,-3.64359 -1.4094891,-2.69988 -0.3536469,-6.21348 0.4437598,-1.47674 1.2489882,-2.67829 0.7543065,-1.21685 1.4727381,-1.9448 l 3.22286791,2.02335 q -0.78465554,0.76358 -1.31470191,1.60366 -0.5300463,0.84008 -0.8513896,1.90944 -0.489666,1.6295 0.1871098,2.88775 0.625854,1.24296 2.40811844,1.77853 1.01843686,0.30604 1.88937886,0.17912 0.8200202,-0.14223 1.599405,-0.51874 0.743765,-0.44274 1.4672123,-1.00263 0.7387494,-0.6108 1.4418789,-1.28783 0.8508795,-0.7992 1.7883005,-1.51686 0.9527231,-0.76859 2.0835452,-1.20606 1.095202,-0.50369 2.455045,-0.59474 1.308921,-0.10635 2.989342,0.39862 3.513607,1.05584 5.024939,3.78632 1.526635,2.67956 0.333074,6.65147 -0.612082,2.03687 -1.661888,3.49805 -1.049807,1.46117 -1.752936,2.1382 l -3.340014,-2.00304 q 0.636906,-0.64141 1.528676,-1.76143 0.907072,-1.17095 1.381436,-2.74953 z"
           style="font-style:normal;font-variant:normal;font-weight:normal;font-stretch:normal;font-size:53.17129898px;line-height:125%;font-family:'Ubuntu Condensed';-inkscape-font-specification:'Ubuntu Condensed,';text-align:center;writing-mode:lr-tb;text-anchor:middle;fill:#f68712;fill-opacity:1;stroke:none;stroke-width:0.96289831"
           id="path4884"
           inkscape:connector-curvature="0" />
        <path
           d="m 25.012213,123.25218 -36.489567,-17.48699 1.256949,-4.46834 12.1791717,5.83665 q 0.1489034,-1.04891 0.4626427,-2.19572 0.3367182,-1.19475 0.8652344,-2.29759 0.7583058,-1.58233 1.9521403,-2.720098 1.145885,-1.160746 2.8271806,-1.593211 1.7042747,-0.480415 4.0418503,-0.06771 2.312606,0.341773 5.333424,1.789449 l 15.19999,7.28433 -1.976191,4.12365 -14.864344,-7.12348 q -3.74006,-1.79235 -5.9258215,-1.66061 -2.1857611,0.13175 -3.4496042,2.76897 -0.66639,1.39054 -1.0141378,3.34651 l 21.5772735,10.34053 z"
           style="font-style:normal;font-variant:normal;font-weight:normal;font-stretch:normal;font-size:53.17129898px;line-height:125%;font-family:'Ubuntu Condensed';-inkscape-font-specification:'Ubuntu Condensed,';text-align:center;writing-mode:lr-tb;text-anchor:middle;fill:#f68712;fill-opacity:1;stroke:none;stroke-width:0.96289831"
           id="path4886"
           inkscape:connector-curvature="0" />
        <path
           d="m 24.138993,77.173698 q -1.575192,0.983839 -2.776254,2.739102 -1.110982,1.623619 -1.50137,3.418175 L 39.52032,96.782866 36.938038,100.55668 14.90948,85.483358 q 0.256428,-1.692937 0.972475,-3.586795 0.702193,-1.967766 2.053387,-3.942437 0.720637,-1.053158 1.572919,-2.016237 0.852282,-0.963078 1.833892,-1.644379 z"
           style="font-style:normal;font-variant:normal;font-weight:normal;font-stretch:normal;font-size:53.17129898px;line-height:125%;font-family:'Ubuntu Condensed';-inkscape-font-specification:'Ubuntu Condensed,';text-align:center;writing-mode:lr-tb;text-anchor:middle;fill:#f68712;fill-opacity:1;stroke:none;stroke-width:0.96289831"
           id="path4888"
           inkscape:connector-curvature="0" />
        <path
           d="M 50.22881,83.02203 47.253558,86.494457 26.055601,68.331581 29.030853,64.859154 Z M 23.788161,63.377944 q -0.795707,0.928672 -1.989494,1.096143 -1.199569,0.0925 -2.249372,-0.806997 -1.049804,-0.899495 -1.101924,-2.064467 -0.0579,-1.239945 0.737805,-2.168618 0.795707,-0.928672 1.995275,-1.02117 1.193787,-0.167471 2.243591,0.732024 1.049803,0.899495 1.107705,2.13944 0.05212,1.164972 -0.743586,2.093645 z"
           style="font-style:normal;font-variant:normal;font-weight:normal;font-stretch:normal;font-size:53.17129898px;line-height:125%;font-family:'Ubuntu Condensed';-inkscape-font-specification:'Ubuntu Condensed,';text-align:center;writing-mode:lr-tb;text-anchor:middle;fill:#f68712;fill-opacity:1;stroke:none;stroke-width:0.96289831"
           id="path4890"
           inkscape:connector-curvature="0" />
        <path
           d="m 38.311376,55.412256 q 1.072837,-1.629237 2.527333,-3.295212 1.420899,-1.707187 2.822096,-2.849499 1.442408,-1.175909 2.898712,-1.745731 1.497515,-0.60342 3.109717,-0.477118 0.500347,-1.574131 1.367126,-3.035381 0.866779,-1.461251 2.350399,-2.670757 1.48362,-1.209507 3.048329,-1.730503 1.572324,-0.595805 3.277705,-0.271059 1.70538,0.324746 3.644608,1.693679 1.905631,1.327721 4.022267,3.924056 L 78.030045,58.01883 74.485842,60.908206 64.070647,48.132589 q -2.620598,-3.21451 -4.571914,-4.093376 -1.951317,-0.878867 -4.0119,0.801003 -0.783022,0.638351 -1.372073,1.59878 -0.54784,0.926833 -0.84527,1.992529 1.102434,0.679089 2.241605,1.739837 1.139172,1.060749 2.348678,2.544369 L 68.51015,65.77983 64.965947,68.669206 54.550752,55.89359 q -2.620598,-3.21451 -4.571914,-4.093377 -1.951317,-0.878867 -4.0119,0.801003 -1.071504,0.873533 -2.095515,2.394364 l 15.118832,18.54525 -3.544203,2.889377 z"
           style="font-style:normal;font-variant:normal;font-weight:normal;font-stretch:normal;font-size:53.17129898px;line-height:125%;font-family:'Ubuntu Condensed';-inkscape-font-specification:'Ubuntu Condensed,';text-align:center;writing-mode:lr-tb;text-anchor:middle;fill:#f68712;fill-opacity:1;stroke:none;stroke-width:0.96289831"
           id="path4892"
           inkscape:connector-curvature="0" />
        <path
           d="m 87.300897,48.48287 q 1.75974,0.06883 3.328031,-0.718106 1.188099,-0.596166 1.852588,-1.524491 0.664489,-0.928325 0.733828,-2.331382 0.116864,-1.426903 -0.45664,-3.39974 -0.573503,-1.972836 -1.908914,-4.634178 -2.575433,-5.132587 -5.003048,-6.650984 -2.403938,-1.589767 -5.255375,-0.15897 -0.522763,0.262312 -1.092881,0.667366 -0.593965,0.35753 -1.163914,0.881478 z m 6.295505,12.546324 -4.08706,2.050809 -16.59724,-33.076673 q 1.044511,-1.237992 2.540923,-2.405291 1.52009,-1.23867 3.278476,-2.120994 2.613817,-1.311564 4.920337,-1.338627 2.354044,-0.05091 4.353097,1.087635 2.02273,1.067173 3.785517,3.276106 1.786465,2.137562 3.360341,5.274143 3.171599,6.320686 2.797332,10.672767 -0.326744,4.328235 -4.889043,6.617509 -1.093051,0.548472 -2.067716,0.740092 -0.950817,0.239143 -1.901973,0.240497 z"
           style="font-style:normal;font-variant:normal;font-weight:normal;font-stretch:normal;font-size:53.17129898px;line-height:125%;font-family:'Ubuntu Condensed';-inkscape-font-specification:'Ubuntu Condensed,';text-align:center;writing-mode:lr-tb;text-anchor:middle;fill:#f68712;fill-opacity:1;stroke:none;stroke-width:0.96289831"
           id="path4894"
           inkscape:connector-curvature="0" />
        <path
           d="m 112.04894,42.513508 -4.32423,1.486914 -9.077084,-26.397914 4.324234,-1.486914 z M 99.201799,12.182849 q -1.15648,0.397663 -2.270615,-0.06264 -1.081143,-0.527873 -1.530675,-1.835198 -0.449532,-1.3073257 0.09563,-2.3381869 0.578155,-1.0984327 1.734635,-1.4960956 1.15648,-0.397663 2.237623,0.1302097 1.114133,0.4603014 1.563663,1.7676266 0.44954,1.3073253 -0.12862,2.4057582 -0.54516,1.030863 -1.701641,1.428526 z"
           style="font-style:normal;font-variant:normal;font-weight:normal;font-stretch:normal;font-size:53.17129898px;line-height:125%;font-family:'Ubuntu Condensed';-inkscape-font-specification:'Ubuntu Condensed,';text-align:center;writing-mode:lr-tb;text-anchor:middle;fill:#f68712;fill-opacity:1;stroke:none;stroke-width:0.96289831"
           id="path4896"
           inkscape:connector-curvature="0" />
        <path
           d="m 114.72981,13.324443 q 1.8174,-0.953714 3.98889,-1.760338 2.16122,-0.858796 4.03937,-1.228364 2.03467,-0.4003653 3.81706,-0.154991 1.77213,0.193204 3.17653,1.271629 1.45657,1.068159 2.52405,3.188318 1.10939,2.057722 1.75613,5.344487 l 3.25425,16.53817 -4.48669,0.882857 -3.18239,-16.172974 q -0.80073,-4.069328 -2.21372,-5.742164 -1.41299,-1.672837 -4.28238,-1.108219 -1.51296,0.297708 -3.28845,1.188985 l 4.6196,23.476896 -4.4867,0.882857 z"
           style="font-style:normal;font-variant:normal;font-weight:normal;font-stretch:normal;font-size:53.17129898px;line-height:125%;font-family:'Ubuntu Condensed';-inkscape-font-specification:'Ubuntu Condensed,';text-align:center;writing-mode:lr-tb;text-anchor:middle;fill:#f68712;fill-opacity:1;stroke:none;stroke-width:0.96289831"
           id="path4898"
           inkscape:connector-curvature="0" />
        <path
           d="m 161.85789,34.69968 q 0.0449,2.977254 -0.72208,5.009566 -0.71303,2.084675 -2.02291,3.380696 -1.30987,1.29602 -3.10867,1.908112 -1.74563,0.61129 -3.76591,0.641773 -1.70128,0.02567 -3.40819,-0.320818 -1.7069,-0.346487 -3.15359,-1.069141 l 0.89921,-3.842337 q 0.965,0.517213 2.35371,0.921678 1.38872,0.404465 2.87735,0.382004 2.60509,-0.03931 4.07126,-1.550394 1.46616,-1.511088 1.41162,-5.126325 l -0.0201,-1.329131 q -0.84503,0.384991 -1.79799,0.665257 -0.95377,0.2271 -2.17657,0.24555 -4.99753,0.07541 -7.38814,-3.291875 -2.33825,-3.421247 -2.43291,-9.694746 -0.0505,-3.349411 0.49418,-6.016497 0.59707,-2.721054 1.84496,-4.60109 1.30025,-1.9340036 3.35926,-2.922263 2.0582,-1.0414247 5.03545,-1.0863468 1.96712,-0.029681 3.83432,0.367565 1.91956,0.3432783 3.41782,0.9588002 z m -4.92517,-23.323721 q -0.74753,-0.201431 -1.43948,-0.244168 -0.69275,-0.0959 -1.27757,-0.08708 -3.18991,0.04813 -4.64164,2.516193 -1.39856,2.467261 -1.31513,7.996446 0.0754,4.997534 1.54215,7.049319 1.46594,1.998621 4.12421,1.958512 0.9038,-0.01364 1.69807,-0.238331 0.84744,-0.225496 1.58614,-0.608883 z"
           style="font-style:normal;font-variant:normal;font-weight:normal;font-stretch:normal;font-size:53.17129898px;line-height:125%;font-family:'Ubuntu Condensed';-inkscape-font-specification:'Ubuntu Condensed,';text-align:center;writing-mode:lr-tb;text-anchor:middle;fill:#f68712;fill-opacity:1;stroke:none;stroke-width:0.96289831"
           id="path4900"
           inkscape:connector-curvature="0" />
        <path
           d="m 175.53853,34.510065 q -0.14271,1.214585 -1.15213,2.059651 -0.95661,0.851271 -2.38243,0.683745 -1.42582,-0.167525 -2.15906,-1.217344 -0.73325,-1.04982 -0.59054,-2.264405 0.14891,-1.267393 1.10552,-2.118663 0.95662,-0.85127 2.38243,-0.683745 1.42582,0.167525 2.15907,1.217345 0.78605,1.056023 0.63714,2.323416 z"
           style="font-style:normal;font-variant:normal;font-weight:normal;font-stretch:normal;font-size:53.17129898px;line-height:125%;font-family:'Ubuntu Condensed';-inkscape-font-specification:'Ubuntu Condensed,';text-align:center;writing-mode:lr-tb;text-anchor:middle;fill:#f68712;fill-opacity:1;stroke:none;stroke-width:0.96289831"
           id="path4902"
           inkscape:connector-curvature="0" />
        <path
           d="m 186.77742,39.068385 -4.47544,-0.938268 5.7278,-27.320976 4.47544,0.938269 z m 4.50472,-32.6298251 q -1.19692,-0.2509323 -1.91795,-1.2170033 -0.65807,-1.0072009 -0.37441,-2.3602397 0.28366,-1.3530388 1.27995,-1.95907647 1.05924,-0.64716756 2.25616,-0.39623526 1.19692,0.25093229 1.855,1.25813313 0.72103,0.966071 0.43736,2.3191098 -0.28366,1.3530388 -1.3429,2.0002064 -0.99629,0.6060377 -2.19321,0.3551054 z"
           style="font-style:normal;font-variant:normal;font-weight:normal;font-stretch:normal;font-size:53.17129898px;line-height:125%;font-family:'Ubuntu Condensed';-inkscape-font-specification:'Ubuntu Condensed,';text-align:center;writing-mode:lr-tb;text-anchor:middle;fill:#f68712;fill-opacity:1;stroke:none;stroke-width:0.96289831"
           id="path4904"
           inkscape:connector-curvature="0" />
        <path
           d="m 207.47485,15.845683 6.67776,2.160676 -1.21129,3.743589 -6.67775,-2.160676 -4.73057,14.620232 q -0.88392,2.731808 -0.28284,4.155773 0.66804,1.389745 2.33748,1.929914 0.86001,0.278269 1.70069,0.270855 0.89127,0.009 1.56233,-0.165112 l -0.26943,3.768913 q -2.467,0.543018 -4.7941,-0.209945 -3.74359,-1.211288 -4.94426,-3.891083 -1.13372,-2.714015 0.43768,-7.570562 l 8.15164,-25.1933416 4.59619,0.6488776 z"
           style="font-style:normal;font-variant:normal;font-weight:normal;font-stretch:normal;font-size:53.17129898px;line-height:125%;font-family:'Ubuntu Condensed';-inkscape-font-specification:'Ubuntu Condensed,';text-align:center;writing-mode:lr-tb;text-anchor:middle;fill:#f68712;fill-opacity:1;stroke:none;stroke-width:0.96289831"
           id="path4906"
           inkscape:connector-curvature="0" />
      </g>
      <g
         id="g4908"
         transform="matrix(1.031561,-0.12008971,0.12008884,1.0315684,-60.945614,-1.8933015)"
         style="stroke-width:0.96289831">
        <text
           id="text4910"
           style="font-style:normal;font-variant:normal;font-weight:normal;font-stretch:normal;font-size:22.12595177px;line-height:0%;font-family:'Ubuntu Condensed';-inkscape-font-specification:'Ubuntu Condensed, ';letter-spacing:0px;word-spacing:0px;fill:#f68712;fill-opacity:1;stroke:#000000;stroke-width:1.54945755;stroke-opacity:0"
           xml:space="preserve"
           inkscape:export-xdpi="211.4758"
           inkscape:export-ydpi="211.4758"
           transform="translate(1.4103868,0.16418768)"><textPath
             id="textPath4912"
             xlink:href="#path4162"
             style="stroke-width:1.54945755"> Prototype devices</textPath></text>
      </g>
      <path
         style="color:#000000;display:inline;overflow:visible;visibility:visible;fill:none;stroke:none;stroke-width:1.29128397;marker:none;enable-background:accumulate"
         d="M 77.541548,542.84953 A 86.80345,86.80345 0 0 0 201.07714,441.19558"
         id="path4916"
         inkscape:connector-curvature="0"
         inkscape:export-xdpi="211.4758"
         inkscape:export-ydpi="211.4758" />
    </g>
  </g>
</svg>
